<svg width="117" height="27" viewBox="0 0 117 27" fill="none" xmlns="http://www.w3.org/2000/svg">
<g clip-path="url(#clip0_26_798)">
<g clip-path="url(#clip1_26_798)">
<path d="M16.3686 17.958C16.515 17.958 16.6562 17.9476 16.7973 17.9424H14.1415V17.958H16.3634H16.3686Z" fill="#FF2C2C"/>
<path d="M24.2158 5.76272C23.395 4.82303 22.318 4.07024 20.9692 3.50435C19.6204 2.93846 17.9945 2.65811 16.0811 2.65811H10.3931V6.23516H14.1415L17.1947 6.22997C17.6233 6.22997 18.1514 6.31304 18.7735 6.47398C19.3956 6.63492 20.0021 6.93085 20.598 7.36175C21.194 7.79266 21.6907 8.39489 22.0985 9.17364C22.501 9.95239 22.7049 10.9596 22.7049 12.19C22.7049 13.1297 22.5533 13.9655 22.2501 14.6924C21.9468 15.4192 21.5182 16.0214 20.9588 16.5043C20.3994 16.9819 19.7302 17.3453 18.9565 17.5945C18.3082 17.8022 17.5972 17.9164 16.8287 17.9527H16.8026C16.6614 17.9579 16.5203 17.9683 16.3739 17.9683H14.152V17.9527H10.4036V21.5609H17.0221C18.3134 21.5609 19.5368 21.3533 20.6921 20.9327C21.8475 20.5122 22.8617 19.9048 23.74 19.1105C24.6183 18.3162 25.3136 17.3557 25.8207 16.2343C26.3278 15.1129 26.584 13.8513 26.584 12.4496C26.584 11.2659 26.3958 10.0978 26.0142 8.92964C25.6325 7.7667 25.0365 6.7128 24.2158 5.77311V5.76272Z" fill="#FF2C2C"/>
<path d="M31.1271 4.52713C30.6461 4.52713 30.1913 4.69845 29.7678 5.0411C29.3444 5.38375 29.1352 5.81985 29.1352 6.3494C29.1352 6.87895 29.3444 7.30986 29.7678 7.64732C30.1913 7.97958 30.6409 8.14572 31.1271 8.14572C31.6133 8.14572 32.0524 7.97958 32.4602 7.64732C32.8628 7.31505 33.0666 6.87895 33.0666 6.3494C33.0666 5.81985 32.8628 5.38375 32.4602 5.0411C32.0577 4.69845 31.6133 4.52713 31.1271 4.52713Z" fill="#FF2C2C"/>
<path d="M32.8366 10.3314H29.2189V21.5506H32.8366V10.3314Z" fill="#FF2C2C"/>
<path d="M45.0647 19.0326V19.8944C45.1066 19.8217 45.1588 19.749 45.1954 19.6764L45.0647 19.0326Z" fill="#FF2C2C"/>
<path d="M45.07 11.214C45.07 11.214 45.0857 11.2244 45.0909 11.2296L44.9602 11.5618L45.07 11.2088C44.7092 10.8038 44.176 10.4664 43.4702 10.186C42.754 9.90568 41.9071 9.76031 40.9242 9.76031C39.9414 9.76031 39.0108 10.0251 38.1325 10.5546C37.2542 11.0842 36.538 11.811 35.9891 12.7248C35.4401 13.6385 35.163 14.6872 35.163 15.8709C35.163 17.0546 35.4192 18.041 35.9368 18.9392C36.4543 19.8373 37.1497 20.5486 38.0175 21.0677C38.8853 21.5921 39.8316 21.8517 40.8458 21.8517C42.0169 21.8517 42.9683 21.6336 43.6898 21.1975C44.3172 20.8185 44.7668 20.3773 45.0595 19.8892V19.0274L45.1902 19.6712C45.1536 19.7491 45.1066 19.8166 45.0595 19.8892V21.4935C45.0595 22.0594 44.9079 22.5266 44.6047 22.9056C44.3015 23.2794 43.9094 23.5701 43.4179 23.7674C42.9265 23.9647 42.3985 24.0633 41.8287 24.0633C40.966 24.0633 40.2707 23.8972 39.7479 23.5649C39.2199 23.2327 38.7599 22.8848 38.3625 22.5266L36.2452 24.9926C36.6216 25.2989 37.0556 25.626 37.5365 25.9687C38.0175 26.3113 38.6083 26.6021 39.3088 26.8409C40.0093 27.0797 40.8667 27.1991 41.8809 27.1991C43.12 27.1991 44.2544 26.9551 45.2791 26.4671C46.3038 25.9791 47.1298 25.3145 47.7467 24.4631C48.3688 23.6168 48.6772 22.646 48.6772 21.5506V10.3314H45.3418L45.0647 11.214H45.07ZM45.0647 17.2415C44.8556 17.6205 44.6047 17.932 44.3015 18.176C43.9982 18.4252 43.6532 18.6121 43.2663 18.7419C42.8795 18.8717 42.4351 18.934 41.9332 18.934C41.3477 18.934 40.8197 18.799 40.3439 18.5238C39.8682 18.2487 39.497 17.8749 39.2199 17.3921C38.9428 16.9092 38.8069 16.3745 38.8069 15.7723C38.8069 15.17 38.9428 14.6405 39.2199 14.1784C39.497 13.7164 39.8682 13.3529 40.3439 13.0882C40.8197 12.8234 41.3477 12.6884 41.9332 12.6884C42.4351 12.6884 42.8847 12.7611 43.2925 12.9065C43.695 13.0518 44.0558 13.2595 44.3642 13.5243C44.6726 13.789 44.9079 14.1109 45.0595 14.4847V17.2311L45.0647 17.2415Z" fill="#FF2C2C"/>
<path d="M45.0909 11.2296C45.0909 11.2296 45.0804 11.2192 45.07 11.214L44.9602 11.567L45.0909 11.2348V11.2296Z" fill="#FF2C2C"/>
<path d="M53.8006 4.52713C53.3197 4.52713 52.8648 4.69845 52.4414 5.0411C52.0179 5.38375 51.8088 5.81985 51.8088 6.3494C51.8088 6.87895 52.0179 7.30986 52.4414 7.64732C52.8648 7.97958 53.3144 8.14572 53.8006 8.14572C54.2868 8.14572 54.726 7.97958 55.1337 7.64732C55.5363 7.31505 55.7402 6.87895 55.7402 6.3494C55.7402 5.81985 55.5363 5.38375 55.1337 5.0411C54.7312 4.69845 54.2868 4.52713 53.8006 4.52713Z" fill="#FF2C2C"/>
<path d="M55.5049 10.3314H51.8872V21.5506H55.5049V10.3314Z" fill="#FF2C2C"/>
<path d="M63.3939 5.40454H59.7761V10.2795H58.0143V13.0778H59.7761V21.5506H63.3939V13.0778H66.1333V10.2795H63.3939V5.40454Z" fill="#FF2C2C"/>
<path d="M77.2008 19.8841L76.9185 19.1157V20.154C77.0754 19.9775 77.1695 19.8893 77.2008 19.8893V19.8841Z" fill="#FF2C2C"/>
<path d="M76.9394 11.4788C76.9394 11.4788 76.976 11.5151 76.9917 11.5359L76.8349 11.972L76.9342 11.4788C76.563 11.0582 76.103 10.6689 75.554 10.3158C74.979 9.94721 74.1268 9.7655 73.008 9.7655C72.0618 9.7655 71.1626 10.0199 70.3209 10.5235C69.4739 11.0271 68.7943 11.7435 68.2768 12.6676C67.7592 13.5918 67.503 14.6872 67.503 15.954C67.503 17.3038 67.754 18.42 68.2506 19.2922C68.7525 20.1644 69.4269 20.8134 70.279 21.2287C71.1312 21.644 72.0827 21.8569 73.1335 21.8569C73.8079 21.8569 74.3882 21.7582 74.8796 21.561C75.371 21.3637 75.7841 21.1352 76.1186 20.8653C76.4532 20.6005 76.7094 20.3669 76.8819 20.1748C76.8924 20.1644 76.8976 20.1592 76.9081 20.1488V19.1105L77.1904 19.8789C77.159 19.8789 77.0597 19.9723 76.9081 20.1436V21.5454H80.5258V10.3262H77.1642L76.929 11.4736L76.9394 11.4788ZM76.9133 17.2363C76.7251 17.6153 76.5003 17.9268 76.2389 18.1708C75.9827 18.42 75.6795 18.6069 75.3345 18.7367C74.9894 18.8665 74.6025 18.9288 74.1686 18.9288C73.6354 18.9288 73.1387 18.7938 72.6839 18.5186C72.2291 18.2435 71.8631 17.8697 71.586 17.3869C71.3089 16.904 71.173 16.3693 71.173 15.7671C71.173 15.1648 71.3037 14.6353 71.5599 14.1732C71.8161 13.7112 72.1663 13.3477 72.6055 13.083C73.0446 12.8182 73.5204 12.6832 74.0379 12.6832C74.5032 12.6832 74.9267 12.7559 75.3031 12.9013C75.6795 13.0466 76.0089 13.2543 76.2859 13.5191C76.563 13.7838 76.7669 14.1057 76.9081 14.4795V17.2259L76.9133 17.2363Z" fill="#FF2C2C"/>
<path d="M76.9917 11.5359C76.9917 11.5359 76.9551 11.4995 76.9394 11.4788L76.8401 11.972L76.9969 11.5359H76.9917Z" fill="#FF2C2C"/>
<path d="M87.3587 1.29272H83.741V21.5506H87.3587V1.29272Z" fill="#FF2C2C"/>
<path d="M99.5345 10.5754C98.5883 10.0562 97.4643 9.79147 96.173 9.79147C94.8817 9.79147 93.7681 10.0511 92.7853 10.5754C91.8024 11.0998 91.0392 11.811 90.4954 12.7196C89.9517 13.6281 89.6799 14.6561 89.6799 15.7982C89.6799 17.065 89.957 18.15 90.5059 19.0586C91.0548 19.9671 91.8181 20.6576 92.7957 21.1404C93.7734 21.6233 94.8765 21.8569 96.1155 21.8569C97.4434 21.8569 98.5778 21.5921 99.5293 21.0626C100.481 20.533 101.207 19.8114 101.715 18.8924C102.222 17.9787 102.478 16.9456 102.478 15.7982C102.478 14.6509 102.222 13.6229 101.715 12.7196C101.207 11.8162 100.476 11.0998 99.5293 10.5754H99.5345ZM98.4994 17.4024C98.2746 17.8749 97.9557 18.2435 97.5427 18.5186C97.1297 18.7938 96.6383 18.9288 96.0684 18.9288C95.5509 18.9288 95.0856 18.7938 94.6726 18.5186C94.2596 18.2435 93.9302 17.8749 93.6897 17.4024C93.4492 16.93 93.329 16.4056 93.329 15.8242C93.329 15.2427 93.4492 14.6924 93.6897 14.2303C93.9302 13.7683 94.2596 13.3997 94.6726 13.1245C95.0856 12.8494 95.5509 12.7144 96.0684 12.7144C96.6383 12.7144 97.1297 12.8494 97.5427 13.1245C97.9557 13.3997 98.2746 13.7683 98.4994 14.2303C98.7242 14.6924 98.834 15.2219 98.834 15.8242C98.834 16.4264 98.7242 16.93 98.4994 17.4024Z" fill="#FF2C2C"/>
<path d="M113.833 19.0326V19.8944C113.875 19.8217 113.927 19.749 113.964 19.6764L113.833 19.0326Z" fill="#FF2C2C"/>
<path d="M114.115 10.3314L113.838 11.214C113.838 11.214 113.849 11.2244 113.859 11.2296L113.728 11.5618L113.838 11.2088C113.477 10.8038 112.944 10.4664 112.238 10.186C111.522 9.90568 110.675 9.76031 109.692 9.76031C108.71 9.76031 107.779 10.0251 106.901 10.5546C106.022 11.0842 105.306 11.811 104.757 12.7248C104.203 13.6385 103.931 14.6872 103.931 15.8709C103.931 17.0546 104.193 18.041 104.705 18.9392C105.223 19.8373 105.918 20.5486 106.786 21.0677C107.654 21.5921 108.6 21.8517 109.619 21.8517C110.79 21.8517 111.737 21.6336 112.463 21.1975C113.096 20.8185 113.54 20.3773 113.833 19.8892V19.0274L113.964 19.6712C113.927 19.7491 113.88 19.8166 113.833 19.8892V21.4935C113.833 22.0594 113.681 22.5266 113.378 22.9056C113.075 23.2794 112.683 23.5701 112.191 23.7674C111.7 23.9647 111.172 24.0633 110.602 24.0633C109.739 24.0633 109.044 23.8972 108.521 23.5649C107.993 23.2327 107.533 22.8848 107.136 22.5266L105.019 24.9926C105.395 25.2989 105.829 25.626 106.31 25.9687C106.791 26.3113 107.382 26.6021 108.082 26.8409C108.778 27.0797 109.635 27.1991 110.654 27.1991C111.893 27.1991 113.028 26.9551 114.052 26.4671C115.077 25.9791 115.903 25.3145 116.52 24.4631C117.137 23.6117 117.451 22.646 117.451 21.5506V10.3314H114.115ZM113.833 17.2363C113.624 17.6153 113.373 17.9268 113.07 18.1708C112.766 18.42 112.421 18.6069 112.035 18.7367C111.648 18.8665 111.203 18.9288 110.701 18.9288C110.116 18.9288 109.588 18.7938 109.112 18.5186C108.636 18.2435 108.265 17.8697 107.988 17.3869C107.711 16.904 107.575 16.3693 107.575 15.7671C107.575 15.1648 107.711 14.6353 107.988 14.1732C108.265 13.7112 108.636 13.3478 109.112 13.083C109.588 12.8182 110.116 12.6832 110.701 12.6832C111.203 12.6832 111.653 12.7559 112.061 12.9013C112.463 13.0466 112.824 13.2543 113.132 13.5191C113.441 13.7839 113.676 14.1057 113.833 14.4795V17.2259V17.2363Z" fill="#FF2C2C"/>
<path d="M113.859 11.2296C113.859 11.2296 113.849 11.2192 113.838 11.214L113.728 11.567L113.859 11.2348V11.2296Z" fill="#FF2C2C"/>
<path d="M10.4088 6.16769H3.91049V12.6209H10.4088V6.16769Z" fill="#FF2C2C"/>
<path d="M14.3402 12.6209H10.4088V16.525H14.3402V12.6209Z" fill="#FF2C2C"/>
<path d="M3.9314 2.26355H0V6.16768H3.9314V2.26355Z" fill="#FF2C2C"/>
<path d="M6.23169 0H3.91049V2.3051H6.23169V0Z" fill="#FF2C2C"/>
</g>
</g>
<defs>
<clipPath id="clip0_26_798">
<rect width="117" height="27" fill="white"/>
</clipPath>
<clipPath id="clip1_26_798">
<rect width="117.451" height="27.1991" fill="white"/>
</clipPath>
</defs>
</svg>
