<svg width="13" height="14" viewBox="0 0 13 14" fill="none" xmlns="http://www.w3.org/2000/svg">
<g clip-path="url(#clip0_147_4535)">
<path fill-rule="evenodd" clip-rule="evenodd" d="M10.9012 3.58217C10.9988 3.67928 11.0536 3.81098 11.0536 3.9483C11.0536 4.08561 10.9988 4.21731 10.9012 4.31443L5.17778 10.0109C5.0802 10.108 4.94788 10.1626 4.80991 10.1626C4.67195 10.1626 4.53963 10.108 4.44205 10.0109L1.84049 7.42161C1.79079 7.37384 1.75115 7.3167 1.72388 7.25352C1.69661 7.19033 1.68226 7.12238 1.68166 7.05362C1.68106 6.98486 1.69422 6.91666 1.72039 6.85302C1.74655 6.78938 1.78518 6.73156 1.83404 6.68293C1.88289 6.63431 1.94098 6.59586 2.00493 6.56982C2.06887 6.54378 2.13739 6.53068 2.20648 6.53127C2.27556 6.53187 2.34384 6.54616 2.40732 6.5733C2.4708 6.60044 2.52821 6.63989 2.57621 6.68935L4.80991 8.91254L10.1655 3.58217C10.2631 3.48508 10.3954 3.43054 10.5334 3.43054C10.6713 3.43054 10.8036 3.48508 10.9012 3.58217Z" fill="#111019"/>
</g>
<defs>
<clipPath id="clip0_147_4535">
<rect width="12.488" height="12.4292" fill="white" transform="translate(0.127441 0.841064)"/>
</clipPath>
</defs>
</svg>
