<svg width="25" height="23" viewBox="0 0 25 23" fill="none" xmlns="http://www.w3.org/2000/svg">
<g clip-path="url(#clip0_26_1404)">
<path d="M7.92 21.37H0.31C0.14 21.37 0 21.23 0 21.06V2.34003C0 2.17003 0.14 2.03003 0.31 2.03003H11.36C11.41 2.03003 11.46 2.04003 11.5 2.07003L15.31 4.11003C15.41 4.16003 15.47 4.27003 15.47 4.38003V7.22003C15.47 7.39003 15.33 7.53003 15.16 7.53003C14.99 7.53003 14.85 7.39003 14.85 7.22003V4.56003L11.27 2.64003H0.61V20.76H7.92C8.09 20.76 8.23 20.9 8.23 21.07C8.23 21.24 8.09 21.38 7.92 21.38V21.37Z" fill="#272727"/>
<path d="M11.88 6.05006C11.76 6.05006 11.65 5.98006 11.6 5.87006L10.73 3.91006C10.66 3.76006 10.73 3.58006 10.89 3.51006C11.04 3.44006 11.22 3.51006 11.29 3.66006L12.04 5.36006L14.82 4.37006C14.98 4.31006 15.15 4.40006 15.21 4.55006C15.27 4.71006 15.18 4.88006 15.03 4.94006L11.98 6.03006C11.98 6.03006 11.91 6.05006 11.88 6.05006Z" fill="#272727"/>
<path d="M17.2 7.52999C17.03 7.52999 16.89 7.38999 16.89 7.21999V0.60999H2.75C2.58 0.60999 2.44 0.46999 2.44 0.29999C2.44 0.12999 2.58 -0.0100098 2.75 -0.0100098H17.2C17.37 -0.0100098 17.51 0.12999 17.51 0.29999V7.21999C17.51 7.38999 17.37 7.52999 17.2 7.52999Z" fill="#EEEEEE"/>
<path d="M16.79 8.74999C13.02 8.74999 9.96997 11.8 9.96997 15.57C9.96997 16.82 10.31 18 10.9 19.01L12.41 17.91L13.16 18.02C12.68 17.32 12.41 16.48 12.41 15.57C12.41 13.15 14.37 11.19 16.79 11.19C19.21 11.19 21.17 13.15 21.17 15.57C21.17 17.99 19.21 19.95 16.79 19.95C15.72 19.95 14.75 19.57 13.99 18.93L14.25 19.74L12.85 21.13C13.96 21.92 15.32 22.38 16.79 22.38C20.56 22.38 23.61 19.33 23.61 15.56C23.61 11.79 20.56 8.73999 16.79 8.73999V8.74999Z" fill="#FF5C5C"/>
<path d="M16.79 17.5C17.8559 17.5 18.72 16.6359 18.72 15.57C18.72 14.5041 17.8559 13.64 16.79 13.64C15.7241 13.64 14.86 14.5041 14.86 15.57C14.86 16.6359 15.7241 17.5 16.79 17.5Z" fill="#FF5C5C"/>
<path d="M16.79 22.8C15.7 22.8 14.66 22.57 13.69 22.1C13.54 22.03 13.47 21.85 13.55 21.69C13.62 21.54 13.8 21.47 13.96 21.55C14.85 21.97 15.81 22.19 16.8 22.19C20.45 22.19 23.42 19.22 23.42 15.57C23.42 11.92 20.45 8.94997 16.8 8.94997C13.15 8.94997 10.18 11.92 10.18 15.57C10.18 16.3 10.3 17.02 10.53 17.7C10.58 17.86 10.5 18.03 10.34 18.09C10.18 18.14 10.01 18.06 9.95001 17.9C9.70001 17.15 9.57001 16.37 9.57001 15.57C9.57001 11.59 12.81 8.33997 16.8 8.33997C20.79 8.33997 24.03 11.58 24.03 15.57C24.03 19.56 20.79 22.8 16.8 22.8H16.79Z" fill="#272727"/>
<path d="M16.79 20.15C16.25 20.15 15.73 20.06 15.22 19.88C15.06 19.82 14.98 19.65 15.04 19.49C15.1 19.33 15.27 19.25 15.43 19.31C15.86 19.47 16.32 19.55 16.79 19.55C18.98 19.55 20.76 17.77 20.76 15.58C20.76 13.39 18.98 11.61 16.79 11.61C14.6 11.61 12.82 13.39 12.82 15.58C12.82 15.91 12.86 16.23 12.94 16.54C12.98 16.7 12.88 16.87 12.72 16.91C12.55 16.95 12.39 16.85 12.35 16.69C12.26 16.33 12.21 15.96 12.21 15.58C12.21 13.05 14.26 11 16.79 11C19.32 11 21.37 13.05 21.37 15.58C21.37 18.11 19.32 20.16 16.79 20.16V20.15Z" fill="#272727"/>
<path d="M16.79 17.7099C16.65 17.7099 16.52 17.6999 16.39 17.6699C16.22 17.6399 16.12 17.4799 16.15 17.3099C16.18 17.1399 16.34 17.0399 16.51 17.0699C16.6 17.0899 16.7 17.0999 16.8 17.0999C17.64 17.0999 18.33 16.4199 18.33 15.5699C18.33 14.7199 17.65 14.0399 16.8 14.0399C15.95 14.0399 15.27 14.7199 15.27 15.5699C15.27 15.6499 15.27 15.7299 15.29 15.8199C15.32 15.9899 15.2 16.1399 15.04 16.1699C14.87 16.1999 14.72 16.0799 14.69 15.9199C14.67 15.8099 14.66 15.6899 14.66 15.5799C14.66 14.3999 15.62 13.4399 16.8 13.4399C17.98 13.4399 18.94 14.3999 18.94 15.5799C18.94 16.7599 17.98 17.7199 16.8 17.7199L16.79 17.7099Z" fill="#272727"/>
<path d="M10.28 21.98C10.2 21.98 10.12 21.95 10.06 21.88C9.94001 21.76 9.95001 21.56 10.07 21.45L16.58 15.34C16.7 15.22 16.9 15.23 17.01 15.35C17.13 15.47 17.12 15.67 17 15.78L10.49 21.89C10.43 21.95 10.36 21.97 10.28 21.97V21.98Z" fill="#272727"/>
<path d="M11.5 23C11.5 23 11.45 23 11.42 23C11.31 22.97 11.22 22.88 11.2 22.77L10.86 21.17L9.14999 20.55C9.03999 20.51 8.97 20.42 8.95 20.31C8.93 20.2 8.98 20.09 9.07 20.02L12.33 17.58C12.42 17.51 12.55 17.5 12.65 17.55L13.87 18.16C13.94 18.2 14 18.26 14.02 18.34L14.43 19.56C14.46 19.66 14.44 19.7701 14.37 19.86L11.72 22.91C11.66 22.98 11.58 23.02 11.49 23.02L11.5 23ZM9.89999 20.16L11.24 20.65C11.34 20.69 11.41 20.7701 11.43 20.8701L11.67 22.03L13.8 19.57L13.49 18.63L12.55 18.16L9.89999 20.15V20.16Z" fill="#272727"/>
<path d="M4.38001 11.19C4.30001 11.19 4.22001 11.16 4.16001 11.1C4.04001 10.98 4.04001 10.79 4.16001 10.67L5.58001 9.25002C5.68001 9.15002 5.82001 9.13002 5.94001 9.20002L7.99001 10.32L11.49 7.21002C11.62 7.10002 11.81 7.11002 11.92 7.24002C12.03 7.37002 12.02 7.56002 11.89 7.67002L8.23001 10.93C8.13001 11.02 7.99001 11.03 7.88001 10.97L5.84001 9.86002L4.58001 11.12C4.52001 11.18 4.44001 11.21 4.36001 11.21L4.38001 11.19Z" fill="#EEEEEE"/>
<path d="M8.44998 13.23H2.53998C2.36998 13.23 2.22998 13.09 2.22998 12.92V5.19C2.22998 5.02 2.36998 4.88 2.53998 4.88C2.70998 4.88 2.84998 5.02 2.84998 5.19V12.62H8.44998C8.61998 12.62 8.75998 12.76 8.75998 12.93C8.75998 13.1 8.61998 13.24 8.44998 13.24V13.23Z" fill="#272727"/>
<path d="M7.84 15.47H2.75C2.58 15.47 2.44 15.33 2.44 15.16C2.44 14.99 2.58 14.85 2.75 14.85H7.84C8.01 14.85 8.15 14.99 8.15 15.16C8.15 15.33 8.01 15.47 7.84 15.47Z" fill="#272727"/>
<path d="M7.84 17.71H2.75C2.58 17.71 2.44 17.57 2.44 17.4C2.44 17.23 2.58 17.09 2.75 17.09H7.84C8.01 17.09 8.15 17.23 8.15 17.4C8.15 17.57 8.01 17.71 7.84 17.71Z" fill="#272727"/>
</g>
<defs>
<clipPath id="clip0_26_1404">
<rect width="24.02" height="23" fill="white"/>
</clipPath>
</defs>
</svg>
