<svg width="24" height="21" viewBox="0 0 24 21" fill="none" xmlns="http://www.w3.org/2000/svg">
<g clip-path="url(#clip0_26_1364)">
<path d="M0.400024 18.62V18.76C0.400024 19.69 1.15002 20.44 2.08002 20.44H21.75C22.68 20.44 23.43 19.69 23.43 18.76V18.62H0.400024Z" fill="#EEEEEE"/>
<path d="M21.86 20.64H1.98C0.89 20.64 0 19.75 0 18.66V18.52C0 18.35 0.14 18.22 0.3 18.22H23.53C23.7 18.22 23.83 18.36 23.83 18.52V18.66C23.83 19.75 22.94 20.64 21.85 20.64H21.86ZM0.62 18.82C0.7 19.5 1.28 20.03 1.99 20.03H21.86C22.56 20.03 23.15 19.5 23.23 18.82H0.62Z" fill="#272727"/>
<path d="M1.31001 17.6101C1.14001 17.6101 1.01001 17.4701 1.01001 17.3101V4.28006C1.01001 3.61006 1.56001 3.06006 2.23001 3.06006H12.62C12.79 3.06006 12.92 3.20006 12.92 3.36006C12.92 3.52006 12.78 3.66006 12.62 3.66006H2.23001C1.89001 3.66006 1.61001 3.94006 1.61001 4.28006V17.3001C1.61001 17.4701 1.47001 17.6001 1.31001 17.6001V17.6101Z" fill="#272727"/>
<path d="M22.53 17.6101C22.36 17.6101 22.23 17.4701 22.23 17.3101V9.23005C22.23 9.06005 22.37 8.93005 22.53 8.93005C22.69 8.93005 22.83 9.07005 22.83 9.23005V17.3101C22.83 17.4801 22.69 17.6101 22.53 17.6101Z" fill="#272727"/>
<path d="M7.62001 13.56C7.91001 13.44 8.25001 13.52 8.47001 13.28C8.69001 13.04 9.08001 12.65 9.27001 12.66C9.46001 12.67 9.44001 12.68 9.60001 12.55C9.83001 12.35 9.36001 12.27 9.33001 11.98C9.30001 11.77 8.87001 11.7 8.70001 11.59C8.53001 11.48 8.74001 11.01 8.64001 10.55C8.60001 10.35 8.64001 10.24 8.69001 10.18C8.76001 10.16 9.55001 9.75997 9.20001 9.35997C9.01001 9.12997 7.94001 8.95997 7.77001 8.95997C7.75001 8.94997 7.15001 9.23997 7.15001 9.23997C7.15001 9.23997 7.15001 9.24997 7.15001 9.26997C6.58001 9.64997 5.54001 10.38 4.85001 10.96C4.26001 11.46 3.98001 12.35 3.85001 12.99C3.62001 13.69 3.51001 14.5 3.51001 14.5C3.55001 15.06 4.41001 14.58 4.56001 15.64C4.59001 15.85 4.67001 15.96 4.88001 16.01C5.04001 16.57 6.14001 16.44 6.54001 16.82C6.95001 17.22 7.52001 17.34 7.52001 17.34C7.52001 17.34 9.78001 17.37 9.78001 17.36C9.51001 17.11 9.48001 16.94 9.25001 16.91C9.02001 16.87 8.98001 16.84 8.62001 16.53C8.37001 16.32 8.34001 16.66 7.69001 16.5C7.04001 16.34 6.97001 15.94 6.77001 15.63C6.48001 15.19 6.56001 14.96 6.74001 14.72C6.78001 14.76 6.83001 14.79 6.87001 14.83C7.07001 15.03 7.05001 14.7 7.05001 14.45C7.05001 14.2 7.21001 14.29 7.48001 14.12C7.75001 13.96 7.65001 13.58 7.66001 13.56H7.62001Z" fill="#FF5C5C"/>
<path d="M19.71 12.26C19.47 11.69 19.15 11.22 18.83 10.86C18.83 10.86 18.16 10.37 17.98 10.34L17.37 10.14C17.15 10.1 16.56 10.54 16.36 10.54C16.16 10.54 15.22 10.38 15.18 10.66C15.15 10.94 15.69 11.15 15.14 11.24C14.59 11.33 13.54 11.49 13.76 11.99C13.98 12.49 13.42 12.89 14.15 12.99C14.88 13.09 14.73 13.54 14.63 13.62C13.78 14.3 13.42 14.66 13.36 14.84C13.3 15.02 13.02 15.33 13.09 15.47C13.16 15.6 13.27 15.6 13.2 15.77C13.13 15.94 12.96 16.06 13.15 16.37C13.34 16.68 13.94 17.34 14.12 17.38C14.3 17.42 18.6 17.38 18.71 17.34C19.12 17.18 19.36 17.1 19.43 16.84C19.52 16.52 19.43 16.38 19.74 15.96C20.05 15.54 20.57 15.47 20.57 15.47C20.59 15.51 20.88 14.3 19.71 12.27V12.26Z" fill="#FF5C5C"/>
<path d="M20.79 17.54C20.79 17.54 20.78 17.54 20.77 17.54C20.6 17.53 20.48 17.39 20.49 17.22C20.5 17.04 20.51 16.86 20.51 16.67C20.51 15.12 20.09 13.59 19.3 12.27C19.21 12.13 19.26 11.94 19.4 11.85C19.54 11.76 19.73 11.81 19.82 11.95C20.67 13.37 21.12 15 21.12 16.67C21.12 16.87 21.12 17.06 21.1 17.26C21.09 17.42 20.96 17.54 20.8 17.54H20.79Z" fill="#272727"/>
<path d="M3.04997 17.64C2.88997 17.64 2.75997 17.52 2.74997 17.36C2.72997 17.13 2.71997 16.9 2.71997 16.67C2.71997 11.6 6.83997 7.47998 11.91 7.47998C12.15 7.47998 12.39 7.47998 12.62 7.50998C12.79 7.51998 12.91 7.66998 12.9 7.83998C12.89 8.00998 12.74 8.13998 12.57 8.11998C12.35 8.09998 12.13 8.08998 11.91 8.08998C7.17997 8.08998 3.31997 11.94 3.31997 16.68C3.31997 16.89 3.31997 17.11 3.33997 17.32C3.34997 17.49 3.22997 17.63 3.05997 17.64H3.03997H3.04997Z" fill="#272727"/>
<path d="M17.13 8.48001C17.49 8.58001 17.86 8.62001 18.22 8.60001L18.54 9.70001L20.2 9.22001L19.88 8.12001C20.2 7.94001 20.49 7.71001 20.74 7.44001L21.74 8.00001L22.58 6.49001L21.58 5.93001C21.68 5.57001 21.72 5.20001 21.7 4.84001L22.8 4.52001L22.32 2.86001L21.22 3.18001C21.04 2.86001 20.81 2.57001 20.54 2.32001L21.1 1.32001L19.59 0.48001L19.03 1.48001C18.67 1.38001 18.3 1.34001 17.94 1.36001L17.62 0.26001L15.96 0.74001L16.28 1.84001C15.96 2.02001 15.67 2.25001 15.42 2.52001L14.42 1.96001L13.58 3.47001L14.58 4.03001C14.48 4.39001 14.44 4.76001 14.46 5.12001L13.36 5.44001L13.84 7.10001L14.94 6.78001C15.12 7.10001 15.35 7.39001 15.62 7.64001L15.06 8.64001L16.57 9.48001L17.13 8.48001ZM16.73 4.58001C16.95 3.83001 17.73 3.40001 18.48 3.62001C19.23 3.84001 19.66 4.62001 19.44 5.37001C19.22 6.12001 18.44 6.55001 17.69 6.33001C16.94 6.11001 16.51 5.33001 16.73 4.58001Z" fill="#EEEEEE" stroke="#272727" stroke-width="0.5" stroke-linecap="round" stroke-linejoin="round"/>
<path d="M18.08 6.70004C17.8 6.70004 17.51 6.63004 17.25 6.48004C16.85 6.26004 16.56 5.89004 16.43 5.45004C16.3 5.01004 16.36 4.55004 16.58 4.14004C16.8 3.74004 17.17 3.45004 17.61 3.32004C18.05 3.19004 18.52 3.25004 18.92 3.47004C19.75 3.93004 20.05 4.98004 19.59 5.80004C19.28 6.36004 18.69 6.68004 18.09 6.68004L18.08 6.70004ZM17.54 5.95004C18.08 6.25004 18.75 6.05004 19.05 5.52004C19.35 4.98004 19.15 4.31004 18.62 4.01004C18.08 3.71004 17.41 3.91004 17.11 4.44004C16.97 4.70004 16.93 5.00004 17.01 5.28004C17.09 5.57004 17.28 5.80004 17.54 5.95004Z" fill="#272727"/>
</g>
<defs>
<clipPath id="clip0_26_1364">
<rect width="23.84" height="20.64" fill="white"/>
</clipPath>
</defs>
</svg>
