<svg width="24" height="23" viewBox="0 0 24 23" fill="none" xmlns="http://www.w3.org/2000/svg">
<g clip-path="url(#clip0_26_1375)">
<path d="M6.92999 20.0601V20.7201C6.92999 20.9301 7.09999 21.1101 7.31999 21.1101H11.26C11.47 21.1101 11.65 20.9401 11.65 20.7201V20.0601H6.93999H6.92999Z" fill="white"/>
<path d="M2.97998 16.3001C2.97998 16.3001 9.54998 16.5901 9.54998 16.3001V11.3101C9.54998 9.66006 8.33998 8.21006 6.69998 8.04006C4.82998 7.84006 3.21998 9.27006 3.15998 11.1101L2.97998 16.3101V16.3001Z" fill="#FFDCB4"/>
<path d="M8.20998 10.83C8.11998 13.14 7.29998 14 6.27998 14C5.25998 14 4.41998 13.02 4.48998 10.91L8.20998 10.84V10.83Z" fill="#FFE5E1"/>
<path d="M7.02 14.04H5.57C5.57 14.31 5.35 14.9 5.11 15.02L3.87 15.74C3.94 15.98 4.29 17.37 6.31 17.42C8.18 17.47 8.68 15.67 8.68 15.67C8.68 15.67 7.67 15.32 7.31 15.01C6.95 14.7 7.01 14.3 7.01 14.04H7.02Z" fill="#FFE5E1"/>
<path d="M8.76001 15.61C8.14001 16.4 7.44001 17.35 6.40001 17.44C5.89001 17.48 3.99001 17.05 4.04001 15.61C4.04001 15.61 1.95001 16.54 1.95001 19.25V20.06H10.59V18.17C10.59 17.22 8.76001 15.61 8.76001 15.61Z" fill="#FF859E"/>
<path d="M9.81 16.4H9.29V11.74C9.29 9.85003 7.94 8.30003 6.28 8.30003C4.62 8.30003 3.27 9.84003 3.27 11.74V16.4H2.75V11.74C2.75 9.56003 4.33 7.78003 6.28 7.78003C8.23 7.78003 9.81 9.56003 9.81 11.74V16.4Z" fill="#272727"/>
<path d="M2.22001 20.06H1.70001V18.87C1.70001 17.45 2.48001 16.12 3.73001 15.4L4.96001 14.81C5.20001 14.69 5.36001 14.44 5.36001 14.17V13.78H5.88001V14.17C5.88001 14.64 5.61001 15.08 5.18001 15.28L3.97001 15.86C2.89001 16.48 2.22001 17.63 2.22001 18.87V20.06Z" fill="#272727"/>
<path d="M10.86 20.06H10.34V18.87C10.34 17.63 9.65998 16.48 8.56998 15.85L7.36998 15.28C6.94998 15.08 6.66998 14.64 6.66998 14.17V13.78H7.18998V14.17C7.18998 14.44 7.34998 14.69 7.58998 14.81L8.79998 15.39C10.07 16.12 10.85 17.45 10.85 18.87V20.06H10.86Z" fill="#272727"/>
<path d="M6.28003 17.67C4.25003 17.67 3.59003 15.58 3.59003 15.55L4.09003 15.4C4.11003 15.47 4.65003 17.14 6.28003 17.14C7.91003 17.14 8.45003 15.47 8.47003 15.4L8.97003 15.55C8.97003 15.55 8.31003 17.67 6.28003 17.67Z" fill="#272727"/>
<path d="M9.28001 18.49H8.76001V20.06H9.28001V18.49Z" fill="#272727"/>
<path d="M3.79002 18.49H3.27002V20.06H3.79002V18.49Z" fill="#272727"/>
<path d="M6.27997 14.31C4.92997 14.31 4.15997 13.07 4.15997 10.91V10.65H8.39997V10.91C8.39997 13.07 7.62997 14.31 6.27997 14.31ZM4.68997 11.17C4.72997 12.25 4.99997 13.79 6.27997 13.79C7.55997 13.79 7.83997 12.25 7.86997 11.17H4.68997Z" fill="#272727"/>
<path d="M23.99 3.80996V21.4C23.99 21.91 23.57 22.33 23.06 22.33H0.93C0.42 22.33 0 21.91 0 21.4V3.80996C0 3.61996 0.16 3.45996 0.35 3.45996H23.65C23.84 3.45996 24 3.61996 24 3.80996H23.99ZM0.7 21.4C0.7 21.53 0.8 21.63 0.93 21.63H23.07C23.2 21.63 23.3 21.53 23.3 21.4V4.15996H0.7V21.4Z" fill="#272727"/>
<path d="M0.37998 0.469971H23.38C23.46 0.469971 23.53 0.539971 23.53 0.619971V4.19997H0.22998V0.619971C0.22998 0.539971 0.29998 0.469971 0.37998 0.469971Z" fill="#EEEEEE"/>
<path d="M23.65 4.43H0.35C0.16 4.43 0 4.27 0 4.08V0.93C0 0.42 0.42 0 0.93 0H23.07C23.58 0 24 0.42 24 0.93V4.08C24 4.27 23.84 4.43 23.65 4.43ZM0.7 3.73H23.3V0.93C23.3 0.8 23.2 0.7 23.07 0.7H0.93C0.8 0.7 0.7 0.8 0.7 0.93V3.73Z" fill="#272727"/>
<path d="M7.79999 2.55999H6.86999C6.67999 2.55999 6.51999 2.39999 6.51999 2.20999C6.51999 2.01999 6.67999 1.85999 6.86999 1.85999H7.79999C7.98999 1.85999 8.14998 2.01999 8.14998 2.20999C8.14998 2.39999 7.98999 2.55999 7.79999 2.55999ZM5.46999 2.55999H4.53999C4.34999 2.55999 4.18999 2.39999 4.18999 2.20999C4.18999 2.01999 4.34999 1.85999 4.53999 1.85999H5.46999C5.65999 1.85999 5.81999 2.01999 5.81999 2.20999C5.81999 2.39999 5.65999 2.55999 5.46999 2.55999ZM3.13999 2.55999H2.20999C2.01999 2.55999 1.85999 2.39999 1.85999 2.20999C1.85999 2.01999 2.01999 1.85999 2.20999 1.85999H3.13999C3.32999 1.85999 3.48999 2.01999 3.48999 2.20999C3.48999 2.39999 3.32999 2.55999 3.13999 2.55999Z" fill="#272727"/>
<path d="M21.82 12.23H12.04C11.85 12.23 11.69 12.07 11.69 11.88C11.69 11.69 11.85 11.53 12.04 11.53H21.82C22.01 11.53 22.17 11.69 22.17 11.88C22.17 12.07 22.01 12.23 21.82 12.23Z" fill="#272727"/>
<path d="M21.53 13.95H12.03C11.84 13.95 11.68 13.79 11.68 13.6C11.68 13.41 11.84 13.25 12.03 13.25H21.53C21.72 13.25 21.88 13.41 21.88 13.6C21.88 13.79 21.72 13.95 21.53 13.95Z" fill="#272727"/>
<path d="M20.6 15.66H12.03C11.84 15.66 11.68 15.5 11.68 15.31C11.68 15.12 11.84 14.96 12.03 14.96H20.6C20.79 14.96 20.95 15.12 20.95 15.31C20.95 15.5 20.79 15.66 20.6 15.66Z" fill="#272727"/>
<path d="M19.2 20.21H12.03C11.84 20.21 11.68 20.05 11.68 19.86V17.06C11.68 16.87 11.84 16.71 12.03 16.71H19.2C19.39 16.71 19.55 16.87 19.55 17.06V19.86C19.55 20.05 19.39 20.21 19.2 20.21ZM12.38 19.51H18.85V17.41H12.38V19.51Z" fill="#272727"/>
<path d="M3.83 7.99006H1.93C1.8 7.99006 1.69 7.88006 1.69 7.75006V5.80006C1.69 5.67006 1.8 5.56006 1.93 5.56006H3.83C3.96 5.56006 4.07 5.67006 4.07 5.80006V7.75006C4.07 7.88006 3.96 7.99006 3.83 7.99006ZM2.17 7.50006H3.58V6.04006H2.17V7.50006Z" fill="#272727"/>
<path d="M16.33 10.92C16.7442 10.92 17.08 10.5843 17.08 10.17C17.08 9.75583 16.7442 9.42004 16.33 9.42004C15.9158 9.42004 15.58 9.75583 15.58 10.17C15.58 10.5843 15.9158 10.92 16.33 10.92Z" fill="#FF5C5C"/>
<path d="M14.45 7.72998C14.8642 7.72998 15.2 7.39419 15.2 6.97998C15.2 6.56577 14.8642 6.22998 14.45 6.22998C14.0358 6.22998 13.7 6.56577 13.7 6.97998C13.7 7.39419 14.0358 7.72998 14.45 7.72998Z" fill="#FF5C5C"/>
<path d="M19.37 7.26005C19.6351 7.26005 19.85 7.04515 19.85 6.78005C19.85 6.51495 19.6351 6.30005 19.37 6.30005C19.1049 6.30005 18.89 6.51495 18.89 6.78005C18.89 7.04515 19.1049 7.26005 19.37 7.26005Z" fill="#FF5C5C"/>
<path d="M12.29 9.42004C12.22 9.42004 12.15 9.39004 12.09 9.34004C11.98 9.23004 11.98 9.05004 12.09 8.94004L13.22 7.81004C13.33 7.70004 13.51 7.70004 13.62 7.81004C13.73 7.92004 13.73 8.10004 13.62 8.21004L12.49 9.34004C12.44 9.39004 12.36 9.42004 12.29 9.42004Z" fill="#272727"/>
<path d="M19.93 8.36999C19.86 8.36999 19.79 8.33999 19.73 8.28999C19.62 8.17999 19.62 7.99999 19.73 7.88999L20.86 6.75999C20.97 6.64999 21.15 6.64999 21.26 6.75999C21.37 6.86999 21.37 7.04999 21.26 7.15999L20.13 8.28999C20.08 8.33999 20 8.36999 19.93 8.36999Z" fill="#272727"/>
<path d="M15.48 9.22998C15.39 9.22998 15.3 9.18998 15.25 9.09998L14.87 8.53998C14.78 8.40998 14.82 8.23998 14.95 8.14998C15.08 8.05998 15.25 8.09998 15.34 8.22998L15.72 8.78998C15.81 8.91998 15.77 9.08998 15.64 9.17998C15.59 9.20998 15.54 9.22998 15.48 9.22998Z" fill="#272727"/>
<path d="M17.17 9.23005C17.1 9.23005 17.04 9.21005 16.98 9.16005C16.86 9.06005 16.85 8.88005 16.95 8.76005L18.26 7.26005C18.36 7.14005 18.54 7.13005 18.66 7.23005C18.78 7.33005 18.79 7.51005 18.69 7.63005L17.38 9.13005C17.32 9.19005 17.25 9.23005 17.17 9.23005Z" fill="#272727"/>
</g>
<defs>
<clipPath id="clip0_26_1375">
<rect width="23.99" height="22.33" fill="white"/>
</clipPath>
</defs>
</svg>
