<svg width="24" height="22" viewBox="0 0 24 22" fill="none" xmlns="http://www.w3.org/2000/svg">
<g clip-path="url(#clip0_26_1331)">
<path d="M17.32 1.53003H14.64V2.24003C14.64 2.55003 14.43 2.84003 14.12 2.90003C13.72 2.97003 13.36 2.66003 13.36 2.27003V1.53003H11.24V2.24003C11.24 2.55003 11.03 2.84003 10.72 2.90003C10.32 2.97003 9.95997 2.66003 9.95997 2.27003V1.53003H7.83997V2.24003C7.83997 2.55003 7.62997 2.84003 7.31997 2.90003C6.91997 2.97003 6.55997 2.66003 6.55997 2.27003V1.53003H4.43997V2.24003C4.43997 2.55003 4.22997 2.84003 3.91997 2.90003C3.51997 2.97003 3.15997 2.66003 3.15997 2.27003V1.53003H1.32997C0.819973 1.53003 0.409973 1.94003 0.409973 2.45003V4.50003H18.23V2.45003C18.23 1.94003 17.82 1.53003 17.31 1.53003H17.32Z" fill="#EEEEEE"/>
<path d="M10.5 17.65H0.32C0.14 17.65 0 17.51 0 17.33V2.24999C0 1.61999 0.51 1.10999 1.14 1.10999H3.08C3.26 1.10999 3.4 1.24999 3.4 1.42999C3.4 1.60999 3.26 1.74999 3.08 1.74999H1.14C0.86 1.74999 0.64 1.97999 0.64 2.24999V17.02H10.51C10.69 17.02 10.83 17.16 10.83 17.34C10.83 17.52 10.69 17.66 10.51 17.66L10.5 17.65Z" fill="#272727"/>
<path d="M18.35 7.35999C18.17 7.35999 18.03 7.21999 18.03 7.03999V2.24999C18.03 1.96999 17.8 1.74999 17.53 1.74999H14.96C14.78 1.74999 14.64 1.60999 14.64 1.42999C14.64 1.24999 14.78 1.10999 14.96 1.10999H17.53C18.16 1.10999 18.67 1.61999 18.67 2.24999V7.04999C18.67 7.22999 18.53 7.36999 18.35 7.36999V7.35999Z" fill="#272727"/>
<path d="M13.26 1.73998H11.56C11.38 1.73998 11.24 1.59998 11.24 1.41998C11.24 1.23998 11.38 1.09998 11.56 1.09998H13.26C13.44 1.09998 13.58 1.23998 13.58 1.41998C13.58 1.59998 13.44 1.73998 13.26 1.73998Z" fill="#272727"/>
<path d="M9.86003 1.73998H8.16003C7.98003 1.73998 7.84003 1.59998 7.84003 1.41998C7.84003 1.23998 7.98003 1.09998 8.16003 1.09998H9.86003C10.04 1.09998 10.18 1.23998 10.18 1.41998C10.18 1.59998 10.04 1.73998 9.86003 1.73998Z" fill="#272727"/>
<path d="M6.47001 1.73998H4.77001C4.59001 1.73998 4.45001 1.59998 4.45001 1.41998C4.45001 1.23998 4.59001 1.09998 4.77001 1.09998H6.47001C6.65001 1.09998 6.79001 1.23998 6.79001 1.41998C6.79001 1.59998 6.65001 1.73998 6.47001 1.73998Z" fill="#272727"/>
<path d="M18.04 4.92003H0.599993C0.369993 4.92003 0.179993 4.78003 0.179993 4.60003C0.179993 4.42003 0.369993 4.28003 0.599993 4.28003H18.04C18.27 4.28003 18.46 4.42003 18.46 4.60003C18.46 4.78003 18.27 4.92003 18.04 4.92003Z" fill="#272727"/>
<path d="M3.92998 3.17995C3.82998 3.17995 3.72998 3.15995 3.62998 3.12995C3.23998 3.00995 2.97998 2.62995 2.97998 2.19995V0.969947C2.97998 0.539947 3.24998 0.159947 3.62998 0.0399466C3.92998 -0.0500534 4.24998 -5.3376e-05 4.48998 0.179947C4.72998 0.359947 4.87998 0.649947 4.87998 0.949947V2.21995C4.87998 2.51995 4.72998 2.80995 4.48998 2.98995C4.31998 3.10995 4.12998 3.16995 3.92998 3.16995V3.17995ZM3.92998 0.629947C3.92998 0.629947 3.85998 0.629947 3.81998 0.649947C3.69998 0.689947 3.60998 0.819947 3.60998 0.969947V2.19995C3.60998 2.34995 3.69998 2.47995 3.81998 2.51995C3.96998 2.56995 4.06998 2.51995 4.11998 2.47995C4.19998 2.41995 4.24998 2.32995 4.24998 2.21995V0.949947C4.24998 0.849947 4.19998 0.749947 4.11998 0.689947C4.07998 0.659947 4.01998 0.629947 3.92998 0.629947Z" fill="#272727"/>
<path d="M7.32 3.17995C7.22 3.17995 7.12 3.15995 7.02 3.12995C6.63 3.00995 6.37 2.62995 6.37 2.19995V0.969947C6.37 0.539947 6.64 0.159947 7.02 0.0399466C7.32 -0.0500534 7.64 -5.3376e-05 7.88 0.179947C8.12 0.359947 8.27 0.649947 8.27 0.949947V2.21995C8.27 2.51995 8.12 2.80995 7.88 2.98995C7.71 3.10995 7.52 3.16995 7.32 3.16995V3.17995ZM7.32 0.629947C7.32 0.629947 7.25 0.629947 7.21 0.649947C7.09 0.689947 7 0.819947 7 0.969947V2.19995C7 2.34995 7.09 2.47995 7.21 2.51995C7.36 2.56995 7.46 2.51995 7.51 2.47995C7.59 2.41995 7.64 2.32995 7.64 2.21995V0.949947C7.64 0.849947 7.59 0.749947 7.51 0.689947C7.47 0.659947 7.41 0.629947 7.32 0.629947Z" fill="#272727"/>
<path d="M10.71 3.17995C10.61 3.17995 10.51 3.15995 10.41 3.12995C10.02 3.00995 9.76001 2.62995 9.76001 2.19995V0.969947C9.76001 0.539947 10.03 0.159947 10.41 0.0399466C10.71 -0.0500534 11.03 -5.3376e-05 11.27 0.179947C11.51 0.359947 11.66 0.649947 11.66 0.949947V2.21995C11.66 2.51995 11.51 2.80995 11.27 2.98995C11.1 3.10995 10.91 3.16995 10.71 3.16995V3.17995ZM10.71 0.629947C10.71 0.629947 10.64 0.629947 10.6 0.649947C10.48 0.689947 10.39 0.819947 10.39 0.969947V2.19995C10.39 2.34995 10.48 2.47995 10.6 2.51995C10.75 2.56995 10.85 2.51995 10.9 2.47995C10.98 2.41995 11.03 2.32995 11.03 2.21995V0.949947C11.03 0.849947 10.98 0.749947 10.9 0.689947C10.86 0.659947 10.8 0.629947 10.71 0.629947Z" fill="#272727"/>
<path d="M14.11 3.17995C14.01 3.17995 13.91 3.15995 13.81 3.12995C13.42 3.00995 13.16 2.62995 13.16 2.19995V0.969947C13.16 0.539947 13.43 0.159947 13.81 0.0399466C14.11 -0.0500534 14.43 -5.3376e-05 14.67 0.179947C14.91 0.359947 15.06 0.649947 15.06 0.949947V2.21995C15.06 2.51995 14.91 2.80995 14.67 2.98995C14.5 3.10995 14.31 3.16995 14.11 3.16995V3.17995ZM14.11 0.629947C14.11 0.629947 14.04 0.629947 14 0.649947C13.88 0.689947 13.79 0.819947 13.79 0.969947V2.19995C13.79 2.34995 13.88 2.47995 14 2.51995C14.15 2.56995 14.25 2.51995 14.3 2.47995C14.38 2.41995 14.43 2.32995 14.43 2.21995V0.949947C14.43 0.849947 14.38 0.749947 14.3 0.689947C14.26 0.659947 14.2 0.629947 14.11 0.629947Z" fill="#272727"/>
<path d="M5.51 11.71H2.12V15.1H5.51V11.71Z" fill="#FF5C5C"/>
<path d="M5.51 6.82996H2.12V10.22H5.51V6.82996Z" fill="#FF5C5C"/>
<path d="M10.18 6.82996H6.78998V10.22H10.18V6.82996Z" fill="#FF5C5C"/>
<path d="M9.86003 15.11H7.10003C6.92003 15.11 6.78003 14.97 6.78003 14.79V12.03C6.78003 11.85 6.92003 11.71 7.10003 11.71H9.86003C10.04 11.71 10.18 11.85 10.18 12.03V14.79C10.18 14.97 10.04 15.11 9.86003 15.11ZM7.42003 14.47H9.54003V12.35H7.42003V14.47Z" fill="#272727"/>
<path d="M11.83 19.56H0.950005C0.770005 19.56 0.630005 19.42 0.630005 19.24V17.33C0.630005 17.15 0.770005 17.01 0.950005 17.01C1.13 17.01 1.27 17.15 1.27 17.33V18.92H11.83C12.01 18.92 12.15 19.06 12.15 19.24C12.15 19.42 12.01 19.56 11.83 19.56Z" fill="#272727"/>
<path d="M17.41 20.52C14.08 20.52 11.38 17.81 11.38 14.49C11.38 11.17 14.09 8.45996 17.41 8.45996C20.73 8.45996 23.44 11.17 23.44 14.49C23.44 17.81 20.73 20.52 17.41 20.52ZM17.41 9.00996C14.39 9.00996 11.93 11.47 11.93 14.49C11.93 17.51 14.39 19.97 17.41 19.97C20.43 19.97 22.89 17.51 22.89 14.49C22.89 11.47 20.43 9.00996 17.41 9.00996Z" fill="#EEEEEE"/>
<path d="M17.41 10.68C17.26 10.68 17.13 10.56 17.13 10.4V10.03C17.13 9.88 17.25 9.75 17.41 9.75C17.57 9.75 17.69 9.87 17.69 10.03V10.4C17.69 10.55 17.57 10.68 17.41 10.68Z" fill="#272727"/>
<path d="M17.41 19.22C17.26 19.22 17.13 19.1 17.13 18.94V18.57C17.13 18.42 17.25 18.29 17.41 18.29C17.57 18.29 17.69 18.41 17.69 18.57V18.94C17.69 19.09 17.57 19.22 17.41 19.22Z" fill="#272727"/>
<path d="M13.33 14.76H12.96C12.81 14.76 12.68 14.64 12.68 14.48C12.68 14.32 12.8 14.2 12.96 14.2H13.33C13.48 14.2 13.61 14.32 13.61 14.48C13.61 14.64 13.49 14.76 13.33 14.76Z" fill="#272727"/>
<path d="M21.87 14.76H21.5C21.35 14.76 21.22 14.64 21.22 14.48C21.22 14.32 21.34 14.2 21.5 14.2H21.87C22.02 14.2 22.15 14.32 22.15 14.48C22.15 14.64 22.03 14.76 21.87 14.76Z" fill="#272727"/>
<path d="M19.45 11.22C19.45 11.22 19.35 11.21 19.31 11.18C19.18 11.1 19.13 10.93 19.21 10.8L19.4 10.48C19.48 10.35 19.65 10.3 19.78 10.38C19.91 10.46 19.96 10.63 19.88 10.76L19.69 11.08C19.64 11.17 19.54 11.22 19.45 11.22Z" fill="#FF5C5C"/>
<path d="M15.18 18.62C15.18 18.62 15.08 18.61 15.04 18.58C14.91 18.5 14.86 18.33 14.94 18.2L15.13 17.88C15.21 17.75 15.38 17.7 15.51 17.78C15.64 17.86 15.69 18.03 15.61 18.16L15.42 18.48C15.37 18.57 15.27 18.62 15.18 18.62Z" fill="#FF5C5C"/>
<path d="M13.87 12.72C13.87 12.72 13.77 12.71 13.73 12.68L13.41 12.49C13.28 12.41 13.23 12.24 13.31 12.11C13.39 11.98 13.56 11.93 13.69 12.01L14.01 12.2C14.14 12.28 14.19 12.45 14.11 12.58C14.06 12.67 13.96 12.72 13.87 12.72Z" fill="#FF5C5C"/>
<path d="M21.27 16.99C21.27 16.99 21.17 16.98 21.13 16.95L20.81 16.76C20.68 16.68 20.63 16.51 20.71 16.38C20.79 16.25 20.96 16.2 21.09 16.28L21.41 16.47C21.54 16.55 21.59 16.72 21.51 16.85C21.46 16.94 21.36 16.99 21.27 16.99Z" fill="#FF5C5C"/>
<path d="M13.55 16.99C13.45 16.99 13.36 16.94 13.31 16.85C13.23 16.72 13.28 16.55 13.41 16.47L13.73 16.28C13.86 16.2 14.03 16.25 14.11 16.38C14.19 16.51 14.14 16.68 14.01 16.76L13.69 16.95C13.69 16.95 13.6 16.99 13.55 16.99Z" fill="#FF5C5C"/>
<path d="M15.37 11.22C15.27 11.22 15.18 11.17 15.13 11.08L14.94 10.76C14.86 10.63 14.91 10.46 15.04 10.38C15.17 10.3 15.34 10.35 15.42 10.48L15.61 10.8C15.69 10.93 15.64 11.1 15.51 11.18C15.47 11.21 15.42 11.22 15.37 11.22Z" fill="#FF5C5C"/>
<path d="M19.64 18.62C19.54 18.62 19.45 18.57 19.4 18.48L19.21 18.16C19.13 18.03 19.18 17.86 19.31 17.78C19.44 17.7 19.61 17.75 19.69 17.88L19.88 18.2C19.96 18.33 19.91 18.5 19.78 18.58C19.74 18.61 19.69 18.62 19.64 18.62Z" fill="#FF5C5C"/>
<path d="M17.41 14.76C17.31 14.76 17.22 14.71 17.17 14.62C17.09 14.49 17.14 14.32 17.27 14.24L20.8 12.2C20.93 12.12 21.1 12.17 21.18 12.3C21.26 12.43 21.21 12.6 21.08 12.68L17.55 14.72C17.55 14.72 17.46 14.76 17.41 14.76Z" fill="#272727"/>
<path d="M17.41 14.94C17.6641 14.94 17.87 14.7341 17.87 14.48C17.87 14.226 17.6641 14.02 17.41 14.02C17.156 14.02 16.95 14.226 16.95 14.48C16.95 14.7341 17.156 14.94 17.41 14.94Z" fill="#272727"/>
<path d="M17.41 21.07C13.78 21.07 10.82 18.11 10.82 14.48C10.82 10.85 13.78 7.89001 17.41 7.89001C21.04 7.89001 24 10.85 24 14.48C24 18.11 21.04 21.07 17.41 21.07ZM17.41 8.45001C14.08 8.45001 11.38 11.16 11.38 14.48C11.38 17.8 14.09 20.51 17.41 20.51C20.73 20.51 23.44 17.8 23.44 14.48C23.44 11.16 20.73 8.45001 17.41 8.45001Z" fill="#272727"/>
<path d="M17.41 14.76H15C14.85 14.76 14.72 14.64 14.72 14.48C14.72 14.32 14.84 14.2 15 14.2H17.41C17.56 14.2 17.69 14.32 17.69 14.48C17.69 14.64 17.57 14.76 17.41 14.76Z" fill="#272727"/>
</g>
<defs>
<clipPath id="clip0_26_1331">
<rect width="24" height="21.07" fill="white"/>
</clipPath>
</defs>
</svg>
