<svg width="16" height="17" viewBox="0 0 16 17" fill="none" xmlns="http://www.w3.org/2000/svg">
<path fill-rule="evenodd" clip-rule="evenodd" d="M13.6631 4.13781C13.7851 4.25978 13.8536 4.42518 13.8536 4.59764C13.8536 4.7701 13.7851 4.9355 13.6631 5.05747L6.50884 12.2118C6.38687 12.3337 6.22147 12.4022 6.04901 12.4022C5.87655 12.4022 5.71115 12.3337 5.58919 12.2118L2.33723 8.95982C2.27511 8.89982 2.22556 8.82805 2.19148 8.7487C2.15739 8.66935 2.13945 8.58401 2.1387 8.49765C2.13795 8.41129 2.1544 8.32565 2.1871 8.24572C2.21981 8.16579 2.2681 8.09317 2.32917 8.0321C2.39023 7.97103 2.46285 7.92274 2.54278 7.89004C2.62271 7.85734 2.70836 7.84088 2.79472 7.84163C2.88107 7.84238 2.96642 7.86032 3.04577 7.89441C3.12512 7.9285 3.19689 7.97804 3.25688 8.04016L6.04901 10.8323L12.7435 4.13781C12.8655 4.01588 13.0309 3.94739 13.2033 3.94739C13.3758 3.94739 13.5412 4.01588 13.6631 4.13781Z" fill="#FF2C2C"/>
</svg>
