<svg width="16" height="17" viewBox="0 0 16 17" fill="none" xmlns="http://www.w3.org/2000/svg">
<path d="M3.71983 4.70436C3.86045 4.56391 4.05108 4.48502 4.24983 4.48502C4.44858 4.48502 4.6392 4.56391 4.77983 4.70436L7.99983 7.92436L11.2198 4.70436C11.2885 4.63068 11.3713 4.57158 11.4633 4.53058C11.5553 4.48959 11.6546 4.46755 11.7553 4.46577C11.856 4.464 11.956 4.48252 12.0494 4.52024C12.1428 4.55796 12.2276 4.61411 12.2989 4.68533C12.3701 4.75655 12.4262 4.84138 12.464 4.93477C12.5017 5.02816 12.5202 5.12818 12.5184 5.22889C12.5166 5.32959 12.4946 5.4289 12.4536 5.5209C12.4126 5.6129 12.3535 5.6957 12.2798 5.76436L9.05983 8.98436L12.2798 12.2044C12.3535 12.273 12.4126 12.3558 12.4536 12.4478C12.4946 12.5398 12.5166 12.6391 12.5184 12.7398C12.5202 12.8405 12.5017 12.9406 12.464 13.034C12.4262 13.1274 12.3701 13.2122 12.2989 13.2834C12.2276 13.3546 12.1428 13.4108 12.0494 13.4485C11.956 13.4862 11.856 13.5047 11.7553 13.503C11.6546 13.5012 11.5553 13.4791 11.4633 13.4381C11.3713 13.3972 11.2885 13.3381 11.2198 13.2644L7.99983 10.0444L4.77983 13.2644C4.63765 13.3968 4.44961 13.469 4.25531 13.4655C4.061 13.4621 3.87562 13.3834 3.73821 13.246C3.60079 13.1086 3.52208 12.9232 3.51865 12.7289C3.51523 12.5346 3.58735 12.3465 3.71983 12.2044L6.93983 8.98436L3.71983 5.76436C3.57938 5.62374 3.50049 5.43312 3.50049 5.23436C3.50049 5.03561 3.57938 4.84499 3.71983 4.70436Z" fill="#797979"/>
</svg>
