<svg width="90" height="21" viewBox="0 0 90 21" fill="none" xmlns="http://www.w3.org/2000/svg">
<g clip-path="url(#clip0_26_750)">
<path d="M12.543 13.8469C12.6551 13.8469 12.7633 13.8389 12.8714 13.835H10.8364V13.8469H12.5389H12.543Z" fill="#FF2C2C"/>
<path d="M18.556 4.4817C17.9271 3.76007 17.1018 3.18197 16.0683 2.7474C15.0347 2.31283 13.7888 2.09753 12.3226 2.09753H7.96404V4.84451H10.8364L13.1759 4.84052C13.5044 4.84052 13.909 4.90431 14.3857 5.02791C14.8625 5.1515 15.3272 5.37875 15.7839 5.70967C16.2405 6.04058 16.6211 6.50306 16.9336 7.10109C17.2421 7.69913 17.3983 8.47259 17.3983 9.41748C17.3983 10.1391 17.2821 10.781 17.0498 11.3392C16.8174 11.8973 16.4889 12.3598 16.0603 12.7306C15.6316 13.0974 15.1188 13.3765 14.5259 13.5678C14.0292 13.7273 13.4844 13.815 12.8955 13.8429H12.8755C12.7673 13.8469 12.6591 13.8549 12.547 13.8549H10.8444V13.8429H7.97205V16.6138H13.0437C14.0332 16.6138 14.9706 16.4544 15.856 16.1314C16.7413 15.8085 17.5185 15.342 18.1915 14.732C18.8645 14.122 19.3973 13.3844 19.7859 12.5233C20.1745 11.6621 20.3708 10.6933 20.3708 9.61683C20.3708 8.70781 20.2266 7.81076 19.9341 6.91371C19.6417 6.02064 19.185 5.2113 18.556 4.48967V4.4817Z" fill="#FF2C2C"/>
<path d="M23.852 3.53284C23.4835 3.53284 23.135 3.6644 22.8105 3.92754C22.486 4.19068 22.3257 4.52557 22.3257 4.93224C22.3257 5.3389 22.486 5.66982 22.8105 5.92896C23.135 6.18412 23.4795 6.31171 23.852 6.31171C24.2246 6.31171 24.5611 6.18412 24.8736 5.92896C25.1821 5.6738 25.3383 5.3389 25.3383 4.93224C25.3383 4.52557 25.1821 4.19068 24.8736 3.92754C24.5651 3.6644 24.2246 3.53284 23.852 3.53284Z" fill="#FF2C2C"/>
<path d="M25.162 7.99023H22.3898V16.6059H25.162V7.99023Z" fill="#FF2C2C"/>
<path d="M34.5322 14.6722V15.3341C34.5642 15.2782 34.6043 15.2224 34.6323 15.1666L34.5322 14.6722Z" fill="#FF2C2C"/>
<path d="M34.5362 8.66797C34.5362 8.66797 34.5482 8.67594 34.5522 8.67993L34.4521 8.93509L34.5362 8.66398C34.2598 8.353 33.8512 8.09385 33.3103 7.87856C32.7615 7.66327 32.1125 7.55164 31.3594 7.55164C30.6062 7.55164 29.8932 7.75497 29.2202 8.16163C28.5471 8.5683 27.9983 9.12646 27.5777 9.82816C27.157 10.5299 26.9447 11.3352 26.9447 12.2442C26.9447 13.1532 27.141 13.9107 27.5376 14.6005C27.9342 15.2902 28.467 15.8364 29.132 16.2351C29.797 16.6378 30.5221 16.8371 31.2993 16.8371C32.1967 16.8371 32.9258 16.6697 33.4786 16.3348C33.9593 16.0437 34.3038 15.7048 34.5282 15.3301V14.6683L34.6283 15.1626C34.6003 15.2224 34.5642 15.2743 34.5282 15.3301V16.562C34.5282 16.9966 34.412 17.3554 34.1796 17.6465C33.9473 17.9335 33.6468 18.1568 33.2703 18.3083C32.8937 18.4598 32.4891 18.5355 32.0524 18.5355C31.3914 18.5355 30.8586 18.408 30.458 18.1528C30.0534 17.8976 29.7009 17.6305 29.3964 17.3554L27.774 19.2492C28.0624 19.4844 28.3949 19.7356 28.7635 19.9987C29.132 20.2619 29.5847 20.4851 30.1215 20.6685C30.6583 20.8519 31.3153 20.9436 32.0925 20.9436C33.0419 20.9436 33.9112 20.7562 34.6964 20.3815C35.4816 20.0067 36.1146 19.4964 36.5873 18.8425C37.064 18.1927 37.3004 17.4471 37.3004 16.6059V7.99019H34.7445L34.5322 8.66797H34.5362ZM34.5322 13.2968C34.3719 13.5878 34.1796 13.827 33.9473 14.0144C33.7149 14.2058 33.4505 14.3493 33.1541 14.449C32.8577 14.5486 32.5171 14.5965 32.1326 14.5965C31.6839 14.5965 31.2793 14.4928 30.9147 14.2815C30.5502 14.0702 30.2657 13.7832 30.0534 13.4124C29.8411 13.0416 29.7369 12.6309 29.7369 12.1685C29.7369 11.706 29.8411 11.2993 30.0534 10.9445C30.2657 10.5897 30.5502 10.3106 30.9147 10.1072C31.2793 9.90391 31.6839 9.80025 32.1326 9.80025C32.5171 9.80025 32.8617 9.85606 33.1741 9.9677C33.4826 10.0793 33.759 10.2388 33.9954 10.4421C34.2317 10.6455 34.412 10.8927 34.5282 11.1797V13.2888L34.5322 13.2968Z" fill="#FF2C2C"/>
<path d="M34.5522 8.67993C34.5522 8.67993 34.5442 8.67196 34.5362 8.66797L34.4521 8.93908L34.5522 8.68392V8.67993Z" fill="#FF2C2C"/>
<path d="M41.2263 3.53284C40.8577 3.53284 40.5092 3.6644 40.1847 3.92754C39.8602 4.19068 39.7 4.52557 39.7 4.93224C39.7 5.3389 39.8602 5.66982 40.1847 5.92896C40.5092 6.18412 40.8537 6.31171 41.2263 6.31171C41.5989 6.31171 41.9354 6.18412 42.2478 5.92896C42.5563 5.6738 42.7125 5.3389 42.7125 4.93224C42.7125 4.52557 42.5563 4.19068 42.2478 3.92754C41.9394 3.6644 41.5989 3.53284 41.2263 3.53284Z" fill="#FF2C2C"/>
<path d="M42.5323 7.99023H39.7601V16.6059H42.5323V7.99023Z" fill="#FF2C2C"/>
<path d="M48.5774 4.20667H45.8052V7.95036H44.4552V10.0993H45.8052V16.6059H48.5774V10.0993H50.6766V7.95036H48.5774V4.20667Z" fill="#FF2C2C"/>
<path d="M59.1574 15.3261L58.9411 14.7361V15.5335C59.0613 15.3979 59.1334 15.3301 59.1574 15.3301V15.3261Z" fill="#FF2C2C"/>
<path d="M58.9571 8.87134C58.9571 8.87134 58.9851 8.89925 58.9972 8.9152L58.877 9.2501L58.9531 8.87134C58.6687 8.5484 58.3161 8.24939 57.8955 7.97828C57.4548 7.69521 56.8018 7.55566 55.9445 7.55566C55.2194 7.55566 54.5304 7.75102 53.8854 8.13775C53.2364 8.52448 52.7157 9.07467 52.3191 9.78434C51.9225 10.494 51.7262 11.3352 51.7262 12.308C51.7262 13.3446 51.9185 14.2018 52.299 14.8716C52.6836 15.5414 53.2004 16.0398 53.8534 16.3587C54.5064 16.6777 55.2355 16.8412 56.0407 16.8412C56.5575 16.8412 57.0021 16.7654 57.3787 16.6139C57.7553 16.4624 58.0718 16.287 58.3281 16.0797C58.5845 15.8763 58.7808 15.6969 58.913 15.5494C58.921 15.5414 58.925 15.5374 58.9331 15.5295V14.7321L59.1494 15.3221C59.1253 15.3221 59.0492 15.3939 58.9331 15.5255V16.6019H61.7052V7.98625H59.1294L58.9491 8.86735L58.9571 8.87134ZM58.9371 13.2928C58.7928 13.5839 58.6206 13.8231 58.4203 14.0105C58.224 14.2018 57.9916 14.3454 57.7272 14.445C57.4628 14.5447 57.1664 14.5925 56.8339 14.5925C56.4253 14.5925 56.0447 14.4889 55.6962 14.2776C55.3476 14.0663 55.0672 13.7792 54.8549 13.4084C54.6426 13.0377 54.5384 12.627 54.5384 12.1645C54.5384 11.702 54.6386 11.2954 54.8349 10.9405C55.0312 10.5857 55.2996 10.3066 55.6361 10.1033C55.9726 9.89996 56.3371 9.7963 56.7337 9.7963C57.0903 9.7963 57.4148 9.85212 57.7032 9.96375C57.9916 10.0754 58.244 10.2349 58.4563 10.4382C58.6687 10.6415 58.8249 10.8887 58.9331 11.1758V13.2848L58.9371 13.2928Z" fill="#FF2C2C"/>
<path d="M58.9971 8.91519C58.9971 8.91519 58.9691 8.88729 58.9571 8.87134L58.881 9.25009L59.0011 8.91519H58.9971Z" fill="#FF2C2C"/>
<path d="M66.9412 1.04907H64.169V16.606H66.9412V1.04907Z" fill="#FF2C2C"/>
<path d="M76.2712 8.17758C75.5462 7.77889 74.6849 7.57556 73.6954 7.57556C72.7059 7.57556 71.8526 7.77491 71.0994 8.17758C70.3463 8.58026 69.7614 9.12647 69.3448 9.82417C68.9282 10.5219 68.7198 11.3113 68.7198 12.1884C68.7198 13.1612 68.9322 13.9945 69.3528 14.6922C69.7734 15.3899 70.3583 15.9201 71.1074 16.2909C71.8566 16.6617 72.7019 16.8411 73.6513 16.8411C74.6688 16.8411 75.5381 16.6378 76.2672 16.2311C76.9963 15.8245 77.5532 15.2703 77.9418 14.5646C78.3304 13.8629 78.5267 13.0695 78.5267 12.1884C78.5267 11.3073 78.3304 10.5179 77.9418 9.82417C77.5532 9.13045 76.9923 8.58026 76.2672 8.17758H76.2712ZM75.478 13.4204C75.3058 13.7832 75.0614 14.0662 74.7449 14.2775C74.4285 14.4888 74.0519 14.5925 73.6152 14.5925C73.2186 14.5925 72.8621 14.4888 72.5456 14.2775C72.2291 14.0662 71.9768 13.7832 71.7925 13.4204C71.6082 13.0575 71.5161 12.6549 71.5161 12.2083C71.5161 11.7618 71.6082 11.3392 71.7925 10.9844C71.9768 10.6295 72.2291 10.3465 72.5456 10.1352C72.8621 9.92385 73.2186 9.82019 73.6152 9.82019C74.0519 9.82019 74.4285 9.92385 74.7449 10.1352C75.0614 10.3465 75.3058 10.6295 75.478 10.9844C75.6503 11.3392 75.7344 11.7459 75.7344 12.2083C75.7344 12.6708 75.6503 13.0575 75.478 13.4204Z" fill="#FF2C2C"/>
<path d="M87.2278 14.6722V15.3341C87.2599 15.2782 87.2999 15.2224 87.328 15.1666L87.2278 14.6722Z" fill="#FF2C2C"/>
<path d="M87.4441 7.99019L87.2318 8.66797C87.2318 8.66797 87.2398 8.67594 87.2478 8.67993L87.1477 8.93509L87.2318 8.66398C86.9554 8.353 86.5468 8.09385 86.006 7.87856C85.4571 7.66327 84.8082 7.55164 84.055 7.55164C83.3019 7.55164 82.5888 7.75497 81.9158 8.16163C81.2428 8.5683 80.6939 9.12646 80.2733 9.82816C79.8487 10.5299 79.6403 11.3352 79.6403 12.2442C79.6403 13.1532 79.8406 13.9107 80.2332 14.6005C80.6298 15.2902 81.1626 15.8364 81.8276 16.2351C82.4927 16.6378 83.2177 16.8371 83.9989 16.8371C84.8963 16.8371 85.6214 16.6697 86.1782 16.3348C86.663 16.0437 87.0035 15.7048 87.2278 15.3301V14.6683L87.328 15.1626C87.2999 15.2224 87.2639 15.2743 87.2278 15.3301V16.562C87.2278 16.9966 87.1116 17.3554 86.8793 17.6465C86.6469 17.9335 86.3465 18.1568 85.9699 18.3083C85.5933 18.4598 85.1887 18.5355 84.7521 18.5355C84.0911 18.5355 83.5583 18.408 83.1577 18.1528C82.753 17.8976 82.4005 17.6305 82.096 17.3554L80.4736 19.2492C80.762 19.4844 81.0945 19.7356 81.4631 19.9987C81.8317 20.2619 82.2843 20.4851 82.8212 20.6685C83.354 20.8519 84.0109 20.9436 84.7921 20.9436C85.7416 20.9436 86.6109 20.7562 87.3961 20.3815C88.1813 20.0067 88.8142 19.4964 89.2869 18.8425C89.7596 18.1887 90 17.4471 90 16.6059V7.99019H87.4441ZM87.2278 13.2928C87.0676 13.5838 86.8753 13.823 86.6429 14.0104C86.4106 14.2018 86.1462 14.3453 85.8497 14.445C85.5533 14.5447 85.2128 14.5925 84.8282 14.5925C84.3795 14.5925 83.9749 14.4888 83.6103 14.2775C83.2458 14.0662 82.9614 13.7792 82.749 13.4084C82.5367 13.0376 82.4326 12.627 82.4326 12.1645C82.4326 11.702 82.5367 11.2953 82.749 10.9405C82.9614 10.5857 83.2458 10.3066 83.6103 10.1033C83.9749 9.89992 84.3795 9.79626 84.8282 9.79626C85.2128 9.79626 85.5573 9.85208 85.8698 9.96371C86.1782 10.0753 86.4546 10.2348 86.691 10.4382C86.9274 10.6415 87.1076 10.8887 87.2278 11.1757V13.2848V13.2928Z" fill="#FF2C2C"/>
<path d="M87.2478 8.67993C87.2478 8.67993 87.2398 8.67196 87.2318 8.66797L87.1477 8.93908L87.2478 8.68392V8.67993Z" fill="#FF2C2C"/>
<path d="M7.97605 4.79272H2.99653V9.74844H7.97605V4.79272Z" fill="#FF2C2C"/>
<path d="M10.9886 9.74841H7.97605V12.7466H10.9886V9.74841Z" fill="#FF2C2C"/>
<path d="M3.01255 1.79456H0V4.7927H3.01255V1.79456Z" fill="#FF2C2C"/>
<path d="M4.77522 0.0562744H2.99653V1.82646H4.77522V0.0562744Z" fill="#FF2C2C"/>
</g>
<defs>
<clipPath id="clip0_26_750">
<rect width="90" height="20.8874" fill="white" transform="translate(0 0.0562744)"/>
</clipPath>
</defs>
</svg>
