<svg width="158" height="77" viewBox="0 0 158 77" fill="none" xmlns="http://www.w3.org/2000/svg">
<g filter="url(#filter0_d_123_2640)">
<rect x="6.97168" y="4" width="145" height="65" rx="10" fill="white" shape-rendering="crispEdges"/>
<path d="M18.4669 17.436C18.2002 17.436 17.9709 17.34 17.7789 17.148C17.5869 16.9507 17.4909 16.7 17.4909 16.396C17.4909 16.1933 17.5336 16.0147 17.6189 15.86C17.7096 15.7053 17.8296 15.5827 17.9789 15.492C18.1282 15.4013 18.2909 15.356 18.4669 15.356C18.6482 15.356 18.8136 15.4013 18.9629 15.492C19.1122 15.5827 19.2296 15.7053 19.3149 15.86C19.4056 16.0147 19.4509 16.1933 19.4509 16.396C19.4509 16.7 19.3549 16.9507 19.1629 17.148C18.9709 17.34 18.7389 17.436 18.4669 17.436ZM26.2237 18.596C25.861 18.596 25.5517 18.5213 25.2957 18.372C25.0397 18.2227 24.829 18.0013 24.6637 17.708L25.3037 17.236C25.4103 17.428 25.533 17.5693 25.6717 17.66C25.8103 17.7453 25.9597 17.788 26.1197 17.788C26.365 17.788 26.549 17.7133 26.6717 17.564C26.7943 17.4147 26.8557 17.1533 26.8557 16.78V13.268H27.7837V16.86C27.7837 17.1747 27.7303 17.4653 27.6237 17.732C27.517 17.9933 27.349 18.204 27.1197 18.364C26.8903 18.5187 26.5917 18.596 26.2237 18.596ZM30.6168 18.596C30.2915 18.596 29.9875 18.516 29.7048 18.356C29.4221 18.1907 29.1928 17.956 29.0168 17.652C28.8408 17.3427 28.7528 16.972 28.7528 16.54C28.7528 16.1027 28.8408 15.732 29.0168 15.428C29.1928 15.1187 29.4221 14.884 29.7048 14.724C29.9875 14.5587 30.2915 14.476 30.6168 14.476C30.9475 14.476 31.2541 14.5587 31.5368 14.724C31.8195 14.884 32.0488 15.1187 32.2248 15.428C32.4008 15.732 32.4888 16.1027 32.4888 16.54C32.4888 16.972 32.4008 17.3427 32.2248 17.652C32.0488 17.956 31.8195 18.1907 31.5368 18.356C31.2541 18.516 30.9475 18.596 30.6168 18.596ZM30.6168 17.844C30.9048 17.844 31.1315 17.724 31.2968 17.484C31.4621 17.244 31.5448 16.9293 31.5448 16.54C31.5448 16.1453 31.4621 15.828 31.2968 15.588C31.1315 15.348 30.9048 15.228 30.6168 15.228C30.3288 15.228 30.1021 15.348 29.9368 15.588C29.7768 15.828 29.6968 16.1453 29.6968 16.54C29.6968 16.9293 29.7768 17.244 29.9368 17.484C30.1021 17.724 30.3288 17.844 30.6168 17.844ZM35.3034 18.596C34.9301 18.596 34.5728 18.4253 34.2314 18.084H34.2074L34.1274 18.5H33.3994V12.852H34.3194V14.308L34.2954 14.964C34.4608 14.82 34.6421 14.7027 34.8394 14.612C35.0368 14.5213 35.2341 14.476 35.4314 14.476C35.9221 14.476 36.3034 14.6573 36.5754 15.02C36.8474 15.3827 36.9834 15.8653 36.9834 16.468C36.9834 16.916 36.9034 17.3 36.7434 17.62C36.5834 17.9347 36.3754 18.1773 36.1194 18.348C35.8688 18.5133 35.5968 18.596 35.3034 18.596ZM35.1114 17.836C35.3728 17.836 35.5914 17.7213 35.7674 17.492C35.9434 17.2627 36.0314 16.9267 36.0314 16.484C36.0314 16.0893 35.9648 15.7827 35.8314 15.564C35.6981 15.3453 35.4821 15.236 35.1834 15.236C34.9061 15.236 34.6181 15.3827 34.3194 15.676V17.508C34.4581 17.6253 34.5941 17.7107 34.7274 17.764C34.8661 17.812 34.9941 17.836 35.1114 17.836Z" fill="#272727"/>
<path d="M18.4669 31.436C18.2002 31.436 17.9709 31.34 17.7789 31.148C17.5869 30.9507 17.4909 30.7 17.4909 30.396C17.4909 30.1933 17.5336 30.0147 17.6189 29.86C17.7096 29.7053 17.8296 29.5827 17.9789 29.492C18.1282 29.4013 18.2909 29.356 18.4669 29.356C18.6482 29.356 18.8136 29.4013 18.9629 29.492C19.1122 29.5827 19.2296 29.7053 19.3149 29.86C19.4056 30.0147 19.4509 30.1933 19.4509 30.396C19.4509 30.7 19.3549 30.9507 19.1629 31.148C18.9709 31.34 18.7389 31.436 18.4669 31.436ZM26.6637 32.596C26.3117 32.596 25.9703 32.5293 25.6397 32.396C25.3143 32.2627 25.0263 32.0733 24.7757 31.828L25.3197 31.196C25.5063 31.372 25.7197 31.516 25.9597 31.628C26.1997 31.7347 26.4397 31.788 26.6797 31.788C26.9783 31.788 27.205 31.7267 27.3597 31.604C27.5143 31.4813 27.5917 31.3187 27.5917 31.116C27.5917 30.8973 27.5143 30.74 27.3597 30.644C27.2103 30.548 27.0183 30.4493 26.7837 30.348L26.0637 30.036C25.893 29.9613 25.725 29.8653 25.5597 29.748C25.3997 29.6307 25.2663 29.4813 25.1597 29.3C25.0583 29.1187 25.0077 28.9 25.0077 28.644C25.0077 28.3667 25.0823 28.1187 25.2317 27.9C25.3863 27.676 25.5943 27.5 25.8557 27.372C26.1223 27.2387 26.4263 27.172 26.7677 27.172C27.0717 27.172 27.365 27.2333 27.6477 27.356C27.9303 27.4733 28.173 27.6333 28.3757 27.836L27.9037 28.428C27.7383 28.2893 27.5623 28.18 27.3757 28.1C27.1943 28.02 26.9917 27.98 26.7677 27.98C26.5223 27.98 26.3223 28.036 26.1677 28.148C26.0183 28.2547 25.9437 28.404 25.9437 28.596C25.9437 28.7293 25.981 28.8413 26.0557 28.932C26.1357 29.0173 26.2397 29.092 26.3677 29.156C26.4957 29.2147 26.6317 29.2733 26.7757 29.332L27.4877 29.628C27.797 29.7613 28.0503 29.9373 28.2477 30.156C28.445 30.3693 28.5437 30.6653 28.5437 31.044C28.5437 31.3267 28.469 31.5853 28.3197 31.82C28.1703 32.0547 27.9543 32.244 27.6717 32.388C27.3943 32.5267 27.0583 32.596 26.6637 32.596ZM30.3671 32.596C30.0257 32.596 29.7457 32.4893 29.5271 32.276C29.3137 32.0627 29.2071 31.7853 29.2071 31.444C29.2071 31.0227 29.3911 30.6973 29.7591 30.468C30.1271 30.2333 30.7137 30.0733 31.5191 29.988C31.5137 29.78 31.4577 29.6013 31.3511 29.452C31.2497 29.2973 31.0657 29.22 30.7991 29.22C30.6071 29.22 30.4177 29.2573 30.2311 29.332C30.0497 29.4067 29.8711 29.4973 29.6951 29.604L29.3591 28.988C29.5777 28.8493 29.8231 28.7293 30.0951 28.628C30.3724 28.5267 30.6657 28.476 30.9751 28.476C31.4657 28.476 31.8311 28.6227 32.0711 28.916C32.3164 29.204 32.4391 29.6227 32.4391 30.172V32.5H31.6791L31.6151 32.068H31.5831C31.4071 32.2173 31.2177 32.3427 31.0151 32.444C30.8177 32.5453 30.6017 32.596 30.3671 32.596ZM30.6631 31.876C30.8231 31.876 30.9671 31.8387 31.0951 31.764C31.2284 31.684 31.3697 31.5773 31.5191 31.444V30.564C30.9857 30.6333 30.6151 30.7373 30.4071 30.876C30.1991 31.0093 30.0951 31.1747 30.0951 31.372C30.0951 31.548 30.1484 31.676 30.2551 31.756C30.3617 31.836 30.4977 31.876 30.6631 31.876ZM34.4361 32.596C34.1107 32.596 33.8787 32.4973 33.7401 32.3C33.6067 32.1027 33.5401 31.8333 33.5401 31.492V26.852H34.4601V31.54C34.4601 31.652 34.4814 31.732 34.5241 31.78C34.5667 31.8227 34.6121 31.844 34.6601 31.844C34.6814 31.844 34.7001 31.844 34.7161 31.844C34.7374 31.8387 34.7667 31.8333 34.8041 31.828L34.9241 32.516C34.8707 32.5373 34.8014 32.556 34.7161 32.572C34.6361 32.588 34.5427 32.596 34.4361 32.596ZM36.6639 32.596C36.3226 32.596 36.0426 32.4893 35.8239 32.276C35.6106 32.0627 35.5039 31.7853 35.5039 31.444C35.5039 31.0227 35.6879 30.6973 36.0559 30.468C36.4239 30.2333 37.0106 30.0733 37.8159 29.988C37.8106 29.78 37.7546 29.6013 37.6479 29.452C37.5466 29.2973 37.3626 29.22 37.0959 29.22C36.9039 29.22 36.7146 29.2573 36.5279 29.332C36.3466 29.4067 36.1679 29.4973 35.9919 29.604L35.6559 28.988C35.8746 28.8493 36.1199 28.7293 36.3919 28.628C36.6693 28.5267 36.9626 28.476 37.2719 28.476C37.7626 28.476 38.1279 28.6227 38.3679 28.916C38.6133 29.204 38.7359 29.6227 38.7359 30.172V32.5H37.9759L37.9119 32.068H37.8799C37.7039 32.2173 37.5146 32.3427 37.3119 32.444C37.1146 32.5453 36.8986 32.596 36.6639 32.596ZM36.9599 31.876C37.1199 31.876 37.2639 31.8387 37.3919 31.764C37.5253 31.684 37.6666 31.5773 37.8159 31.444V30.564C37.2826 30.6333 36.9119 30.7373 36.7039 30.876C36.4959 31.0093 36.3919 31.1747 36.3919 31.372C36.3919 31.548 36.4453 31.676 36.5519 31.756C36.6586 31.836 36.7946 31.876 36.9599 31.876ZM39.8369 32.5V28.572H40.5969L40.6609 29.268H40.6929C40.8316 29.012 40.9996 28.8173 41.1969 28.684C41.3943 28.5453 41.5969 28.476 41.8049 28.476C41.9916 28.476 42.1409 28.5027 42.2529 28.556L42.0929 29.356C42.0236 29.3347 41.9596 29.3187 41.9009 29.308C41.8423 29.2973 41.7703 29.292 41.6849 29.292C41.5303 29.292 41.3676 29.3533 41.1969 29.476C41.0263 29.5933 40.8796 29.8013 40.7569 30.1V32.5H39.8369ZM43.2103 34.116C43.1036 34.116 43.0103 34.108 42.9303 34.092C42.8503 34.076 42.773 34.0573 42.6983 34.036L42.8663 33.316C42.9036 33.3267 42.9463 33.3373 42.9943 33.348C43.0476 33.364 43.0983 33.372 43.1463 33.372C43.3543 33.372 43.5196 33.308 43.6423 33.18C43.7703 33.0573 43.8663 32.8973 43.9303 32.7L44.0023 32.452L42.4583 28.572H43.3943L44.0743 30.5C44.133 30.6707 44.189 30.852 44.2423 31.044C44.301 31.2307 44.3596 31.4173 44.4183 31.604H44.4503C44.4983 31.4227 44.5463 31.2387 44.5943 31.052C44.6476 30.86 44.6983 30.676 44.7463 30.5L45.3383 28.572H46.2263L44.8023 32.676C44.637 33.1187 44.437 33.468 44.2023 33.724C43.9676 33.9853 43.637 34.116 43.2103 34.116Z" fill="#272727"/>
<path d="M18.4669 45.436C18.2002 45.436 17.9709 45.34 17.7789 45.148C17.5869 44.9507 17.4909 44.7 17.4909 44.396C17.4909 44.1933 17.5336 44.0147 17.6189 43.86C17.7096 43.7053 17.8296 43.5827 17.9789 43.492C18.1282 43.4013 18.2909 43.356 18.4669 43.356C18.6482 43.356 18.8136 43.4013 18.9629 43.492C19.1122 43.5827 19.2296 43.7053 19.3149 43.86C19.4056 44.0147 19.4509 44.1933 19.4509 44.396C19.4509 44.7 19.3549 44.9507 19.1629 45.148C18.9709 45.34 18.7389 45.436 18.4669 45.436ZM27.2237 46.596C26.7863 46.596 26.389 46.492 26.0317 46.284C25.6743 46.076 25.389 45.772 25.1757 45.372C24.9677 44.9667 24.8637 44.476 24.8637 43.9C24.8637 43.3293 24.9703 42.8413 25.1837 42.436C25.4023 42.0253 25.693 41.7133 26.0557 41.5C26.4183 41.2813 26.8183 41.172 27.2557 41.172C27.5863 41.172 27.8797 41.2387 28.1357 41.372C28.3917 41.5053 28.6023 41.66 28.7677 41.836L28.2717 42.436C28.1383 42.2973 27.989 42.188 27.8237 42.108C27.6637 42.0227 27.4823 41.98 27.2797 41.98C26.997 41.98 26.7437 42.0573 26.5197 42.212C26.301 42.3613 26.1277 42.5773 25.9997 42.86C25.877 43.1427 25.8157 43.4813 25.8157 43.876C25.8157 44.4733 25.9463 44.9427 26.2077 45.284C26.469 45.62 26.8183 45.788 27.2557 45.788C27.4903 45.788 27.6983 45.74 27.8797 45.644C28.061 45.5427 28.2263 45.412 28.3757 45.252L28.8717 45.836C28.6583 46.0813 28.413 46.2707 28.1357 46.404C27.8637 46.532 27.5597 46.596 27.2237 46.596ZM31.3451 46.596C30.9824 46.596 30.6544 46.516 30.3611 46.356C30.0677 46.1907 29.8357 45.956 29.6651 45.652C29.4944 45.3427 29.4091 44.972 29.4091 44.54C29.4091 44.1133 29.4944 43.7453 29.6651 43.436C29.8411 43.1267 30.0677 42.8893 30.3451 42.724C30.6224 42.5587 30.9131 42.476 31.2171 42.476C31.5744 42.476 31.8731 42.556 32.1131 42.716C32.3531 42.8707 32.5344 43.0893 32.6571 43.372C32.7797 43.6493 32.8411 43.972 32.8411 44.34C32.8411 44.532 32.8277 44.6813 32.8011 44.788H30.3051C30.3477 45.1347 30.4731 45.404 30.6811 45.596C30.8891 45.788 31.1504 45.884 31.4651 45.884C31.6357 45.884 31.7931 45.86 31.9371 45.812C32.0864 45.7587 32.2331 45.6867 32.3771 45.596L32.6891 46.172C32.5024 46.2947 32.2944 46.396 32.0651 46.476C31.8357 46.556 31.5957 46.596 31.3451 46.596ZM30.2971 44.164H32.0411C32.0411 43.86 31.9744 43.6227 31.8411 43.452C31.7077 43.276 31.5077 43.188 31.2411 43.188C31.0117 43.188 30.8064 43.2733 30.6251 43.444C30.4491 43.6093 30.3397 43.8493 30.2971 44.164ZM34.6157 46.596C34.2904 46.596 34.0584 46.4973 33.9197 46.3C33.7864 46.1027 33.7197 45.8333 33.7197 45.492V40.852H34.6397V45.54C34.6397 45.652 34.6611 45.732 34.7037 45.78C34.7464 45.8227 34.7917 45.844 34.8397 45.844C34.8611 45.844 34.8797 45.844 34.8957 45.844C34.9171 45.8387 34.9464 45.8333 34.9837 45.828L35.1037 46.516C35.0504 46.5373 34.9811 46.556 34.8957 46.572C34.8157 46.588 34.7224 46.596 34.6157 46.596ZM36.7876 46.596C36.4623 46.596 36.2303 46.4973 36.0916 46.3C35.9583 46.1027 35.8916 45.8333 35.8916 45.492V40.852H36.8116V45.54C36.8116 45.652 36.833 45.732 36.8756 45.78C36.9183 45.8227 36.9636 45.844 37.0116 45.844C37.033 45.844 37.0516 45.844 37.0676 45.844C37.089 45.8387 37.1183 45.8333 37.1556 45.828L37.2756 46.516C37.2223 46.5373 37.153 46.556 37.0676 46.572C36.9876 46.588 36.8943 46.596 36.7876 46.596ZM39.2315 46.596C38.8102 46.596 38.5035 46.46 38.3115 46.188C38.1195 45.916 38.0235 45.532 38.0235 45.036V42.572H38.9435V44.916C38.9435 45.2413 38.9915 45.4707 39.0875 45.604C39.1835 45.7373 39.3382 45.804 39.5515 45.804C39.7222 45.804 39.8715 45.7613 39.9995 45.676C40.1328 45.5907 40.2742 45.452 40.4235 45.26V42.572H41.3435V46.5H40.5915L40.5195 45.924H40.4955C40.3248 46.1267 40.1382 46.2893 39.9355 46.412C39.7328 46.5347 39.4982 46.596 39.2315 46.596ZM43.4048 46.596C43.0795 46.596 42.8475 46.4973 42.7088 46.3C42.5755 46.1027 42.5088 45.8333 42.5088 45.492V40.852H43.4288V45.54C43.4288 45.652 43.4501 45.732 43.4928 45.78C43.5355 45.8227 43.5808 45.844 43.6288 45.844C43.6501 45.844 43.6688 45.844 43.6848 45.844C43.7061 45.8387 43.7355 45.8333 43.7728 45.828L43.8928 46.516C43.8395 46.5373 43.7701 46.556 43.6848 46.572C43.6048 46.588 43.5115 46.596 43.4048 46.596ZM45.6327 46.596C45.2913 46.596 45.0113 46.4893 44.7927 46.276C44.5793 46.0627 44.4727 45.7853 44.4727 45.444C44.4727 45.0227 44.6567 44.6973 45.0247 44.468C45.3927 44.2333 45.9793 44.0733 46.7847 43.988C46.7793 43.78 46.7233 43.6013 46.6167 43.452C46.5153 43.2973 46.3313 43.22 46.0647 43.22C45.8727 43.22 45.6833 43.2573 45.4967 43.332C45.3153 43.4067 45.1367 43.4973 44.9607 43.604L44.6247 42.988C44.8433 42.8493 45.0887 42.7293 45.3607 42.628C45.638 42.5267 45.9313 42.476 46.2407 42.476C46.7313 42.476 47.0967 42.6227 47.3367 42.916C47.582 43.204 47.7047 43.6227 47.7047 44.172V46.5H46.9447L46.8807 46.068H46.8487C46.6727 46.2173 46.4833 46.3427 46.2807 46.444C46.0833 46.5453 45.8673 46.596 45.6327 46.596ZM45.9287 45.876C46.0887 45.876 46.2327 45.8387 46.3607 45.764C46.494 45.684 46.6353 45.5773 46.7847 45.444V44.564C46.2513 44.6333 45.8807 44.7373 45.6727 44.876C45.4647 45.0093 45.3607 45.1747 45.3607 45.372C45.3607 45.548 45.414 45.676 45.5207 45.756C45.6273 45.836 45.7633 45.876 45.9287 45.876ZM48.8057 46.5V42.572H49.5657L49.6297 43.268H49.6617C49.8003 43.012 49.9683 42.8173 50.1657 42.684C50.363 42.5453 50.5657 42.476 50.7737 42.476C50.9603 42.476 51.1097 42.5027 51.2217 42.556L51.0617 43.356C50.9923 43.3347 50.9283 43.3187 50.8697 43.308C50.811 43.2973 50.739 43.292 50.6537 43.292C50.499 43.292 50.3363 43.3533 50.1657 43.476C49.995 43.5933 49.8483 43.8013 49.7257 44.1V46.5H48.8057Z" fill="#272727"/>
<path d="M18.4669 59.436C18.2002 59.436 17.9709 59.34 17.7789 59.148C17.5869 58.9507 17.4909 58.7 17.4909 58.396C17.4909 58.1933 17.5336 58.0147 17.6189 57.86C17.7096 57.7053 17.8296 57.5827 17.9789 57.492C18.1282 57.4013 18.2909 57.356 18.4669 57.356C18.6482 57.356 18.8136 57.4013 18.9629 57.492C19.1122 57.5827 19.2296 57.7053 19.3149 57.86C19.4056 58.0147 19.4509 58.1933 19.4509 58.396C19.4509 58.7 19.3549 58.9507 19.1629 59.148C18.9709 59.34 18.7389 59.436 18.4669 59.436ZM26.2077 57.716L26.0237 58.356H27.3597L27.1757 57.716C27.0903 57.4387 27.0077 57.1533 26.9277 56.86C26.853 56.5667 26.7783 56.276 26.7037 55.988H26.6717C26.6023 56.2813 26.5277 56.5747 26.4477 56.868C26.373 57.156 26.293 57.4387 26.2077 57.716ZM24.4557 60.5L26.1597 55.268H27.2477L28.9517 60.5H27.9757L27.5677 59.084H25.8077L25.3997 60.5H24.4557ZM29.5166 60.5V56.572H30.2766L30.3406 57.1H30.3726C30.5486 56.9293 30.7406 56.7827 30.9486 56.66C31.1566 56.5373 31.394 56.476 31.6606 56.476C32.082 56.476 32.3886 56.612 32.5806 56.884C32.7726 57.156 32.8686 57.54 32.8686 58.036V60.5H31.9486V58.156C31.9486 57.8307 31.9006 57.6013 31.8046 57.468C31.7086 57.3347 31.5513 57.268 31.3326 57.268C31.162 57.268 31.01 57.3107 30.8766 57.396C30.7486 57.476 30.602 57.596 30.4366 57.756V60.5H29.5166ZM33.9932 60.5V56.572H34.7532L34.8172 57.1H34.8492C35.0252 56.9293 35.2172 56.7827 35.4252 56.66C35.6332 56.5373 35.8705 56.476 36.1372 56.476C36.5585 56.476 36.8652 56.612 37.0572 56.884C37.2492 57.156 37.3452 57.54 37.3452 58.036V60.5H36.4252V58.156C36.4252 57.8307 36.3772 57.6013 36.2812 57.468C36.1852 57.3347 36.0278 57.268 35.8092 57.268C35.6385 57.268 35.4865 57.3107 35.3532 57.396C35.2252 57.476 35.0785 57.596 34.9132 57.756V60.5H33.9932ZM39.6377 60.596C39.2164 60.596 38.9097 60.46 38.7177 60.188C38.5257 59.916 38.4297 59.532 38.4297 59.036V56.572H39.3497V58.916C39.3497 59.2413 39.3977 59.4707 39.4937 59.604C39.5897 59.7373 39.7444 59.804 39.9577 59.804C40.1284 59.804 40.2777 59.7613 40.4057 59.676C40.5391 59.5907 40.6804 59.452 40.8297 59.26V56.572H41.7497V60.5H40.9977L40.9257 59.924H40.9017C40.7311 60.1267 40.5444 60.2893 40.3417 60.412C40.1391 60.5347 39.9044 60.596 39.6377 60.596ZM43.8671 60.596C43.5257 60.596 43.2457 60.4893 43.0271 60.276C42.8137 60.0627 42.7071 59.7853 42.7071 59.444C42.7071 59.0227 42.8911 58.6973 43.2591 58.468C43.6271 58.2333 44.2137 58.0733 45.0191 57.988C45.0137 57.78 44.9577 57.6013 44.8511 57.452C44.7497 57.2973 44.5657 57.22 44.2991 57.22C44.1071 57.22 43.9177 57.2573 43.7311 57.332C43.5497 57.4067 43.3711 57.4973 43.1951 57.604L42.8591 56.988C43.0777 56.8493 43.3231 56.7293 43.5951 56.628C43.8724 56.5267 44.1657 56.476 44.4751 56.476C44.9657 56.476 45.3311 56.6227 45.5711 56.916C45.8164 57.204 45.9391 57.6227 45.9391 58.172V60.5H45.1791L45.1151 60.068H45.0831C44.9071 60.2173 44.7177 60.3427 44.5151 60.444C44.3177 60.5453 44.1017 60.596 43.8671 60.596ZM44.1631 59.876C44.3231 59.876 44.4671 59.8387 44.5951 59.764C44.7284 59.684 44.8697 59.5773 45.0191 59.444V58.564C44.4857 58.6333 44.1151 58.7373 43.9071 58.876C43.6991 59.0093 43.5951 59.1747 43.5951 59.372C43.5951 59.548 43.6484 59.676 43.7551 59.756C43.8617 59.836 43.9977 59.876 44.1631 59.876ZM47.9361 60.596C47.6107 60.596 47.3787 60.4973 47.2401 60.3C47.1067 60.1027 47.0401 59.8333 47.0401 59.492V54.852H47.9601V59.54C47.9601 59.652 47.9814 59.732 48.0241 59.78C48.0667 59.8227 48.1121 59.844 48.1601 59.844C48.1814 59.844 48.2001 59.844 48.2161 59.844C48.2374 59.8387 48.2667 59.8333 48.3041 59.828L48.4241 60.516C48.3707 60.5373 48.3014 60.556 48.2161 60.572C48.1361 60.588 48.0427 60.596 47.9361 60.596ZM50.8935 60.5V55.268H52.5415C52.9308 55.268 53.2775 55.3187 53.5815 55.42C53.8855 55.5213 54.1255 55.6893 54.3015 55.924C54.4775 56.1587 54.5655 56.4787 54.5655 56.884C54.5655 57.268 54.4775 57.5853 54.3015 57.836C54.1255 58.0867 53.8882 58.2733 53.5895 58.396C53.2908 58.5187 52.9522 58.58 52.5735 58.58H51.8215V60.5H50.8935ZM51.8215 57.836H52.5015C53.2695 57.836 53.6535 57.5187 53.6535 56.884C53.6535 56.5533 53.5522 56.3267 53.3495 56.204C53.1522 56.076 52.8588 56.012 52.4695 56.012H51.8215V57.836ZM56.6377 60.596C56.2164 60.596 55.9097 60.46 55.7177 60.188C55.5257 59.916 55.4297 59.532 55.4297 59.036V56.572H56.3497V58.916C56.3497 59.2413 56.3977 59.4707 56.4937 59.604C56.5897 59.7373 56.7444 59.804 56.9577 59.804C57.1284 59.804 57.2777 59.7613 57.4057 59.676C57.5391 59.5907 57.6804 59.452 57.8297 59.26V56.572H58.7497V60.5H57.9977L57.9257 59.924H57.9017C57.7311 60.1267 57.5444 60.2893 57.3417 60.412C57.1391 60.5347 56.9044 60.596 56.6377 60.596ZM59.9151 60.5V56.572H60.6751L60.7391 57.268H60.7711C60.9097 57.012 61.0777 56.8173 61.2751 56.684C61.4724 56.5453 61.6751 56.476 61.8831 56.476C62.0697 56.476 62.2191 56.5027 62.3311 56.556L62.1711 57.356C62.1017 57.3347 62.0377 57.3187 61.9791 57.308C61.9204 57.2973 61.8484 57.292 61.7631 57.292C61.6084 57.292 61.4457 57.3533 61.2751 57.476C61.1044 57.5933 60.9577 57.8013 60.8351 58.1V60.5H59.9151ZM64.4613 60.596C64.104 60.596 63.7813 60.516 63.4933 60.356C63.2106 60.1907 62.984 59.956 62.8133 59.652C62.648 59.3427 62.5653 58.972 62.5653 58.54C62.5653 58.1027 62.656 57.732 62.8373 57.428C63.0186 57.1187 63.2586 56.884 63.5573 56.724C63.8613 56.5587 64.1866 56.476 64.5333 56.476C64.784 56.476 65.0026 56.5187 65.1893 56.604C65.376 56.6893 65.5413 56.7933 65.6853 56.916L65.2373 57.516C65.136 57.4253 65.032 57.356 64.9253 57.308C64.8186 57.2547 64.704 57.228 64.5813 57.228C64.2666 57.228 64.008 57.348 63.8053 57.588C63.608 57.828 63.5093 58.1453 63.5093 58.54C63.5093 58.9293 63.6053 59.244 63.7973 59.484C63.9946 59.724 64.248 59.844 64.5573 59.844C64.712 59.844 64.856 59.812 64.9893 59.748C65.128 59.6787 65.2533 59.5987 65.3653 59.508L65.7413 60.116C65.56 60.276 65.3573 60.396 65.1333 60.476C64.9093 60.556 64.6853 60.596 64.4613 60.596ZM66.5166 60.5V54.852H67.4366V56.308L67.4046 57.068C67.57 56.9133 67.754 56.7773 67.9566 56.66C68.1593 56.5373 68.394 56.476 68.6606 56.476C69.082 56.476 69.3886 56.612 69.5806 56.884C69.7726 57.156 69.8686 57.54 69.8686 58.036V60.5H68.9486V58.156C68.9486 57.8307 68.9006 57.6013 68.8046 57.468C68.7086 57.3347 68.5513 57.268 68.3326 57.268C68.162 57.268 68.01 57.3107 67.8766 57.396C67.7486 57.476 67.602 57.596 67.4366 57.756V60.5H66.5166ZM71.9296 60.596C71.5882 60.596 71.3082 60.4893 71.0896 60.276C70.8762 60.0627 70.7696 59.7853 70.7696 59.444C70.7696 59.0227 70.9536 58.6973 71.3216 58.468C71.6896 58.2333 72.2762 58.0733 73.0816 57.988C73.0762 57.78 73.0202 57.6013 72.9136 57.452C72.8122 57.2973 72.6282 57.22 72.3616 57.22C72.1696 57.22 71.9802 57.2573 71.7936 57.332C71.6122 57.4067 71.4336 57.4973 71.2576 57.604L70.9216 56.988C71.1402 56.8493 71.3856 56.7293 71.6576 56.628C71.9349 56.5267 72.2282 56.476 72.5376 56.476C73.0282 56.476 73.3936 56.6227 73.6336 56.916C73.8789 57.204 74.0016 57.6227 74.0016 58.172V60.5H73.2416L73.1776 60.068H73.1456C72.9696 60.2173 72.7802 60.3427 72.5776 60.444C72.3802 60.5453 72.1642 60.596 71.9296 60.596ZM72.2256 59.876C72.3856 59.876 72.5296 59.8387 72.6576 59.764C72.7909 59.684 72.9322 59.5773 73.0816 59.444V58.564C72.5482 58.6333 72.1776 58.7373 71.9696 58.876C71.7616 59.0093 71.6576 59.1747 71.6576 59.372C71.6576 59.548 71.7109 59.676 71.8176 59.756C71.9242 59.836 72.0602 59.876 72.2256 59.876ZM76.1986 60.596C75.9319 60.596 75.6652 60.5453 75.3986 60.444C75.1319 60.3373 74.9026 60.2067 74.7106 60.052L75.1426 59.46C75.3186 59.5933 75.4946 59.7 75.6706 59.78C75.8466 59.86 76.0332 59.9 76.2306 59.9C76.4439 59.9 76.6012 59.8547 76.7026 59.764C76.8039 59.6733 76.8546 59.5613 76.8546 59.428C76.8546 59.316 76.8119 59.2253 76.7266 59.156C76.6466 59.0813 76.5426 59.0173 76.4146 58.964C76.2866 58.9053 76.1532 58.8493 76.0146 58.796C75.8439 58.732 75.6732 58.6547 75.5026 58.564C75.3372 58.468 75.2012 58.348 75.0946 58.204C74.9879 58.0547 74.9346 57.8707 74.9346 57.652C74.9346 57.3053 75.0626 57.0227 75.3186 56.804C75.5746 56.5853 75.9212 56.476 76.3586 56.476C76.6359 56.476 76.8839 56.524 77.1026 56.62C77.3212 56.716 77.5106 56.8253 77.6706 56.948L77.2466 57.508C77.1079 57.4067 76.9666 57.3267 76.8226 57.268C76.6839 57.204 76.5372 57.172 76.3826 57.172C76.1852 57.172 76.0386 57.2147 75.9426 57.3C75.8466 57.38 75.7986 57.4813 75.7986 57.604C75.7986 57.7587 75.8786 57.876 76.0386 57.956C76.1986 58.036 76.3852 58.1133 76.5986 58.188C76.7799 58.252 76.9559 58.332 77.1266 58.428C77.2972 58.5187 77.4386 58.6387 77.5506 58.788C77.6679 58.9373 77.7266 59.1347 77.7266 59.38C77.7266 59.716 77.5959 60.004 77.3346 60.244C77.0732 60.4787 76.6946 60.596 76.1986 60.596ZM80.2279 60.596C79.8652 60.596 79.5372 60.516 79.2439 60.356C78.9505 60.1907 78.7185 59.956 78.5479 59.652C78.3772 59.3427 78.2919 58.972 78.2919 58.54C78.2919 58.1133 78.3772 57.7453 78.5479 57.436C78.7239 57.1267 78.9505 56.8893 79.2279 56.724C79.5052 56.5587 79.7959 56.476 80.0999 56.476C80.4572 56.476 80.7559 56.556 80.9959 56.716C81.2359 56.8707 81.4172 57.0893 81.5399 57.372C81.6625 57.6493 81.7239 57.972 81.7239 58.34C81.7239 58.532 81.7105 58.6813 81.6839 58.788H79.1879C79.2305 59.1347 79.3559 59.404 79.5639 59.596C79.7719 59.788 80.0332 59.884 80.3479 59.884C80.5185 59.884 80.6759 59.86 80.8199 59.812C80.9692 59.7587 81.1159 59.6867 81.2599 59.596L81.5719 60.172C81.3852 60.2947 81.1772 60.396 80.9479 60.476C80.7185 60.556 80.4785 60.596 80.2279 60.596ZM79.1799 58.164H80.9239C80.9239 57.86 80.8572 57.6227 80.7239 57.452C80.5905 57.276 80.3905 57.188 80.1239 57.188C79.8945 57.188 79.6892 57.2733 79.5079 57.444C79.3319 57.6093 79.2225 57.8493 79.1799 58.164Z" fill="#272727"/>
<path d="M91.1917 18.5V13.252H92.7517C93.109 13.252 93.421 13.2947 93.6877 13.38C93.9597 13.4653 94.1703 13.6013 94.3197 13.788C94.4743 13.9747 94.5517 14.2227 94.5517 14.532C94.5517 14.7933 94.485 15.0307 94.3517 15.244C94.2237 15.452 94.0343 15.596 93.7837 15.676V15.708C94.0983 15.7667 94.3543 15.9 94.5517 16.108C94.7543 16.316 94.8557 16.6013 94.8557 16.964C94.8557 17.3053 94.7703 17.5907 94.5997 17.82C94.4343 18.0493 94.2023 18.22 93.9037 18.332C93.605 18.444 93.2583 18.5 92.8637 18.5H91.1917ZM91.8557 15.484H92.6317C93.0797 15.484 93.4023 15.4067 93.5997 15.252C93.797 15.0973 93.8957 14.8867 93.8957 14.62C93.8957 14.316 93.7917 14.1 93.5837 13.972C93.381 13.844 93.0743 13.78 92.6637 13.78H91.8557V15.484ZM91.8557 17.972H92.7677C93.221 17.972 93.573 17.8893 93.8237 17.724C94.0743 17.5533 94.1997 17.292 94.1997 16.94C94.1997 16.6147 94.0743 16.3773 93.8237 16.228C93.5783 16.0733 93.2263 15.996 92.7677 15.996H91.8557V17.972ZM95.8308 18.5V14.612H96.3748L96.4308 15.316H96.4548C96.5881 15.0707 96.7508 14.876 96.9428 14.732C97.1348 14.588 97.3401 14.516 97.5588 14.516C97.7135 14.516 97.8521 14.5427 97.9748 14.596L97.8468 15.172C97.7828 15.1507 97.7241 15.1347 97.6708 15.124C97.6175 15.1133 97.5508 15.108 97.4708 15.108C97.3055 15.108 97.1321 15.1747 96.9508 15.308C96.7748 15.4413 96.6201 15.6733 96.4868 16.004V18.5H95.8308ZM99.3049 18.596C98.9796 18.596 98.7076 18.5 98.4889 18.308C98.2756 18.1107 98.1689 17.8387 98.1689 17.492C98.1689 17.0653 98.3583 16.74 98.7369 16.516C99.1209 16.2867 99.7263 16.1267 100.553 16.036C100.553 15.8707 100.529 15.7133 100.481 15.564C100.438 15.4147 100.358 15.2947 100.241 15.204C100.129 15.108 99.9663 15.06 99.7529 15.06C99.5289 15.06 99.3183 15.1027 99.1209 15.188C98.9236 15.2733 98.7476 15.3693 98.5929 15.476L98.3369 15.02C98.5183 14.9027 98.7396 14.7907 99.0009 14.684C99.2676 14.572 99.5556 14.516 99.8649 14.516C100.34 14.516 100.684 14.6627 100.897 14.956C101.11 15.244 101.217 15.6307 101.217 16.116V18.5H100.673L100.617 18.036H100.593C100.412 18.1853 100.212 18.316 99.9929 18.428C99.7796 18.54 99.5503 18.596 99.3049 18.596ZM99.4969 18.068C99.6836 18.068 99.8596 18.0227 100.025 17.932C100.19 17.8413 100.366 17.7133 100.553 17.548V16.468C99.9076 16.548 99.4543 16.668 99.1929 16.828C98.9369 16.988 98.8089 17.1933 98.8089 17.444C98.8089 17.6627 98.8756 17.8227 99.0089 17.924C99.1423 18.02 99.3049 18.068 99.4969 18.068ZM102.44 18.5V14.612H102.984L103.04 15.172H103.064C103.251 14.9853 103.448 14.8307 103.656 14.708C103.864 14.58 104.102 14.516 104.368 14.516C104.779 14.516 105.078 14.6467 105.264 14.908C105.456 15.164 105.552 15.54 105.552 16.036V18.5H104.896V16.124C104.896 15.7613 104.838 15.4973 104.72 15.332C104.603 15.1667 104.416 15.084 104.16 15.084C103.963 15.084 103.784 15.1347 103.624 15.236C103.47 15.3373 103.294 15.4867 103.096 15.684V18.5H102.44ZM108.143 18.596C107.658 18.596 107.269 18.42 106.975 18.068C106.682 17.7107 106.535 17.2093 106.535 16.564C106.535 16.1427 106.613 15.78 106.767 15.476C106.927 15.1667 107.135 14.9293 107.391 14.764C107.653 14.5987 107.93 14.516 108.223 14.516C108.447 14.516 108.642 14.556 108.807 14.636C108.973 14.716 109.141 14.8253 109.311 14.964L109.279 14.3V12.804H109.943V18.5H109.399L109.343 18.044H109.319C109.17 18.1933 108.994 18.324 108.791 18.436C108.589 18.5427 108.373 18.596 108.143 18.596ZM108.287 18.044C108.629 18.044 108.959 17.8653 109.279 17.508V15.476C109.114 15.3267 108.954 15.2227 108.799 15.164C108.65 15.1 108.495 15.068 108.335 15.068C108.127 15.068 107.938 15.132 107.767 15.26C107.602 15.3827 107.469 15.556 107.367 15.78C107.266 15.9987 107.215 16.2573 107.215 16.556C107.215 17.02 107.309 17.3853 107.495 17.652C107.682 17.9133 107.946 18.044 108.287 18.044ZM112.918 18.5V13.252H113.718L114.726 16.052C114.79 16.2333 114.852 16.4173 114.91 16.604C114.974 16.7853 115.038 16.9667 115.102 17.148H115.134C115.198 16.9667 115.257 16.7853 115.31 16.604C115.369 16.4173 115.43 16.2333 115.494 16.052L116.486 13.252H117.294V18.5H116.67V15.612C116.67 15.3773 116.681 15.1187 116.702 14.836C116.724 14.548 116.742 14.2893 116.758 14.06H116.726L116.31 15.252L115.318 17.972H114.878L113.886 15.252L113.47 14.06H113.438C113.454 14.2893 113.47 14.548 113.486 14.836C113.508 15.1187 113.518 15.3773 113.518 15.612V18.5H112.918ZM119.563 18.596C119.237 18.596 118.965 18.5 118.747 18.308C118.533 18.1107 118.427 17.8387 118.427 17.492C118.427 17.0653 118.616 16.74 118.995 16.516C119.379 16.2867 119.984 16.1267 120.811 16.036C120.811 15.8707 120.787 15.7133 120.739 15.564C120.696 15.4147 120.616 15.2947 120.499 15.204C120.387 15.108 120.224 15.06 120.011 15.06C119.787 15.06 119.576 15.1027 119.379 15.188C119.181 15.2733 119.005 15.3693 118.851 15.476L118.595 15.02C118.776 14.9027 118.997 14.7907 119.259 14.684C119.525 14.572 119.813 14.516 120.123 14.516C120.597 14.516 120.941 14.6627 121.155 14.956C121.368 15.244 121.475 15.6307 121.475 16.116V18.5H120.931L120.875 18.036H120.851C120.669 18.1853 120.469 18.316 120.251 18.428C120.037 18.54 119.808 18.596 119.563 18.596ZM119.755 18.068C119.941 18.068 120.117 18.0227 120.283 17.932C120.448 17.8413 120.624 17.7133 120.811 17.548V16.468C120.165 16.548 119.712 16.668 119.451 16.828C119.195 16.988 119.067 17.1933 119.067 17.444C119.067 17.6627 119.133 17.8227 119.267 17.924C119.4 18.02 119.563 18.068 119.755 18.068ZM122.698 18.5V14.612H123.242L123.298 15.316H123.322C123.455 15.0707 123.618 14.876 123.81 14.732C124.002 14.588 124.207 14.516 124.426 14.516C124.581 14.516 124.719 14.5427 124.842 14.596L124.714 15.172C124.65 15.1507 124.591 15.1347 124.538 15.124C124.485 15.1133 124.418 15.108 124.338 15.108C124.173 15.108 123.999 15.1747 123.818 15.308C123.642 15.4413 123.487 15.6733 123.354 16.004V18.5H122.698ZM125.471 18.5V12.804H126.119V16.66H126.143L127.799 14.612H128.527L127.223 16.172L128.703 18.5H127.983L126.847 16.628L126.119 17.476V18.5H125.471ZM130.868 18.596C130.521 18.596 130.206 18.516 129.924 18.356C129.641 18.1907 129.417 17.956 129.252 17.652C129.086 17.348 129.004 16.9853 129.004 16.564C129.004 16.1373 129.086 15.772 129.252 15.468C129.422 15.164 129.641 14.9293 129.908 14.764C130.174 14.5987 130.454 14.516 130.748 14.516C131.244 14.516 131.625 14.6813 131.892 15.012C132.164 15.3427 132.3 15.7853 132.3 16.34C132.3 16.4093 132.297 16.4787 132.292 16.548C132.292 16.612 132.286 16.668 132.276 16.716H129.652C129.678 17.1267 129.806 17.4547 130.036 17.7C130.27 17.9453 130.574 18.068 130.948 18.068C131.134 18.068 131.305 18.0413 131.46 17.988C131.62 17.9293 131.772 17.8547 131.916 17.764L132.148 18.196C131.982 18.3027 131.793 18.396 131.58 18.476C131.372 18.556 131.134 18.596 130.868 18.596ZM129.644 16.244H131.724C131.724 15.8493 131.638 15.5507 131.468 15.348C131.302 15.14 131.068 15.036 130.764 15.036C130.492 15.036 130.246 15.1427 130.028 15.356C129.814 15.564 129.686 15.86 129.644 16.244ZM134.406 18.596C133.99 18.596 133.7 18.476 133.534 18.236C133.374 17.996 133.294 17.684 133.294 17.3V15.148H132.718V14.652L133.326 14.612L133.406 13.524H133.958V14.612H135.006V15.148H133.958V17.308C133.958 17.548 134.001 17.7347 134.086 17.868C134.177 17.996 134.334 18.06 134.558 18.06C134.628 18.06 134.702 18.0493 134.782 18.028C134.862 18.0013 134.934 17.9773 134.998 17.956L135.126 18.452C135.02 18.4893 134.902 18.5213 134.774 18.548C134.652 18.58 134.529 18.596 134.406 18.596ZM137.352 18.596C137.005 18.596 136.691 18.516 136.408 18.356C136.125 18.1907 135.901 17.956 135.736 17.652C135.571 17.348 135.488 16.9853 135.488 16.564C135.488 16.1373 135.571 15.772 135.736 15.468C135.907 15.164 136.125 14.9293 136.392 14.764C136.659 14.5987 136.939 14.516 137.232 14.516C137.728 14.516 138.109 14.6813 138.376 15.012C138.648 15.3427 138.784 15.7853 138.784 16.34C138.784 16.4093 138.781 16.4787 138.776 16.548C138.776 16.612 138.771 16.668 138.76 16.716H136.136C136.163 17.1267 136.291 17.4547 136.52 17.7C136.755 17.9453 137.059 18.068 137.432 18.068C137.619 18.068 137.789 18.0413 137.944 17.988C138.104 17.9293 138.256 17.8547 138.4 17.764L138.632 18.196C138.467 18.3027 138.277 18.396 138.064 18.476C137.856 18.556 137.619 18.596 137.352 18.596ZM136.128 16.244H138.208C138.208 15.8493 138.123 15.5507 137.952 15.348C137.787 15.14 137.552 15.036 137.248 15.036C136.976 15.036 136.731 15.1427 136.512 15.356C136.299 15.564 136.171 15.86 136.128 16.244ZM139.745 18.5V14.612H140.289L140.345 15.316H140.369C140.502 15.0707 140.665 14.876 140.857 14.732C141.049 14.588 141.254 14.516 141.473 14.516C141.628 14.516 141.766 14.5427 141.889 14.596L141.761 15.172C141.697 15.1507 141.638 15.1347 141.585 15.124C141.532 15.1133 141.465 15.108 141.385 15.108C141.22 15.108 141.046 15.1747 140.865 15.308C140.689 15.4413 140.534 15.6733 140.401 16.004V18.5H139.745Z" fill="#272727"/>
<path d="M92.2477 33.38V32.588C91.9917 32.5613 91.7437 32.492 91.5037 32.38C91.2637 32.2627 91.0583 32.1267 90.8877 31.972L91.1917 31.516C91.3623 31.6653 91.549 31.7933 91.7517 31.9C91.9597 32.0013 92.1863 32.052 92.4317 32.052C92.7303 32.052 92.9517 31.9773 93.0957 31.828C93.245 31.6733 93.3197 31.4733 93.3197 31.228C93.3197 31.0093 93.2663 30.8307 93.1597 30.692C93.053 30.5533 92.9143 30.4333 92.7437 30.332C92.573 30.2307 92.3917 30.1347 92.1997 30.044C92.013 29.948 91.8343 29.844 91.6637 29.732C91.493 29.6147 91.3543 29.4707 91.2477 29.3C91.141 29.1293 91.0877 28.9133 91.0877 28.652C91.0877 28.2947 91.1943 27.9987 91.4077 27.764C91.621 27.524 91.901 27.3773 92.2477 27.324V26.516H92.7277V27.308C92.9837 27.3347 93.1997 27.404 93.3757 27.516C93.557 27.628 93.7197 27.7613 93.8637 27.916L93.5117 28.308C93.3623 28.164 93.2157 28.052 93.0717 27.972C92.933 27.892 92.7543 27.852 92.5357 27.852C92.2903 27.852 92.0957 27.9213 91.9517 28.06C91.8077 28.1987 91.7357 28.3853 91.7357 28.62C91.7357 28.812 91.789 28.972 91.8957 29.1C92.0023 29.2227 92.141 29.3293 92.3117 29.42C92.4823 29.5107 92.661 29.6013 92.8477 29.692C93.0397 29.7827 93.221 29.8893 93.3917 30.012C93.5623 30.1293 93.701 30.2813 93.8077 30.468C93.9143 30.6547 93.9677 30.892 93.9677 31.18C93.9677 31.5587 93.8557 31.8733 93.6317 32.124C93.4077 32.3693 93.1063 32.5187 92.7277 32.572V33.38H92.2477ZM98.0498 32.596C97.7298 32.596 97.4445 32.5373 97.1938 32.42C96.9431 32.2973 96.7431 32.1293 96.5938 31.916C96.4498 31.7027 96.3778 31.4627 96.3778 31.196C96.3778 30.972 96.4231 30.7747 96.5138 30.604C96.6098 30.428 96.7298 30.276 96.8738 30.148C97.0231 30.0147 97.1778 29.9053 97.3378 29.82V29.788C97.1511 29.6547 96.9858 29.492 96.8418 29.3C96.6978 29.108 96.6258 28.8787 96.6258 28.612C96.6258 28.3507 96.6898 28.1213 96.8178 27.924C96.9458 27.7267 97.1191 27.5747 97.3378 27.468C97.5565 27.356 97.8018 27.3 98.0738 27.3C98.5165 27.3 98.8658 27.428 99.1218 27.684C99.3831 27.94 99.5138 28.2653 99.5138 28.66C99.5138 28.836 99.4765 29.004 99.4018 29.164C99.3271 29.3187 99.2365 29.46 99.1298 29.588C99.0231 29.7107 98.9165 29.812 98.8098 29.892V29.924C98.9645 30.0093 99.1085 30.1107 99.2418 30.228C99.3751 30.3453 99.4845 30.4867 99.5698 30.652C99.6551 30.812 99.6978 31.0067 99.6978 31.236C99.6978 31.4867 99.6285 31.716 99.4898 31.924C99.3565 32.132 99.1645 32.2973 98.9138 32.42C98.6685 32.5373 98.3805 32.596 98.0498 32.596ZM98.4098 29.716C98.5805 29.5613 98.7111 29.3987 98.8018 29.228C98.8978 29.0573 98.9458 28.8787 98.9458 28.692C98.9458 28.4413 98.8685 28.228 98.7138 28.052C98.5591 27.876 98.3405 27.788 98.0578 27.788C97.8231 27.788 97.6258 27.8627 97.4658 28.012C97.3111 28.1613 97.2338 28.3613 97.2338 28.612C97.2338 28.8147 97.2871 28.9827 97.3938 29.116C97.5058 29.2493 97.6525 29.364 97.8338 29.46C98.0151 29.5507 98.2071 29.636 98.4098 29.716ZM98.0658 32.108C98.3645 32.108 98.6045 32.0253 98.7858 31.86C98.9725 31.6893 99.0658 31.4733 99.0658 31.212C99.0658 30.9933 99.0018 30.8147 98.8738 30.676C98.7458 30.5373 98.5751 30.4173 98.3618 30.316C98.1538 30.2147 97.9271 30.116 97.6818 30.02C97.4791 30.1533 97.3085 30.3133 97.1698 30.5C97.0365 30.6867 96.9698 30.8973 96.9698 31.132C96.9698 31.4147 97.0738 31.6493 97.2818 31.836C97.4951 32.0173 97.7565 32.108 98.0658 32.108ZM102.018 32.596C101.506 32.596 101.104 32.3667 100.81 31.908C100.522 31.444 100.378 30.7853 100.378 29.932C100.378 29.0733 100.522 28.42 100.81 27.972C101.104 27.524 101.506 27.3 102.018 27.3C102.525 27.3 102.922 27.524 103.21 27.972C103.504 28.42 103.65 29.0733 103.65 29.932C103.65 30.7853 103.504 31.444 103.21 31.908C102.922 32.3667 102.525 32.596 102.018 32.596ZM102.018 32.068C102.317 32.068 102.557 31.9 102.738 31.564C102.92 31.2227 103.01 30.6787 103.01 29.932C103.01 29.1853 102.92 28.6493 102.738 28.324C102.557 27.9933 102.317 27.828 102.018 27.828C101.72 27.828 101.477 27.9933 101.29 28.324C101.109 28.6493 101.018 29.1853 101.018 29.932C101.018 30.6787 101.109 31.2227 101.29 31.564C101.477 31.9 101.72 32.068 102.018 32.068ZM104.539 33.86L104.379 33.476C104.608 33.3747 104.787 33.2387 104.915 33.068C105.043 32.9027 105.104 32.7133 105.099 32.5C105.088 32.5053 105.075 32.508 105.059 32.508C105.043 32.508 105.03 32.508 105.019 32.508C104.891 32.508 104.779 32.4707 104.683 32.396C104.592 32.316 104.547 32.2013 104.547 32.052C104.547 31.908 104.595 31.796 104.691 31.716C104.787 31.6307 104.902 31.588 105.035 31.588C105.206 31.588 105.339 31.6573 105.435 31.796C105.536 31.9347 105.587 32.124 105.587 32.364C105.587 32.7053 105.494 33.004 105.307 33.26C105.12 33.5213 104.864 33.7213 104.539 33.86ZM107.987 32.596C107.475 32.596 107.072 32.3667 106.779 31.908C106.491 31.444 106.347 30.7853 106.347 29.932C106.347 29.0733 106.491 28.42 106.779 27.972C107.072 27.524 107.475 27.3 107.987 27.3C108.494 27.3 108.891 27.524 109.179 27.972C109.472 28.42 109.619 29.0733 109.619 29.932C109.619 30.7853 109.472 31.444 109.179 31.908C108.891 32.3667 108.494 32.596 107.987 32.596ZM107.987 32.068C108.286 32.068 108.526 31.9 108.707 31.564C108.888 31.2227 108.979 30.6787 108.979 29.932C108.979 29.1853 108.888 28.6493 108.707 28.324C108.526 27.9933 108.286 27.828 107.987 27.828C107.688 27.828 107.446 27.9933 107.259 28.324C107.078 28.6493 106.987 29.1853 106.987 29.932C106.987 30.6787 107.078 31.2227 107.259 31.564C107.446 31.9 107.688 32.068 107.987 32.068ZM111.964 32.596C111.452 32.596 111.049 32.3667 110.756 31.908C110.468 31.444 110.324 30.7853 110.324 29.932C110.324 29.0733 110.468 28.42 110.756 27.972C111.049 27.524 111.452 27.3 111.964 27.3C112.47 27.3 112.868 27.524 113.156 27.972C113.449 28.42 113.596 29.0733 113.596 29.932C113.596 30.7853 113.449 31.444 113.156 31.908C112.868 32.3667 112.47 32.596 111.964 32.596ZM111.964 32.068C112.262 32.068 112.502 31.9 112.684 31.564C112.865 31.2227 112.956 30.6787 112.956 29.932C112.956 29.1853 112.865 28.6493 112.684 28.324C112.502 27.9933 112.262 27.828 111.964 27.828C111.665 27.828 111.422 27.9933 111.236 28.324C111.054 28.6493 110.964 29.1853 110.964 29.932C110.964 30.6787 111.054 31.2227 111.236 31.564C111.422 31.9 111.665 32.068 111.964 32.068ZM115.94 32.596C115.428 32.596 115.026 32.3667 114.732 31.908C114.444 31.444 114.3 30.7853 114.3 29.932C114.3 29.0733 114.444 28.42 114.732 27.972C115.026 27.524 115.428 27.3 115.94 27.3C116.447 27.3 116.844 27.524 117.132 27.972C117.426 28.42 117.572 29.0733 117.572 29.932C117.572 30.7853 117.426 31.444 117.132 31.908C116.844 32.3667 116.447 32.596 115.94 32.596ZM115.94 32.068C116.239 32.068 116.479 31.9 116.66 31.564C116.842 31.2227 116.932 30.6787 116.932 29.932C116.932 29.1853 116.842 28.6493 116.66 28.324C116.479 27.9933 116.239 27.828 115.94 27.828C115.642 27.828 115.399 27.9933 115.212 28.324C115.031 28.6493 114.94 29.1853 114.94 29.932C114.94 30.6787 115.031 31.2227 115.212 31.564C115.399 31.9 115.642 32.068 115.94 32.068Z" fill="#272727"/>
<path d="M92.0957 43.564L91.8477 44.364H93.4237L93.1757 43.564C93.0797 43.2707 92.989 42.98 92.9037 42.692C92.8183 42.3987 92.733 42.1 92.6477 41.796H92.6157C92.5357 42.1 92.453 42.3987 92.3677 42.692C92.2823 42.98 92.1917 43.2707 92.0957 43.564ZM90.4957 46.5L92.2717 41.252H93.0237L94.7997 46.5H94.0877L93.5917 44.9H91.6797L91.1757 46.5H90.4957ZM96.1937 46.5V41.812H94.6097V41.252H98.4497V41.812H96.8657V46.5H96.1937ZM100.187 42.388C100.187 42.532 100.208 42.6813 100.251 42.836C100.299 42.9907 100.36 43.148 100.435 43.308C100.675 43.148 100.883 42.9827 101.059 42.812C101.24 42.636 101.331 42.4333 101.331 42.204C101.331 42.0493 101.291 41.916 101.211 41.804C101.136 41.6867 101.011 41.628 100.835 41.628C100.637 41.628 100.48 41.7 100.363 41.844C100.245 41.988 100.187 42.1693 100.187 42.388ZM100.531 46.596C100.216 46.596 99.9361 46.5347 99.6908 46.412C99.4508 46.284 99.2641 46.1107 99.1308 45.892C98.9975 45.6733 98.9308 45.4227 98.9308 45.14C98.9308 44.9053 98.9788 44.6973 99.0748 44.516C99.1761 44.3347 99.3041 44.172 99.4588 44.028C99.6135 43.884 99.7815 43.7507 99.9628 43.628C99.8561 43.4093 99.7708 43.1987 99.7068 42.996C99.6481 42.788 99.6188 42.588 99.6188 42.396C99.6188 42.1613 99.6695 41.9507 99.7708 41.764C99.8721 41.5773 100.013 41.4307 100.195 41.324C100.381 41.212 100.595 41.156 100.835 41.156C101.16 41.156 101.413 41.252 101.595 41.444C101.776 41.636 101.867 41.8867 101.867 42.196C101.867 42.4253 101.808 42.6307 101.691 42.812C101.573 42.9933 101.424 43.1587 101.243 43.308C101.067 43.4573 100.88 43.604 100.683 43.748C100.853 44.0147 101.056 44.276 101.291 44.532C101.525 44.7827 101.765 45.012 102.011 45.22C102.171 45.0013 102.312 44.764 102.435 44.508C102.563 44.2467 102.667 43.9667 102.747 43.668H103.363C103.261 44.0093 103.133 44.34 102.979 44.66C102.829 44.9747 102.651 45.2707 102.443 45.548C102.624 45.6707 102.797 45.7747 102.963 45.86C103.128 45.9453 103.283 46.0093 103.427 46.052L103.251 46.596C103.069 46.5427 102.875 46.468 102.667 46.372C102.464 46.2707 102.256 46.1453 102.043 45.996C101.845 46.1773 101.621 46.324 101.371 46.436C101.12 46.5427 100.84 46.596 100.531 46.596ZM99.5708 45.1C99.5708 45.3933 99.6695 45.628 99.8668 45.804C100.069 45.98 100.315 46.068 100.603 46.068C100.784 46.068 100.957 46.0307 101.123 45.956C101.293 45.8813 101.453 45.7773 101.603 45.644C101.347 45.42 101.099 45.1747 100.859 44.908C100.624 44.6413 100.413 44.3667 100.227 44.084C100.045 44.2333 99.8908 44.3907 99.7628 44.556C99.6348 44.716 99.5708 44.8973 99.5708 45.1ZM105.358 46.5V41.812H103.774V41.252H107.614V41.812H106.03V46.5H105.358Z" fill="#272727"/>
<path d="M92.2477 61.38V60.588C91.9917 60.5613 91.7437 60.492 91.5037 60.38C91.2637 60.2627 91.0583 60.1267 90.8877 59.972L91.1917 59.516C91.3623 59.6653 91.549 59.7933 91.7517 59.9C91.9597 60.0013 92.1863 60.052 92.4317 60.052C92.7303 60.052 92.9517 59.9773 93.0957 59.828C93.245 59.6733 93.3197 59.4733 93.3197 59.228C93.3197 59.0093 93.2663 58.8307 93.1597 58.692C93.053 58.5533 92.9143 58.4333 92.7437 58.332C92.573 58.2307 92.3917 58.1347 92.1997 58.044C92.013 57.948 91.8343 57.844 91.6637 57.732C91.493 57.6147 91.3543 57.4707 91.2477 57.3C91.141 57.1293 91.0877 56.9133 91.0877 56.652C91.0877 56.2947 91.1943 55.9987 91.4077 55.764C91.621 55.524 91.901 55.3773 92.2477 55.324V54.516H92.7277V55.308C92.9837 55.3347 93.1997 55.404 93.3757 55.516C93.557 55.628 93.7197 55.7613 93.8637 55.916L93.5117 56.308C93.3623 56.164 93.2157 56.052 93.0717 55.972C92.933 55.892 92.7543 55.852 92.5357 55.852C92.2903 55.852 92.0957 55.9213 91.9517 56.06C91.8077 56.1987 91.7357 56.3853 91.7357 56.62C91.7357 56.812 91.789 56.972 91.8957 57.1C92.0023 57.2227 92.141 57.3293 92.3117 57.42C92.4823 57.5107 92.661 57.6013 92.8477 57.692C93.0397 57.7827 93.221 57.8893 93.3917 58.012C93.5623 58.1293 93.701 58.2813 93.8077 58.468C93.9143 58.6547 93.9677 58.892 93.9677 59.18C93.9677 59.5587 93.8557 59.8733 93.6317 60.124C93.4077 60.3693 93.1063 60.5187 92.7277 60.572V61.38H92.2477ZM96.3698 60.5V60.108C96.8818 59.596 97.3165 59.148 97.6738 58.764C98.0311 58.3747 98.3031 58.0253 98.4898 57.716C98.6765 57.4013 98.7698 57.108 98.7698 56.836C98.7698 56.5427 98.6898 56.3027 98.5298 56.116C98.3698 55.9293 98.1271 55.836 97.8018 55.836C97.5885 55.836 97.3911 55.8973 97.2098 56.02C97.0285 56.1373 96.8631 56.2813 96.7138 56.452L96.3378 56.076C96.5511 55.8413 96.7778 55.6547 97.0178 55.516C97.2631 55.372 97.5511 55.3 97.8818 55.3C98.3565 55.3 98.7298 55.4387 99.0018 55.716C99.2738 55.988 99.4098 56.3507 99.4098 56.804C99.4098 57.124 99.3191 57.4493 99.1378 57.78C98.9618 58.1053 98.7165 58.4493 98.4018 58.812C98.0925 59.1693 97.7351 59.5587 97.3298 59.98C97.4685 59.9693 97.6125 59.9587 97.7618 59.948C97.9111 59.9373 98.0525 59.932 98.1858 59.932H99.6658V60.5H96.3698ZM100.562 61.86L100.402 61.476C100.632 61.3747 100.81 61.2387 100.938 61.068C101.066 60.9027 101.128 60.7133 101.122 60.5C101.112 60.5053 101.098 60.508 101.082 60.508C101.066 60.508 101.053 60.508 101.042 60.508C100.914 60.508 100.802 60.4707 100.706 60.396C100.616 60.316 100.57 60.2013 100.57 60.052C100.57 59.908 100.618 59.796 100.714 59.716C100.81 59.6307 100.925 59.588 101.058 59.588C101.229 59.588 101.362 59.6573 101.458 59.796C101.56 59.9347 101.61 60.124 101.61 60.364C101.61 60.7053 101.517 61.004 101.33 61.26C101.144 61.5213 100.888 61.7213 100.562 61.86ZM103.891 60.596C103.485 60.596 103.149 60.524 102.883 60.38C102.616 60.236 102.395 60.076 102.219 59.9L102.539 59.468C102.693 59.6173 102.872 59.7533 103.075 59.876C103.277 59.9933 103.528 60.052 103.827 60.052C104.141 60.052 104.405 59.948 104.619 59.74C104.837 59.5267 104.947 59.2413 104.947 58.884C104.947 58.532 104.848 58.2573 104.651 58.06C104.453 57.8627 104.189 57.764 103.859 57.764C103.683 57.764 103.531 57.7907 103.403 57.844C103.28 57.8973 103.141 57.9747 102.987 58.076L102.635 57.852L102.803 55.396H105.355V55.964H103.379L103.243 57.476C103.365 57.412 103.488 57.3613 103.611 57.324C103.733 57.2867 103.872 57.268 104.027 57.268C104.32 57.268 104.584 57.3267 104.819 57.444C105.059 57.556 105.251 57.7293 105.395 57.964C105.539 58.1987 105.611 58.5 105.611 58.868C105.611 59.236 105.528 59.5507 105.363 59.812C105.203 60.068 104.992 60.2627 104.731 60.396C104.469 60.5293 104.189 60.596 103.891 60.596ZM107.987 60.596C107.475 60.596 107.072 60.3667 106.779 59.908C106.491 59.444 106.347 58.7853 106.347 57.932C106.347 57.0733 106.491 56.42 106.779 55.972C107.072 55.524 107.475 55.3 107.987 55.3C108.494 55.3 108.891 55.524 109.179 55.972C109.472 56.42 109.619 57.0733 109.619 57.932C109.619 58.7853 109.472 59.444 109.179 59.908C108.891 60.3667 108.494 60.596 107.987 60.596ZM107.987 60.068C108.286 60.068 108.526 59.9 108.707 59.564C108.888 59.2227 108.979 58.6787 108.979 57.932C108.979 57.1853 108.888 56.6493 108.707 56.324C108.526 55.9933 108.286 55.828 107.987 55.828C107.688 55.828 107.446 55.9933 107.259 56.324C107.078 56.6493 106.987 57.1853 106.987 57.932C106.987 58.6787 107.078 59.2227 107.259 59.564C107.446 59.9 107.688 60.068 107.987 60.068ZM111.964 60.596C111.452 60.596 111.049 60.3667 110.756 59.908C110.468 59.444 110.324 58.7853 110.324 57.932C110.324 57.0733 110.468 56.42 110.756 55.972C111.049 55.524 111.452 55.3 111.964 55.3C112.47 55.3 112.868 55.524 113.156 55.972C113.449 56.42 113.596 57.0733 113.596 57.932C113.596 58.7853 113.449 59.444 113.156 59.908C112.868 60.3667 112.47 60.596 111.964 60.596ZM111.964 60.068C112.262 60.068 112.502 59.9 112.684 59.564C112.865 59.2227 112.956 58.6787 112.956 57.932C112.956 57.1853 112.865 56.6493 112.684 56.324C112.502 55.9933 112.262 55.828 111.964 55.828C111.665 55.828 111.422 55.9933 111.236 56.324C111.054 56.6493 110.964 57.1853 110.964 57.932C110.964 58.6787 111.054 59.2227 111.236 59.564C111.422 59.9 111.665 60.068 111.964 60.068Z" fill="#272727"/>
</g>
<defs>
<filter id="filter0_d_123_2640" x="0.97168" y="0" width="157" height="77" filterUnits="userSpaceOnUse" color-interpolation-filters="sRGB">
<feFlood flood-opacity="0" result="BackgroundImageFix"/>
<feColorMatrix in="SourceAlpha" type="matrix" values="0 0 0 0 0 0 0 0 0 0 0 0 0 0 0 0 0 0 127 0" result="hardAlpha"/>
<feOffset dy="2"/>
<feGaussianBlur stdDeviation="3"/>
<feComposite in2="hardAlpha" operator="out"/>
<feColorMatrix type="matrix" values="0 0 0 0 0 0 0 0 0 0 0 0 0 0 0 0 0 0 0.15 0"/>
<feBlend mode="normal" in2="BackgroundImageFix" result="effect1_dropShadow_123_2640"/>
<feBlend mode="normal" in="SourceGraphic" in2="effect1_dropShadow_123_2640" result="shape"/>
</filter>
</defs>
</svg>
