<svg width="133" height="77" viewBox="0 0 133 77" fill="none" xmlns="http://www.w3.org/2000/svg">
<g filter="url(#filter0_d_123_2629)">
<rect x="6.02832" y="4" width="120" height="65" rx="10" fill="white" shape-rendering="crispEdges"/>
<path d="M19.0235 17.436C18.7569 17.436 18.5275 17.34 18.3355 17.148C18.1435 16.9507 18.0475 16.7 18.0475 16.396C18.0475 16.1933 18.0902 16.0147 18.1755 15.86C18.2662 15.7053 18.3862 15.5827 18.5355 15.492C18.6849 15.4013 18.8475 15.356 19.0235 15.356C19.2049 15.356 19.3702 15.4013 19.5195 15.492C19.6689 15.5827 19.7862 15.7053 19.8715 15.86C19.9622 16.0147 20.0075 16.1933 20.0075 16.396C20.0075 16.7 19.9115 16.9507 19.7195 17.148C19.5275 17.34 19.2955 17.436 19.0235 17.436ZM25.6923 18.5V13.268H26.6443L28.2763 16.212L28.8123 17.324H28.8443C28.823 17.0573 28.7963 16.7667 28.7643 16.452C28.7377 16.1373 28.7243 15.8333 28.7243 15.54V13.268H29.6123V18.5H28.6603L27.0283 15.556L26.4923 14.444H26.4603C26.4817 14.7213 26.5057 15.012 26.5323 15.316C26.5643 15.62 26.5803 15.9187 26.5803 16.212V18.5H25.6923ZM31.8143 18.596C31.473 18.596 31.193 18.4893 30.9743 18.276C30.761 18.0627 30.6543 17.7853 30.6543 17.444C30.6543 17.0227 30.8383 16.6973 31.2063 16.468C31.5743 16.2333 32.161 16.0733 32.9663 15.988C32.961 15.78 32.905 15.6013 32.7983 15.452C32.697 15.2973 32.513 15.22 32.2463 15.22C32.0543 15.22 31.865 15.2573 31.6783 15.332C31.497 15.4067 31.3183 15.4973 31.1423 15.604L30.8063 14.988C31.025 14.8493 31.2703 14.7293 31.5423 14.628C31.8197 14.5267 32.113 14.476 32.4223 14.476C32.913 14.476 33.2783 14.6227 33.5183 14.916C33.7637 15.204 33.8863 15.6227 33.8863 16.172V18.5H33.1263L33.0623 18.068H33.0303C32.8543 18.2173 32.665 18.3427 32.4623 18.444C32.265 18.5453 32.049 18.596 31.8143 18.596ZM32.1103 17.876C32.2703 17.876 32.4143 17.8387 32.5423 17.764C32.6757 17.684 32.817 17.5773 32.9663 17.444V16.564C32.433 16.6333 32.0623 16.7373 31.8543 16.876C31.6463 17.0093 31.5423 17.1747 31.5423 17.372C31.5423 17.548 31.5957 17.676 31.7023 17.756C31.809 17.836 31.945 17.876 32.1103 17.876ZM34.9873 18.5V14.572H35.7473L35.8113 15.108H35.8433C36.0087 14.932 36.1873 14.7827 36.3793 14.66C36.5767 14.5373 36.798 14.476 37.0433 14.476C37.3313 14.476 37.5607 14.54 37.7313 14.668C37.9073 14.7907 38.0407 14.9613 38.1313 15.18C38.318 14.9773 38.5127 14.8093 38.7153 14.676C38.9233 14.5427 39.15 14.476 39.3953 14.476C39.8113 14.476 40.118 14.612 40.3153 14.884C40.5127 15.156 40.6113 15.54 40.6113 16.036V18.5H39.6833V16.156C39.6833 15.8307 39.6327 15.6013 39.5313 15.468C39.4353 15.3347 39.286 15.268 39.0833 15.268C38.838 15.268 38.5633 15.4307 38.2593 15.756V18.5H37.3393V16.156C37.3393 15.8307 37.2887 15.6013 37.1873 15.468C37.0913 15.3347 36.9393 15.268 36.7313 15.268C36.486 15.268 36.2113 15.4307 35.9073 15.756V18.5H34.9873ZM43.4095 18.596C43.0468 18.596 42.7188 18.516 42.4255 18.356C42.1322 18.1907 41.9002 17.956 41.7295 17.652C41.5588 17.3427 41.4735 16.972 41.4735 16.54C41.4735 16.1133 41.5588 15.7453 41.7295 15.436C41.9055 15.1267 42.1322 14.8893 42.4095 14.724C42.6868 14.5587 42.9775 14.476 43.2815 14.476C43.6388 14.476 43.9375 14.556 44.1775 14.716C44.4175 14.8707 44.5988 15.0893 44.7215 15.372C44.8442 15.6493 44.9055 15.972 44.9055 16.34C44.9055 16.532 44.8922 16.6813 44.8655 16.788H42.3695C42.4122 17.1347 42.5375 17.404 42.7455 17.596C42.9535 17.788 43.2148 17.884 43.5295 17.884C43.7002 17.884 43.8575 17.86 44.0015 17.812C44.1508 17.7587 44.2975 17.6867 44.4415 17.596L44.7535 18.172C44.5668 18.2947 44.3588 18.396 44.1295 18.476C43.9002 18.556 43.6602 18.596 43.4095 18.596ZM42.3615 16.164H44.1055C44.1055 15.86 44.0388 15.6227 43.9055 15.452C43.7722 15.276 43.5722 15.188 43.3055 15.188C43.0762 15.188 42.8708 15.2733 42.6895 15.444C42.5135 15.6093 42.4042 15.8493 42.3615 16.164Z" fill="#272727"/>
<path d="M19.0235 31.436C18.7569 31.436 18.5275 31.34 18.3355 31.148C18.1435 30.9507 18.0475 30.7 18.0475 30.396C18.0475 30.1933 18.0902 30.0147 18.1755 29.86C18.2662 29.7053 18.3862 29.5827 18.5355 29.492C18.6849 29.4013 18.8475 29.356 19.0235 29.356C19.2049 29.356 19.3702 29.4013 19.5195 29.492C19.6689 29.5827 19.7862 29.7053 19.8715 29.86C19.9622 30.0147 20.0075 30.1933 20.0075 30.396C20.0075 30.7 19.9115 30.9507 19.7195 31.148C19.5275 31.34 19.2955 31.436 19.0235 31.436ZM27.8843 32.596C27.415 32.596 26.9937 32.492 26.6203 32.284C26.247 32.076 25.9537 31.772 25.7403 31.372C25.527 30.9667 25.4203 30.476 25.4203 29.9C25.4203 29.3293 25.5297 28.8413 25.7483 28.436C25.967 28.0253 26.263 27.7133 26.6363 27.5C27.0097 27.2813 27.4283 27.172 27.8923 27.172C28.2657 27.172 28.5803 27.2413 28.8363 27.38C29.0977 27.5133 29.311 27.6653 29.4763 27.836L28.9803 28.436C28.847 28.308 28.6977 28.2013 28.5323 28.116C28.3723 28.0253 28.1697 27.98 27.9243 27.98C27.4603 27.98 27.0843 28.1507 26.7963 28.492C26.5137 28.828 26.3723 29.2893 26.3723 29.876C26.3723 30.4733 26.5083 30.9427 26.7803 31.284C27.0523 31.62 27.4497 31.788 27.9723 31.788C28.1217 31.788 28.263 31.7693 28.3963 31.732C28.5297 31.6893 28.639 31.6307 28.7243 31.556V30.428H27.7323V29.668H29.5563V31.972C29.3803 32.148 29.1457 32.2973 28.8523 32.42C28.5643 32.5373 28.2417 32.596 27.8843 32.596ZM32.3158 32.596C31.9531 32.596 31.6251 32.516 31.3318 32.356C31.0384 32.1907 30.8064 31.956 30.6358 31.652C30.4651 31.3427 30.3798 30.972 30.3798 30.54C30.3798 30.1133 30.4651 29.7453 30.6358 29.436C30.8118 29.1267 31.0384 28.8893 31.3158 28.724C31.5931 28.5587 31.8838 28.476 32.1878 28.476C32.5451 28.476 32.8438 28.556 33.0838 28.716C33.3238 28.8707 33.5051 29.0893 33.6278 29.372C33.7504 29.6493 33.8118 29.972 33.8118 30.34C33.8118 30.532 33.7984 30.6813 33.7718 30.788H31.2758C31.3184 31.1347 31.4438 31.404 31.6518 31.596C31.8598 31.788 32.1211 31.884 32.4358 31.884C32.6064 31.884 32.7638 31.86 32.9078 31.812C33.0571 31.7587 33.2038 31.6867 33.3478 31.596L33.6598 32.172C33.4731 32.2947 33.2651 32.396 33.0358 32.476C32.8064 32.556 32.5664 32.596 32.3158 32.596ZM31.2678 30.164H33.0118C33.0118 29.86 32.9451 29.6227 32.8118 29.452C32.6784 29.276 32.4784 29.188 32.2118 29.188C31.9824 29.188 31.7771 29.2733 31.5958 29.444C31.4198 29.6093 31.3104 29.8493 31.2678 30.164ZM34.6904 32.5V28.572H35.4504L35.5144 29.1H35.5464C35.7224 28.9293 35.9144 28.7827 36.1224 28.66C36.3304 28.5373 36.5678 28.476 36.8344 28.476C37.2558 28.476 37.5624 28.612 37.7544 28.884C37.9464 29.156 38.0424 29.54 38.0424 30.036V32.5H37.1224V30.156C37.1224 29.8307 37.0744 29.6013 36.9784 29.468C36.8824 29.3347 36.7251 29.268 36.5064 29.268C36.3358 29.268 36.1838 29.3107 36.0504 29.396C35.9224 29.476 35.7758 29.596 35.6104 29.756V32.5H34.6904ZM40.543 32.596C40.0523 32.596 39.6603 32.4147 39.367 32.052C39.0737 31.6893 38.927 31.1853 38.927 30.54C38.927 30.1133 39.0043 29.7453 39.159 29.436C39.319 29.1267 39.527 28.8893 39.783 28.724C40.039 28.5587 40.3083 28.476 40.591 28.476C40.815 28.476 41.0043 28.516 41.159 28.596C41.319 28.6707 41.4737 28.7747 41.623 28.908L41.591 28.276V26.852H42.511V32.5H41.751L41.687 32.076H41.655C41.511 32.22 41.343 32.3427 41.151 32.444C40.959 32.5453 40.7563 32.596 40.543 32.596ZM40.767 31.836C41.0603 31.836 41.335 31.6893 41.591 31.396V29.564C41.4577 29.4413 41.3243 29.356 41.191 29.308C41.0577 29.26 40.9243 29.236 40.791 29.236C40.5403 29.236 40.3243 29.3507 40.143 29.58C39.967 29.804 39.879 30.1213 39.879 30.532C39.879 30.9533 39.9563 31.276 40.111 31.5C40.2657 31.724 40.4843 31.836 40.767 31.836ZM45.3626 32.596C45 32.596 44.672 32.516 44.3786 32.356C44.0853 32.1907 43.8533 31.956 43.6826 31.652C43.512 31.3427 43.4266 30.972 43.4266 30.54C43.4266 30.1133 43.512 29.7453 43.6826 29.436C43.8586 29.1267 44.0853 28.8893 44.3626 28.724C44.64 28.5587 44.9306 28.476 45.2346 28.476C45.592 28.476 45.8906 28.556 46.1306 28.716C46.3706 28.8707 46.552 29.0893 46.6746 29.372C46.7973 29.6493 46.8586 29.972 46.8586 30.34C46.8586 30.532 46.8453 30.6813 46.8186 30.788H44.3226C44.3653 31.1347 44.4906 31.404 44.6986 31.596C44.9066 31.788 45.168 31.884 45.4826 31.884C45.6533 31.884 45.8106 31.86 45.9546 31.812C46.104 31.7587 46.2506 31.6867 46.3946 31.596L46.7066 32.172C46.52 32.2947 46.312 32.396 46.0826 32.476C45.8533 32.556 45.6133 32.596 45.3626 32.596ZM44.3146 30.164H46.0586C46.0586 29.86 45.992 29.6227 45.8586 29.452C45.7253 29.276 45.5253 29.188 45.2586 29.188C45.0293 29.188 44.824 29.2733 44.6426 29.444C44.4666 29.6093 44.3573 29.8493 44.3146 30.164ZM47.7373 32.5V28.572H48.4973L48.5613 29.268H48.5933C48.732 29.012 48.9 28.8173 49.0973 28.684C49.2947 28.5453 49.4973 28.476 49.7053 28.476C49.892 28.476 50.0413 28.5027 50.1533 28.556L49.9933 29.356C49.924 29.3347 49.86 29.3187 49.8013 29.308C49.7427 29.2973 49.6707 29.292 49.5853 29.292C49.4307 29.292 49.268 29.3533 49.0973 29.476C48.9267 29.5933 48.78 29.8013 48.6573 30.1V32.5H47.7373Z" fill="#272727"/>
<path d="M19.0235 45.436C18.7569 45.436 18.5275 45.34 18.3355 45.148C18.1435 44.9507 18.0475 44.7 18.0475 44.396C18.0475 44.1933 18.0902 44.0147 18.1755 43.86C18.2662 43.7053 18.3862 43.5827 18.5355 43.492C18.6849 43.4013 18.8475 43.356 19.0235 43.356C19.2049 43.356 19.3702 43.4013 19.5195 43.492C19.6689 43.5827 19.7862 43.7053 19.8715 43.86C19.9622 44.0147 20.0075 44.1933 20.0075 44.396C20.0075 44.7 19.9115 44.9507 19.7195 45.148C19.5275 45.34 19.2955 45.436 19.0235 45.436ZM26.7643 43.716L26.5803 44.356H27.9163L27.7323 43.716C27.647 43.4387 27.5643 43.1533 27.4843 42.86C27.4097 42.5667 27.335 42.276 27.2603 41.988H27.2283C27.159 42.2813 27.0843 42.5747 27.0043 42.868C26.9297 43.156 26.8497 43.4387 26.7643 43.716ZM25.0123 46.5L26.7163 41.268H27.8043L29.5083 46.5H28.5323L28.1243 45.084H26.3643L25.9563 46.5H25.0123ZM31.4413 48.236C31.1319 48.236 30.8519 48.1987 30.6013 48.124C30.3559 48.0493 30.1613 47.9347 30.0173 47.78C29.8786 47.6307 29.8093 47.4413 29.8093 47.212C29.8093 46.8867 29.9959 46.6067 30.3693 46.372V46.34C30.2679 46.276 30.1826 46.1907 30.1133 46.084C30.0493 45.9773 30.0173 45.844 30.0173 45.684C30.0173 45.5293 30.0599 45.3907 30.1453 45.268C30.2359 45.14 30.3373 45.036 30.4493 44.956V44.924C30.3159 44.8227 30.1959 44.6813 30.0893 44.5C29.9879 44.3187 29.9373 44.1133 29.9373 43.884C29.9373 43.58 30.0093 43.324 30.1533 43.116C30.2973 42.908 30.4866 42.7507 30.7213 42.644C30.9613 42.532 31.2173 42.476 31.4893 42.476C31.5959 42.476 31.6973 42.4867 31.7933 42.508C31.8946 42.524 31.9853 42.5453 32.0653 42.572H33.4733V43.252H32.7533C32.8173 43.3267 32.8706 43.4227 32.9133 43.54C32.9559 43.652 32.9773 43.7773 32.9773 43.916C32.9773 44.204 32.9106 44.4493 32.7773 44.652C32.6439 44.8493 32.4653 44.9987 32.2413 45.1C32.0173 45.2013 31.7666 45.252 31.4893 45.252C31.4039 45.252 31.3159 45.244 31.2253 45.228C31.1346 45.212 31.0439 45.1853 30.9533 45.148C30.8946 45.2013 30.8466 45.2547 30.8093 45.308C30.7773 45.3613 30.7613 45.4333 30.7613 45.524C30.7613 45.636 30.8066 45.724 30.8973 45.788C30.9933 45.852 31.1613 45.884 31.4013 45.884H32.0973C32.5719 45.884 32.9293 45.9613 33.1693 46.116C33.4146 46.2653 33.5373 46.5107 33.5373 46.852C33.5373 47.108 33.4519 47.34 33.2813 47.548C33.1106 47.7613 32.8679 47.9293 32.5533 48.052C32.2386 48.1747 31.8679 48.236 31.4413 48.236ZM31.4893 44.676C31.6759 44.676 31.8359 44.6067 31.9693 44.468C32.1026 44.3293 32.1693 44.1347 32.1693 43.884C32.1693 43.6387 32.1026 43.4493 31.9693 43.316C31.8413 43.1773 31.6813 43.108 31.4893 43.108C31.2973 43.108 31.1346 43.1747 31.0013 43.308C30.8679 43.4413 30.8013 43.6333 30.8013 43.884C30.8013 44.1347 30.8679 44.3293 31.0013 44.468C31.1346 44.6067 31.2973 44.676 31.4893 44.676ZM31.5853 47.636C31.8999 47.636 32.1559 47.572 32.3533 47.444C32.5506 47.316 32.6493 47.1693 32.6493 47.004C32.6493 46.8493 32.5879 46.7453 32.4653 46.692C32.3479 46.6387 32.1773 46.612 31.9533 46.612H31.4173C31.2039 46.612 31.0253 46.5933 30.8813 46.556C30.6786 46.7107 30.5773 46.884 30.5773 47.076C30.5773 47.252 30.6679 47.388 30.8493 47.484C31.0306 47.5853 31.2759 47.636 31.5853 47.636ZM35.7845 46.596C35.4218 46.596 35.0938 46.516 34.8005 46.356C34.5072 46.1907 34.2752 45.956 34.1045 45.652C33.9338 45.3427 33.8485 44.972 33.8485 44.54C33.8485 44.1133 33.9338 43.7453 34.1045 43.436C34.2805 43.1267 34.5072 42.8893 34.7845 42.724C35.0618 42.5587 35.3525 42.476 35.6565 42.476C36.0138 42.476 36.3125 42.556 36.5525 42.716C36.7925 42.8707 36.9738 43.0893 37.0965 43.372C37.2192 43.6493 37.2805 43.972 37.2805 44.34C37.2805 44.532 37.2672 44.6813 37.2405 44.788H34.7445C34.7872 45.1347 34.9125 45.404 35.1205 45.596C35.3285 45.788 35.5898 45.884 35.9045 45.884C36.0752 45.884 36.2325 45.86 36.3765 45.812C36.5258 45.7587 36.6725 45.6867 36.8165 45.596L37.1285 46.172C36.9418 46.2947 36.7338 46.396 36.5045 46.476C36.2752 46.556 36.0352 46.596 35.7845 46.596ZM34.7365 44.164H36.4805C36.4805 43.86 36.4138 43.6227 36.2805 43.452C36.1472 43.276 35.9472 43.188 35.6805 43.188C35.4512 43.188 35.2458 43.2733 35.0645 43.444C34.8885 43.6093 34.7792 43.8493 34.7365 44.164Z" fill="#272727"/>
<path d="M19.0235 59.436C18.7569 59.436 18.5275 59.34 18.3355 59.148C18.1435 58.9507 18.0475 58.7 18.0475 58.396C18.0475 58.1933 18.0902 58.0147 18.1755 57.86C18.2662 57.7053 18.3862 57.5827 18.5355 57.492C18.6849 57.4013 18.8475 57.356 19.0235 57.356C19.2049 57.356 19.3702 57.4013 19.5195 57.492C19.6689 57.5827 19.7862 57.7053 19.8715 57.86C19.9622 58.0147 20.0075 58.1933 20.0075 58.396C20.0075 58.7 19.9115 58.9507 19.7195 59.148C19.5275 59.34 19.2955 59.436 19.0235 59.436ZM25.6923 60.5V55.268H26.6203V59.716H28.7963V60.5H25.6923ZM29.6279 60.5V56.572H30.5479V60.5H29.6279ZM30.0919 55.884C29.9266 55.884 29.7933 55.836 29.6919 55.74C29.5906 55.644 29.5399 55.516 29.5399 55.356C29.5399 55.2013 29.5906 55.076 29.6919 54.98C29.7933 54.884 29.9266 54.836 30.0919 54.836C30.2573 54.836 30.3906 54.884 30.4919 54.98C30.5933 55.076 30.6439 55.2013 30.6439 55.356C30.6439 55.516 30.5933 55.644 30.4919 55.74C30.3906 55.836 30.2573 55.884 30.0919 55.884ZM32.6017 60.5L31.2337 56.572H32.1697L32.7937 58.612C32.847 58.804 32.9004 58.9987 32.9537 59.196C33.0124 59.3933 33.0684 59.5933 33.1217 59.796H33.1537C33.2124 59.5933 33.2684 59.3933 33.3217 59.196C33.3804 58.9987 33.4364 58.804 33.4897 58.612L34.1137 56.572H35.0017L33.6657 60.5H32.6017ZM35.6826 60.5V56.572H36.6026V60.5H35.6826ZM36.1466 55.884C35.9813 55.884 35.848 55.836 35.7466 55.74C35.6453 55.644 35.5946 55.516 35.5946 55.356C35.5946 55.2013 35.6453 55.076 35.7466 54.98C35.848 54.884 35.9813 54.836 36.1466 54.836C36.312 54.836 36.4453 54.884 36.5466 54.98C36.648 55.076 36.6986 55.2013 36.6986 55.356C36.6986 55.516 36.648 55.644 36.5466 55.74C36.4453 55.836 36.312 55.884 36.1466 55.884ZM37.7764 60.5V56.572H38.5364L38.6004 57.1H38.6324C38.8084 56.9293 39.0004 56.7827 39.2084 56.66C39.4164 56.5373 39.6537 56.476 39.9204 56.476C40.3417 56.476 40.6484 56.612 40.8404 56.884C41.0324 57.156 41.1284 57.54 41.1284 58.036V60.5H40.2084V58.156C40.2084 57.8307 40.1604 57.6013 40.0644 57.468C39.9684 57.3347 39.811 57.268 39.5924 57.268C39.4217 57.268 39.2697 57.3107 39.1364 57.396C39.0084 57.476 38.8617 57.596 38.6964 57.756V60.5H37.7764ZM43.6209 62.236C43.3116 62.236 43.0316 62.1987 42.7809 62.124C42.5356 62.0493 42.3409 61.9347 42.1969 61.78C42.0583 61.6307 41.9889 61.4413 41.9889 61.212C41.9889 60.8867 42.1756 60.6067 42.5489 60.372V60.34C42.4476 60.276 42.3623 60.1907 42.2929 60.084C42.2289 59.9773 42.1969 59.844 42.1969 59.684C42.1969 59.5293 42.2396 59.3907 42.3249 59.268C42.4156 59.14 42.5169 59.036 42.6289 58.956V58.924C42.4956 58.8227 42.3756 58.6813 42.2689 58.5C42.1676 58.3187 42.1169 58.1133 42.1169 57.884C42.1169 57.58 42.1889 57.324 42.3329 57.116C42.4769 56.908 42.6663 56.7507 42.9009 56.644C43.1409 56.532 43.3969 56.476 43.6689 56.476C43.7756 56.476 43.8769 56.4867 43.9729 56.508C44.0743 56.524 44.1649 56.5453 44.2449 56.572H45.6529V57.252H44.9329C44.9969 57.3267 45.0503 57.4227 45.0929 57.54C45.1356 57.652 45.1569 57.7773 45.1569 57.916C45.1569 58.204 45.0903 58.4493 44.9569 58.652C44.8236 58.8493 44.6449 58.9987 44.4209 59.1C44.1969 59.2013 43.9463 59.252 43.6689 59.252C43.5836 59.252 43.4956 59.244 43.4049 59.228C43.3143 59.212 43.2236 59.1853 43.1329 59.148C43.0743 59.2013 43.0263 59.2547 42.9889 59.308C42.9569 59.3613 42.9409 59.4333 42.9409 59.524C42.9409 59.636 42.9863 59.724 43.0769 59.788C43.1729 59.852 43.3409 59.884 43.5809 59.884H44.2769C44.7516 59.884 45.1089 59.9613 45.3489 60.116C45.5943 60.2653 45.7169 60.5107 45.7169 60.852C45.7169 61.108 45.6316 61.34 45.4609 61.548C45.2903 61.7613 45.0476 61.9293 44.7329 62.052C44.4183 62.1747 44.0476 62.236 43.6209 62.236ZM43.6689 58.676C43.8556 58.676 44.0156 58.6067 44.1489 58.468C44.2823 58.3293 44.3489 58.1347 44.3489 57.884C44.3489 57.6387 44.2823 57.4493 44.1489 57.316C44.0209 57.1773 43.8609 57.108 43.6689 57.108C43.4769 57.108 43.3143 57.1747 43.1809 57.308C43.0476 57.4413 42.9809 57.6333 42.9809 57.884C42.9809 58.1347 43.0476 58.3293 43.1809 58.468C43.3143 58.6067 43.4769 58.676 43.6689 58.676ZM43.7649 61.636C44.0796 61.636 44.3356 61.572 44.5329 61.444C44.7303 61.316 44.8289 61.1693 44.8289 61.004C44.8289 60.8493 44.7676 60.7453 44.6449 60.692C44.5276 60.6387 44.3569 60.612 44.1329 60.612H43.5969C43.3836 60.612 43.2049 60.5933 43.0609 60.556C42.8583 60.7107 42.7569 60.884 42.7569 61.076C42.7569 61.252 42.8476 61.388 43.0289 61.484C43.2103 61.5853 43.4556 61.636 43.7649 61.636Z" fill="#272727"/>
<path d="M59.7243 18.596C59.0683 18.596 58.5857 18.316 58.2763 17.756L58.7563 17.42C58.8737 17.628 59.007 17.78 59.1563 17.876C59.3057 17.9667 59.4737 18.012 59.6603 18.012C59.943 18.012 60.1537 17.9267 60.2923 17.756C60.431 17.58 60.5003 17.292 60.5003 16.892V13.252H61.1723V16.956C61.1723 17.2547 61.1217 17.5293 61.0203 17.78C60.9243 18.0307 60.7697 18.2307 60.5563 18.38C60.343 18.524 60.0657 18.596 59.7243 18.596ZM63.4241 18.596C63.0987 18.596 62.8267 18.5 62.6081 18.308C62.3947 18.1107 62.2881 17.8387 62.2881 17.492C62.2881 17.0653 62.4774 16.74 62.8561 16.516C63.2401 16.2867 63.8454 16.1267 64.6721 16.036C64.6721 15.8707 64.6481 15.7133 64.6001 15.564C64.5574 15.4147 64.4774 15.2947 64.3601 15.204C64.2481 15.108 64.0854 15.06 63.8721 15.06C63.6481 15.06 63.4374 15.1027 63.2401 15.188C63.0427 15.2733 62.8667 15.3693 62.7121 15.476L62.4561 15.02C62.6374 14.9027 62.8587 14.7907 63.1201 14.684C63.3867 14.572 63.6747 14.516 63.9841 14.516C64.4587 14.516 64.8027 14.6627 65.0161 14.956C65.2294 15.244 65.3361 15.6307 65.3361 16.116V18.5H64.7921L64.7361 18.036H64.7121C64.5307 18.1853 64.3307 18.316 64.1121 18.428C63.8987 18.54 63.6694 18.596 63.4241 18.596ZM63.6161 18.068C63.8027 18.068 63.9787 18.0227 64.1441 17.932C64.3094 17.8413 64.4854 17.7133 64.6721 17.548V16.468C64.0267 16.548 63.5734 16.668 63.3121 16.828C63.0561 16.988 62.9281 17.1933 62.9281 17.444C62.9281 17.6627 62.9947 17.8227 63.1281 17.924C63.2614 18.02 63.4241 18.068 63.6161 18.068ZM66.5593 18.5V14.612H67.1033L67.1593 15.172H67.1833C67.37 14.9853 67.5673 14.8307 67.7753 14.708C67.9833 14.58 68.2207 14.516 68.4873 14.516C68.898 14.516 69.1967 14.6467 69.3833 14.908C69.5753 15.164 69.6713 15.54 69.6713 16.036V18.5H69.0153V16.124C69.0153 15.7613 68.9567 15.4973 68.8393 15.332C68.722 15.1667 68.5353 15.084 68.2793 15.084C68.082 15.084 67.9033 15.1347 67.7433 15.236C67.5887 15.3373 67.4127 15.4867 67.2153 15.684V18.5H66.5593ZM72.5103 18.596C72.1637 18.596 71.849 18.516 71.5663 18.356C71.2837 18.1907 71.0597 17.956 70.8943 17.652C70.729 17.348 70.6463 16.9853 70.6463 16.564C70.6463 16.1373 70.729 15.772 70.8943 15.468C71.065 15.164 71.2837 14.9293 71.5503 14.764C71.817 14.5987 72.097 14.516 72.3903 14.516C72.8863 14.516 73.2677 14.6813 73.5343 15.012C73.8063 15.3427 73.9423 15.7853 73.9423 16.34C73.9423 16.4093 73.9397 16.4787 73.9343 16.548C73.9343 16.612 73.929 16.668 73.9183 16.716H71.2943C71.321 17.1267 71.449 17.4547 71.6783 17.7C71.913 17.9453 72.217 18.068 72.5903 18.068C72.777 18.068 72.9477 18.0413 73.1023 17.988C73.2623 17.9293 73.4143 17.8547 73.5583 17.764L73.7903 18.196C73.625 18.3027 73.4357 18.396 73.2223 18.476C73.0143 18.556 72.777 18.596 72.5103 18.596ZM71.2863 16.244H73.3663C73.3663 15.8493 73.281 15.5507 73.1103 15.348C72.945 15.14 72.7103 15.036 72.4063 15.036C72.1343 15.036 71.889 15.1427 71.6703 15.356C71.457 15.564 71.329 15.86 71.2863 16.244ZM76.5686 18.5V13.252H77.8806C78.6913 13.252 79.3073 13.4787 79.7286 13.932C80.15 14.38 80.3606 15.02 80.3606 15.852C80.3606 16.6893 80.15 17.34 79.7286 17.804C79.3126 18.268 78.7073 18.5 77.9126 18.5H76.5686ZM77.2326 17.956H77.8326C78.446 17.956 78.9046 17.772 79.2086 17.404C79.518 17.0307 79.6726 16.5133 79.6726 15.852C79.6726 15.1907 79.518 14.684 79.2086 14.332C78.9046 13.9747 78.446 13.796 77.8326 13.796H77.2326V17.956ZM82.9385 18.596C82.6238 18.596 82.3278 18.516 82.0505 18.356C81.7785 18.196 81.5572 17.964 81.3865 17.66C81.2212 17.356 81.1385 16.9907 81.1385 16.564C81.1385 16.1267 81.2212 15.756 81.3865 15.452C81.5572 15.148 81.7785 14.916 82.0505 14.756C82.3278 14.596 82.6238 14.516 82.9385 14.516C83.2585 14.516 83.5545 14.596 83.8265 14.756C84.0985 14.916 84.3172 15.148 84.4825 15.452C84.6532 15.756 84.7385 16.1267 84.7385 16.564C84.7385 16.9907 84.6532 17.356 84.4825 17.66C84.3172 17.964 84.0985 18.196 83.8265 18.356C83.5545 18.516 83.2585 18.596 82.9385 18.596ZM82.9385 18.052C83.2745 18.052 83.5438 17.916 83.7465 17.644C83.9545 17.3667 84.0585 17.0067 84.0585 16.564C84.0585 16.116 83.9545 15.7533 83.7465 15.476C83.5438 15.1987 83.2745 15.06 82.9385 15.06C82.6078 15.06 82.3385 15.1987 82.1305 15.476C81.9225 15.7533 81.8185 16.116 81.8185 16.564C81.8185 17.0067 81.9225 17.3667 82.1305 17.644C82.3385 17.916 82.6078 18.052 82.9385 18.052ZM87.3384 18.596C86.9918 18.596 86.6771 18.516 86.3944 18.356C86.1118 18.1907 85.8878 17.956 85.7224 17.652C85.5571 17.348 85.4744 16.9853 85.4744 16.564C85.4744 16.1373 85.5571 15.772 85.7224 15.468C85.8931 15.164 86.1118 14.9293 86.3784 14.764C86.6451 14.5987 86.9251 14.516 87.2184 14.516C87.7144 14.516 88.0958 14.6813 88.3624 15.012C88.6344 15.3427 88.7704 15.7853 88.7704 16.34C88.7704 16.4093 88.7678 16.4787 88.7624 16.548C88.7624 16.612 88.7571 16.668 88.7464 16.716H86.1224C86.1491 17.1267 86.2771 17.4547 86.5064 17.7C86.7411 17.9453 87.0451 18.068 87.4184 18.068C87.6051 18.068 87.7758 18.0413 87.9304 17.988C88.0904 17.9293 88.2424 17.8547 88.3864 17.764L88.6184 18.196C88.4531 18.3027 88.2638 18.396 88.0504 18.476C87.8424 18.556 87.6051 18.596 87.3384 18.596ZM86.1144 16.244H88.1944C88.1944 15.8493 88.1091 15.5507 87.9384 15.348C87.7731 15.14 87.5384 15.036 87.2344 15.036C86.9624 15.036 86.7171 15.1427 86.4984 15.356C86.2851 15.564 86.1571 15.86 86.1144 16.244Z" fill="#272727"/>
<path d="M58.7483 32.5V27.252H61.7723V27.812H59.4123V29.588H61.4123V30.148H59.4123V32.5H58.7483ZM64.1041 32.596C63.7574 32.596 63.4427 32.516 63.1601 32.356C62.8774 32.1907 62.6534 31.956 62.4881 31.652C62.3227 31.348 62.2401 30.9853 62.2401 30.564C62.2401 30.1373 62.3227 29.772 62.4881 29.468C62.6587 29.164 62.8774 28.9293 63.1441 28.764C63.4107 28.5987 63.6907 28.516 63.9841 28.516C64.4801 28.516 64.8614 28.6813 65.1281 29.012C65.4001 29.3427 65.5361 29.7853 65.5361 30.34C65.5361 30.4093 65.5334 30.4787 65.5281 30.548C65.5281 30.612 65.5227 30.668 65.5121 30.716H62.8881C62.9147 31.1267 63.0427 31.4547 63.2721 31.7C63.5067 31.9453 63.8107 32.068 64.1841 32.068C64.3707 32.068 64.5414 32.0413 64.6961 31.988C64.8561 31.9293 65.0081 31.8547 65.1521 31.764L65.3841 32.196C65.2187 32.3027 65.0294 32.396 64.8161 32.476C64.6081 32.556 64.3707 32.596 64.1041 32.596ZM62.8801 30.244H64.9601C64.9601 29.8493 64.8747 29.5507 64.7041 29.348C64.5387 29.14 64.3041 29.036 64.0001 29.036C63.7281 29.036 63.4827 29.1427 63.2641 29.356C63.0507 29.564 62.9227 29.86 62.8801 30.244ZM66.4968 32.5V28.612H67.0408L67.0968 29.172H67.1208C67.2915 28.9853 67.4782 28.8307 67.6808 28.708C67.8835 28.58 68.0995 28.516 68.3288 28.516C68.6275 28.516 68.8595 28.5827 69.0248 28.716C69.1955 28.844 69.3208 29.0253 69.4008 29.26C69.6035 29.0413 69.8088 28.8627 70.0168 28.724C70.2248 28.5853 70.4462 28.516 70.6808 28.516C71.0808 28.516 71.3768 28.6467 71.5688 28.908C71.7662 29.164 71.8648 29.54 71.8648 30.036V32.5H71.2088V30.124C71.2088 29.7613 71.1502 29.4973 71.0328 29.332C70.9155 29.1667 70.7342 29.084 70.4888 29.084C70.2008 29.084 69.8755 29.284 69.5128 29.684V32.5H68.8568V30.124C68.8568 29.7613 68.7982 29.4973 68.6808 29.332C68.5635 29.1667 68.3795 29.084 68.1288 29.084C67.8408 29.084 67.5155 29.284 67.1528 29.684V32.5H66.4968ZM74.0256 32.596C73.7003 32.596 73.4283 32.5 73.2096 32.308C72.9963 32.1107 72.8896 31.8387 72.8896 31.492C72.8896 31.0653 73.079 30.74 73.4576 30.516C73.8416 30.2867 74.447 30.1267 75.2736 30.036C75.2736 29.8707 75.2496 29.7133 75.2016 29.564C75.159 29.4147 75.079 29.2947 74.9616 29.204C74.8496 29.108 74.687 29.06 74.4736 29.06C74.2496 29.06 74.039 29.1027 73.8416 29.188C73.6443 29.2733 73.4683 29.3693 73.3136 29.476L73.0576 29.02C73.239 28.9027 73.4603 28.7907 73.7216 28.684C73.9883 28.572 74.2763 28.516 74.5856 28.516C75.0603 28.516 75.4043 28.6627 75.6176 28.956C75.831 29.244 75.9376 29.6307 75.9376 30.116V32.5H75.3936L75.3376 32.036H75.3136C75.1323 32.1853 74.9323 32.316 74.7136 32.428C74.5003 32.54 74.271 32.596 74.0256 32.596ZM74.2176 32.068C74.4043 32.068 74.5803 32.0227 74.7456 31.932C74.911 31.8413 75.087 31.7133 75.2736 31.548V30.468C74.6283 30.548 74.175 30.668 73.9136 30.828C73.6576 30.988 73.5296 31.1933 73.5296 31.444C73.5296 31.6627 73.5963 31.8227 73.7296 31.924C73.863 32.02 74.0256 32.068 74.2176 32.068ZM77.8569 32.596C77.6115 32.596 77.4329 32.5213 77.3209 32.372C77.2142 32.2173 77.1609 31.9987 77.1609 31.716V26.804H77.8169V31.764C77.8169 31.8653 77.8355 31.94 77.8729 31.988C77.9102 32.0307 77.9529 32.052 78.0009 32.052C78.0222 32.052 78.0409 32.052 78.0569 32.052C78.0782 32.0467 78.1075 32.0413 78.1449 32.036L78.2329 32.532C78.1902 32.5533 78.1395 32.5693 78.0809 32.58C78.0222 32.5907 77.9475 32.596 77.8569 32.596ZM80.7759 32.596C80.4293 32.596 80.1146 32.516 79.8319 32.356C79.5493 32.1907 79.3253 31.956 79.1599 31.652C78.9946 31.348 78.9119 30.9853 78.9119 30.564C78.9119 30.1373 78.9946 29.772 79.1599 29.468C79.3306 29.164 79.5493 28.9293 79.8159 28.764C80.0826 28.5987 80.3626 28.516 80.6559 28.516C81.1519 28.516 81.5333 28.6813 81.7999 29.012C82.0719 29.3427 82.2079 29.7853 82.2079 30.34C82.2079 30.4093 82.2053 30.4787 82.1999 30.548C82.1999 30.612 82.1946 30.668 82.1839 30.716H79.5599C79.5866 31.1267 79.7146 31.4547 79.9439 31.7C80.1786 31.9453 80.4826 32.068 80.8559 32.068C81.0426 32.068 81.2133 32.0413 81.3679 31.988C81.5279 31.9293 81.6799 31.8547 81.8239 31.764L82.0559 32.196C81.8906 32.3027 81.7013 32.396 81.4879 32.476C81.2799 32.556 81.0426 32.596 80.7759 32.596ZM79.5519 30.244H81.6319C81.6319 29.8493 81.5466 29.5507 81.3759 29.348C81.2106 29.14 80.9759 29.036 80.6719 29.036C80.3999 29.036 80.1546 29.1427 79.9359 29.356C79.7226 29.564 79.5946 29.86 79.5519 30.244Z" fill="#272727"/>
<path d="M59.9163 46.596C59.511 46.596 59.1723 46.524 58.9003 46.38C58.6283 46.2307 58.407 46.0627 58.2363 45.876L58.5723 45.444C58.727 45.604 58.9083 45.7453 59.1163 45.868C59.3243 45.9907 59.5777 46.052 59.8763 46.052C60.1857 46.052 60.439 45.9667 60.6363 45.796C60.8337 45.6253 60.9323 45.3987 60.9323 45.116C60.9323 44.9133 60.879 44.7373 60.7723 44.588C60.671 44.4333 60.5003 44.3133 60.2603 44.228C60.0257 44.1427 59.7057 44.1 59.3003 44.1V43.596C59.663 43.596 59.9483 43.5533 60.1563 43.468C60.3697 43.3827 60.5217 43.268 60.6123 43.124C60.703 42.98 60.7483 42.82 60.7483 42.644C60.7483 42.3933 60.6683 42.196 60.5083 42.052C60.3537 41.908 60.1403 41.836 59.8683 41.836C59.655 41.836 59.4577 41.884 59.2763 41.98C59.1003 42.076 58.935 42.2013 58.7803 42.356L58.4283 41.94C58.6257 41.7533 58.8443 41.6013 59.0843 41.484C59.3243 41.3613 59.5937 41.3 59.8923 41.3C60.335 41.3 60.7003 41.4147 60.9883 41.644C61.2763 41.868 61.4203 42.1853 61.4203 42.596C61.4203 42.9053 61.335 43.1587 61.1643 43.356C60.9937 43.5533 60.7697 43.7053 60.4923 43.812V43.844C60.8017 43.9133 61.063 44.06 61.2763 44.284C61.4897 44.5027 61.5963 44.788 61.5963 45.14C61.5963 45.4387 61.5217 45.6973 61.3723 45.916C61.223 46.1347 61.0203 46.3027 60.7643 46.42C60.5137 46.5373 60.231 46.596 59.9163 46.596ZM62.3249 46.5V46.108C62.8369 45.596 63.2715 45.148 63.6289 44.764C63.9862 44.3747 64.2582 44.0253 64.4449 43.716C64.6315 43.4013 64.7249 43.108 64.7249 42.836C64.7249 42.5427 64.6449 42.3027 64.4849 42.116C64.3249 41.9293 64.0822 41.836 63.7569 41.836C63.5435 41.836 63.3462 41.8973 63.1649 42.02C62.9835 42.1373 62.8182 42.2813 62.6689 42.452L62.2929 42.076C62.5062 41.8413 62.7329 41.6547 62.9729 41.516C63.2182 41.372 63.5062 41.3 63.8369 41.3C64.3115 41.3 64.6849 41.4387 64.9569 41.716C65.2289 41.988 65.3649 42.3507 65.3649 42.804C65.3649 43.124 65.2742 43.4493 65.0929 43.78C64.9169 44.1053 64.6715 44.4493 64.3569 44.812C64.0475 45.1693 63.6902 45.5587 63.2849 45.98C63.4235 45.9693 63.5675 45.9587 63.7169 45.948C63.8662 45.9373 64.0075 45.932 64.1409 45.932H65.6209V46.5H62.3249ZM69.295 47.908C68.9643 47.3693 68.7057 46.8067 68.519 46.22C68.3323 45.628 68.239 44.98 68.239 44.276C68.239 43.572 68.3323 42.924 68.519 42.332C68.7057 41.74 68.9643 41.1773 69.295 40.644L69.703 40.836C69.3937 41.3427 69.1617 41.892 69.007 42.484C68.8577 43.0707 68.783 43.668 68.783 44.276C68.783 44.884 68.8577 45.484 69.007 46.076C69.1617 46.6627 69.3937 47.2093 69.703 47.716L69.295 47.908ZM70.7249 46.5V41.252H72.2849C72.6422 41.252 72.9542 41.2947 73.2209 41.38C73.4929 41.4653 73.7035 41.6013 73.8529 41.788C74.0075 41.9747 74.0849 42.2227 74.0849 42.532C74.0849 42.7933 74.0182 43.0307 73.8849 43.244C73.7569 43.452 73.5675 43.596 73.3169 43.676V43.708C73.6315 43.7667 73.8875 43.9 74.0849 44.108C74.2875 44.316 74.3889 44.6013 74.3889 44.964C74.3889 45.3053 74.3035 45.5907 74.1329 45.82C73.9675 46.0493 73.7355 46.22 73.4369 46.332C73.1382 46.444 72.7915 46.5 72.3969 46.5H70.7249ZM71.3889 43.484H72.1649C72.6129 43.484 72.9355 43.4067 73.1329 43.252C73.3302 43.0973 73.4289 42.8867 73.4289 42.62C73.4289 42.316 73.3249 42.1 73.1169 41.972C72.9142 41.844 72.6075 41.78 72.1969 41.78H71.3889V43.484ZM71.3889 45.972H72.3009C72.7542 45.972 73.1062 45.8893 73.3569 45.724C73.6075 45.5533 73.7329 45.292 73.7329 44.94C73.7329 44.6147 73.6075 44.3773 73.3569 44.228C73.1115 44.0733 72.7595 43.996 72.3009 43.996H71.3889V45.972ZM76.876 46.596C76.5613 46.596 76.2653 46.516 75.988 46.356C75.716 46.196 75.4947 45.964 75.324 45.66C75.1587 45.356 75.076 44.9907 75.076 44.564C75.076 44.1267 75.1587 43.756 75.324 43.452C75.4947 43.148 75.716 42.916 75.988 42.756C76.2653 42.596 76.5613 42.516 76.876 42.516C77.196 42.516 77.492 42.596 77.764 42.756C78.036 42.916 78.2547 43.148 78.42 43.452C78.5907 43.756 78.676 44.1267 78.676 44.564C78.676 44.9907 78.5907 45.356 78.42 45.66C78.2547 45.964 78.036 46.196 77.764 46.356C77.492 46.516 77.196 46.596 76.876 46.596ZM76.876 46.052C77.212 46.052 77.4813 45.916 77.684 45.644C77.892 45.3667 77.996 45.0067 77.996 44.564C77.996 44.116 77.892 43.7533 77.684 43.476C77.4813 43.1987 77.212 43.06 76.876 43.06C76.5453 43.06 76.276 43.1987 76.068 43.476C75.86 43.7533 75.756 44.116 75.756 44.564C75.756 45.0067 75.86 45.3667 76.068 45.644C76.276 45.916 76.5453 46.052 76.876 46.052ZM79.6999 46.5V42.612H80.2439L80.2999 43.316H80.3239C80.4573 43.0707 80.6199 42.876 80.8119 42.732C81.0039 42.588 81.2093 42.516 81.4279 42.516C81.5826 42.516 81.7213 42.5427 81.8439 42.596L81.7159 43.172C81.6519 43.1507 81.5933 43.1347 81.5399 43.124C81.4866 43.1133 81.4199 43.108 81.3399 43.108C81.1746 43.108 81.0013 43.1747 80.8199 43.308C80.6439 43.4413 80.4893 43.6733 80.3559 44.004V46.5H79.6999ZM82.4734 46.5V42.612H83.0174L83.0734 43.172H83.0974C83.284 42.9853 83.4814 42.8307 83.6894 42.708C83.8974 42.58 84.1347 42.516 84.4014 42.516C84.812 42.516 85.1107 42.6467 85.2974 42.908C85.4894 43.164 85.5854 43.54 85.5854 44.036V46.5H84.9294V44.124C84.9294 43.7613 84.8707 43.4973 84.7534 43.332C84.636 43.1667 84.4494 43.084 84.1934 43.084C83.996 43.084 83.8174 43.1347 83.6574 43.236C83.5027 43.3373 83.3267 43.4867 83.1294 43.684V46.5H82.4734ZM88.4499 46.5V42.612H89.1059V46.5H88.4499ZM88.7859 41.812C88.6579 41.812 88.5513 41.7747 88.4659 41.7C88.3859 41.62 88.3459 41.5133 88.3459 41.38C88.3459 41.252 88.3859 41.148 88.4659 41.068C88.5513 40.988 88.6579 40.948 88.7859 40.948C88.9139 40.948 89.0179 40.988 89.0979 41.068C89.1833 41.148 89.2259 41.252 89.2259 41.38C89.2259 41.5133 89.1833 41.62 89.0979 41.7C89.0179 41.7747 88.9139 41.812 88.7859 41.812ZM90.4187 46.5V42.612H90.9627L91.0187 43.172H91.0427C91.2294 42.9853 91.4267 42.8307 91.6347 42.708C91.8427 42.58 92.08 42.516 92.3467 42.516C92.7574 42.516 93.056 42.6467 93.2427 42.908C93.4347 43.164 93.5307 43.54 93.5307 44.036V46.5H92.8747V44.124C92.8747 43.7613 92.816 43.4973 92.6987 43.332C92.5814 43.1667 92.3947 43.084 92.1387 43.084C91.9414 43.084 91.7627 43.1347 91.6027 43.236C91.448 43.3373 91.272 43.4867 91.0747 43.684V46.5H90.4187ZM96.3713 46.5V45.956H97.5393V42.196H96.6113V41.772C96.8459 41.7293 97.0486 41.6787 97.2193 41.62C97.3953 41.556 97.5526 41.4813 97.6913 41.396H98.1953V45.956H99.2513V46.5H96.3713ZM100.652 42.94C100.652 43.2707 100.729 43.5347 100.884 43.732C101.044 43.924 101.281 44.02 101.596 44.02C101.766 44.02 101.945 43.9667 102.132 43.86C102.324 43.7533 102.502 43.58 102.668 43.34C102.625 42.844 102.508 42.468 102.316 42.212C102.124 41.9507 101.865 41.82 101.54 41.82C101.294 41.82 101.084 41.924 100.908 42.132C100.737 42.3347 100.652 42.604 100.652 42.94ZM101.356 46.596C101.084 46.596 100.844 46.5453 100.636 46.444C100.433 46.3373 100.262 46.2093 100.124 46.06L100.492 45.644C100.598 45.7667 100.724 45.8653 100.868 45.94C101.017 46.0147 101.172 46.052 101.332 46.052C101.572 46.052 101.793 45.9827 101.996 45.844C102.198 45.7053 102.361 45.476 102.484 45.156C102.612 44.836 102.678 44.404 102.684 43.86C102.524 44.0627 102.337 44.2227 102.124 44.34C101.91 44.4573 101.697 44.516 101.484 44.516C101.046 44.516 100.694 44.3853 100.428 44.124C100.166 43.8573 100.036 43.4627 100.036 42.94C100.036 42.6147 100.105 42.3293 100.244 42.084C100.382 41.8387 100.564 41.6467 100.788 41.508C101.017 41.3693 101.268 41.3 101.54 41.3C101.876 41.3 102.177 41.3907 102.444 41.572C102.71 41.7533 102.918 42.0253 103.068 42.388C103.222 42.7507 103.3 43.2067 103.3 43.756C103.3 44.4387 103.206 44.988 103.02 45.404C102.838 45.82 102.601 46.124 102.308 46.316C102.014 46.5027 101.697 46.596 101.356 46.596ZM104.628 42.94C104.628 43.2707 104.706 43.5347 104.86 43.732C105.02 43.924 105.258 44.02 105.572 44.02C105.743 44.02 105.922 43.9667 106.108 43.86C106.3 43.7533 106.479 43.58 106.644 43.34C106.602 42.844 106.484 42.468 106.292 42.212C106.1 41.9507 105.842 41.82 105.516 41.82C105.271 41.82 105.06 41.924 104.884 42.132C104.714 42.3347 104.628 42.604 104.628 42.94ZM105.332 46.596C105.06 46.596 104.82 46.5453 104.612 46.444C104.41 46.3373 104.239 46.2093 104.1 46.06L104.468 45.644C104.575 45.7667 104.7 45.8653 104.844 45.94C104.994 46.0147 105.148 46.052 105.308 46.052C105.548 46.052 105.77 45.9827 105.972 45.844C106.175 45.7053 106.338 45.476 106.46 45.156C106.588 44.836 106.655 44.404 106.66 43.86C106.5 44.0627 106.314 44.2227 106.1 44.34C105.887 44.4573 105.674 44.516 105.46 44.516C105.023 44.516 104.671 44.3853 104.404 44.124C104.143 43.8573 104.012 43.4627 104.012 42.94C104.012 42.6147 104.082 42.3293 104.22 42.084C104.359 41.8387 104.54 41.6467 104.764 41.508C104.994 41.3693 105.244 41.3 105.516 41.3C105.852 41.3 106.154 41.3907 106.42 41.572C106.687 41.7533 106.895 42.0253 107.044 42.388C107.199 42.7507 107.276 43.2067 107.276 43.756C107.276 44.4387 107.183 44.988 106.996 45.404C106.815 45.82 106.578 46.124 106.284 46.316C105.991 46.5027 105.674 46.596 105.332 46.596ZM109.661 46.596C109.149 46.596 108.746 46.3667 108.453 45.908C108.165 45.444 108.021 44.7853 108.021 43.932C108.021 43.0733 108.165 42.42 108.453 41.972C108.746 41.524 109.149 41.3 109.661 41.3C110.168 41.3 110.565 41.524 110.853 41.972C111.146 42.42 111.293 43.0733 111.293 43.932C111.293 44.7853 111.146 45.444 110.853 45.908C110.565 46.3667 110.168 46.596 109.661 46.596ZM109.661 46.068C109.96 46.068 110.2 45.9 110.381 45.564C110.562 45.2227 110.653 44.6787 110.653 43.932C110.653 43.1853 110.562 42.6493 110.381 42.324C110.2 41.9933 109.96 41.828 109.661 41.828C109.362 41.828 109.12 41.9933 108.933 42.324C108.752 42.6493 108.661 43.1853 108.661 43.932C108.661 44.6787 108.752 45.2227 108.933 45.564C109.12 45.9 109.362 46.068 109.661 46.068ZM112.358 47.908L111.95 47.716C112.259 47.2093 112.488 46.6627 112.638 46.076C112.792 45.484 112.87 44.884 112.87 44.276C112.87 43.668 112.792 43.0707 112.638 42.484C112.488 41.892 112.259 41.3427 111.95 40.836L112.358 40.644C112.688 41.1773 112.947 41.74 113.134 42.332C113.32 42.924 113.414 43.572 113.414 44.276C113.414 44.98 113.32 45.628 113.134 46.22C112.947 46.8067 112.688 47.3693 112.358 47.908Z" fill="#272727"/>
<path d="M60.2043 60.596C59.8363 60.596 59.495 60.5267 59.1803 60.388C58.8657 60.244 58.5937 60.0547 58.3643 59.82L58.7643 59.356C58.951 59.5533 59.1697 59.7133 59.4203 59.836C59.6763 59.9533 59.9403 60.012 60.2123 60.012C60.559 60.012 60.8283 59.9347 61.0203 59.78C61.2123 59.62 61.3083 59.412 61.3083 59.156C61.3083 58.9747 61.2683 58.8307 61.1883 58.724C61.1137 58.6173 61.0097 58.5267 60.8763 58.452C60.7483 58.3773 60.6017 58.3027 60.4363 58.228L59.6843 57.9C59.519 57.8307 59.3537 57.74 59.1883 57.628C59.0283 57.516 58.8923 57.372 58.7803 57.196C58.6737 57.02 58.6203 56.804 58.6203 56.548C58.6203 56.2813 58.6897 56.044 58.8283 55.836C58.9723 55.6227 59.1697 55.4573 59.4203 55.34C59.671 55.2173 59.9537 55.156 60.2683 55.156C60.583 55.156 60.8737 55.2173 61.1403 55.34C61.407 55.4573 61.6337 55.612 61.8203 55.804L61.4603 56.236C61.3003 56.0813 61.1217 55.9613 60.9243 55.876C60.7323 55.7853 60.5137 55.74 60.2683 55.74C59.975 55.74 59.7377 55.8093 59.5563 55.948C59.3803 56.0867 59.2923 56.2733 59.2923 56.508C59.2923 56.6733 59.335 56.812 59.4203 56.924C59.511 57.0307 59.623 57.1187 59.7563 57.188C59.8897 57.2573 60.0257 57.3213 60.1643 57.38L60.9083 57.7C61.111 57.7853 61.2923 57.8893 61.4523 58.012C61.6177 58.1293 61.7483 58.276 61.8443 58.452C61.9403 58.6227 61.9883 58.8387 61.9883 59.1C61.9883 59.3773 61.9163 59.6307 61.7723 59.86C61.6283 60.084 61.423 60.2627 61.1563 60.396C60.8897 60.5293 60.5723 60.596 60.2043 60.596ZM64.5338 60.596C64.1871 60.596 63.8724 60.516 63.5898 60.356C63.3071 60.1907 63.0831 59.956 62.9178 59.652C62.7524 59.348 62.6698 58.9853 62.6698 58.564C62.6698 58.1373 62.7524 57.772 62.9178 57.468C63.0884 57.164 63.3071 56.9293 63.5738 56.764C63.8404 56.5987 64.1204 56.516 64.4138 56.516C64.9098 56.516 65.2911 56.6813 65.5578 57.012C65.8298 57.3427 65.9658 57.7853 65.9658 58.34C65.9658 58.4093 65.9631 58.4787 65.9578 58.548C65.9578 58.612 65.9524 58.668 65.9418 58.716H63.3178C63.3444 59.1267 63.4724 59.4547 63.7018 59.7C63.9364 59.9453 64.2404 60.068 64.6138 60.068C64.8004 60.068 64.9711 60.0413 65.1258 59.988C65.2858 59.9293 65.4378 59.8547 65.5818 59.764L65.8138 60.196C65.6484 60.3027 65.4591 60.396 65.2458 60.476C65.0378 60.556 64.8004 60.596 64.5338 60.596ZM63.3098 58.244H65.3898C65.3898 57.8493 65.3044 57.5507 65.1338 57.348C64.9684 57.14 64.7338 57.036 64.4298 57.036C64.1578 57.036 63.9124 57.1427 63.6938 57.356C63.4804 57.564 63.3524 57.86 63.3098 58.244ZM67.7131 60.596C67.3878 60.596 67.1158 60.5 66.8971 60.308C66.6838 60.1107 66.5771 59.8387 66.5771 59.492C66.5771 59.0653 66.7665 58.74 67.1451 58.516C67.5291 58.2867 68.1345 58.1267 68.9611 58.036C68.9611 57.8707 68.9371 57.7133 68.8891 57.564C68.8465 57.4147 68.7665 57.2947 68.6491 57.204C68.5371 57.108 68.3745 57.06 68.1611 57.06C67.9371 57.06 67.7265 57.1027 67.5291 57.188C67.3318 57.2733 67.1558 57.3693 67.0011 57.476L66.7451 57.02C66.9265 56.9027 67.1478 56.7907 67.4091 56.684C67.6758 56.572 67.9638 56.516 68.2731 56.516C68.7478 56.516 69.0918 56.6627 69.3051 56.956C69.5185 57.244 69.6251 57.6307 69.6251 58.116V60.5H69.0811L69.0251 60.036H69.0011C68.8198 60.1853 68.6198 60.316 68.4011 60.428C68.1878 60.54 67.9585 60.596 67.7131 60.596ZM67.9051 60.068C68.0918 60.068 68.2678 60.0227 68.4331 59.932C68.5985 59.8413 68.7745 59.7133 68.9611 59.548V58.468C68.3158 58.548 67.8625 58.668 67.6011 58.828C67.3451 58.988 67.2171 59.1933 67.2171 59.444C67.2171 59.6627 67.2838 59.8227 67.4171 59.924C67.5505 60.02 67.7131 60.068 67.9051 60.068ZM71.963 60.596C71.547 60.596 71.2563 60.476 71.091 60.236C70.931 59.996 70.851 59.684 70.851 59.3V57.148H70.275V56.652L70.883 56.612L70.963 55.524H71.515V56.612H72.563V57.148H71.515V59.308C71.515 59.548 71.5577 59.7347 71.643 59.868C71.7337 59.996 71.891 60.06 72.115 60.06C72.1843 60.06 72.259 60.0493 72.339 60.028C72.419 60.0013 72.491 59.9773 72.555 59.956L72.683 60.452C72.5763 60.4893 72.459 60.5213 72.331 60.548C72.2083 60.58 72.0857 60.596 71.963 60.596ZM74.5099 60.596C74.0939 60.596 73.8032 60.476 73.6379 60.236C73.4779 59.996 73.3979 59.684 73.3979 59.3V57.148H72.8219V56.652L73.4299 56.612L73.5099 55.524H74.0619V56.612H75.1099V57.148H74.0619V59.308C74.0619 59.548 74.1045 59.7347 74.1899 59.868C74.2805 59.996 74.4379 60.06 74.6619 60.06C74.7312 60.06 74.8059 60.0493 74.8859 60.028C74.9659 60.0013 75.0379 59.9773 75.1019 59.956L75.2299 60.452C75.1232 60.4893 75.0059 60.5213 74.8779 60.548C74.7552 60.58 74.6325 60.596 74.5099 60.596ZM76.685 60.596C76.4397 60.596 76.261 60.5213 76.149 60.372C76.0423 60.2173 75.989 59.9987 75.989 59.716V54.804H76.645V59.764C76.645 59.8653 76.6637 59.94 76.701 59.988C76.7383 60.0307 76.781 60.052 76.829 60.052C76.8503 60.052 76.869 60.052 76.885 60.052C76.9063 60.0467 76.9357 60.0413 76.973 60.036L77.061 60.532C77.0183 60.5533 76.9677 60.5693 76.909 60.58C76.8503 60.5907 76.7757 60.596 76.685 60.596ZM79.6041 60.596C79.2574 60.596 78.9427 60.516 78.6601 60.356C78.3774 60.1907 78.1534 59.956 77.9881 59.652C77.8227 59.348 77.7401 58.9853 77.7401 58.564C77.7401 58.1373 77.8227 57.772 77.9881 57.468C78.1587 57.164 78.3774 56.9293 78.6441 56.764C78.9107 56.5987 79.1907 56.516 79.4841 56.516C79.9801 56.516 80.3614 56.6813 80.6281 57.012C80.9001 57.3427 81.0361 57.7853 81.0361 58.34C81.0361 58.4093 81.0334 58.4787 81.0281 58.548C81.0281 58.612 81.0227 58.668 81.0121 58.716H78.3881C78.4147 59.1267 78.5427 59.4547 78.7721 59.7C79.0067 59.9453 79.3107 60.068 79.6841 60.068C79.8707 60.068 80.0414 60.0413 80.1961 59.988C80.3561 59.9293 80.5081 59.8547 80.6521 59.764L80.8841 60.196C80.7187 60.3027 80.5294 60.396 80.3161 60.476C80.1081 60.556 79.8707 60.596 79.6041 60.596ZM78.3801 58.244H80.4601C80.4601 57.8493 80.3747 57.5507 80.2041 57.348C80.0387 57.14 79.8041 57.036 79.5001 57.036C79.2281 57.036 78.9827 57.1427 78.7641 57.356C78.5507 57.564 78.4227 57.86 78.3801 58.244ZM81.8768 61.86L81.7168 61.476C81.9462 61.3747 82.1248 61.2387 82.2528 61.068C82.3808 60.9027 82.4422 60.7133 82.4368 60.5C82.4262 60.5053 82.4128 60.508 82.3968 60.508C82.3808 60.508 82.3675 60.508 82.3568 60.508C82.2288 60.508 82.1168 60.4707 82.0208 60.396C81.9302 60.316 81.8848 60.2013 81.8848 60.052C81.8848 59.908 81.9328 59.796 82.0288 59.716C82.1248 59.6307 82.2395 59.588 82.3728 59.588C82.5435 59.588 82.6768 59.6573 82.7728 59.796C82.8742 59.9347 82.9248 60.124 82.9248 60.364C82.9248 60.7053 82.8315 61.004 82.6448 61.26C82.4582 61.5213 82.2022 61.7213 81.8768 61.86ZM86.2306 60.5L85.1186 55.252H85.8066L86.3586 58.108C86.4066 58.3907 86.4572 58.6733 86.5106 58.956C86.5639 59.2387 86.6146 59.5213 86.6626 59.804H86.6946C86.7532 59.5213 86.8146 59.2387 86.8786 58.956C86.9426 58.668 87.0039 58.3853 87.0626 58.108L87.7906 55.252H88.3986L89.1266 58.108C89.1906 58.3853 89.2546 58.668 89.3186 58.956C89.3826 59.2387 89.4466 59.5213 89.5106 59.804H89.5426C89.5906 59.5213 89.6386 59.2387 89.6866 58.956C89.7346 58.668 89.7852 58.3853 89.8386 58.108L90.3906 55.252H91.0306L89.9426 60.5H89.1426L88.3506 57.34C88.3026 57.1373 88.2572 56.94 88.2146 56.748C88.1772 56.5507 88.1372 56.3507 88.0946 56.148H88.0626C88.0252 56.3507 87.9826 56.5507 87.9346 56.748C87.8866 56.94 87.8412 57.1373 87.7986 57.34L87.0226 60.5H86.2306ZM92.8476 57.564L92.5996 58.364H94.1756L93.9276 57.564C93.8316 57.2707 93.741 56.98 93.6556 56.692C93.5703 56.3987 93.485 56.1 93.3996 55.796H93.3676C93.2876 56.1 93.205 56.3987 93.1196 56.692C93.0343 56.98 92.9436 57.2707 92.8476 57.564ZM91.2476 60.5L93.0236 55.252H93.7756L95.5516 60.5H94.8396L94.3436 58.9H92.4316L91.9276 60.5H91.2476ZM96.1112 61.86L95.9512 61.476C96.1805 61.3747 96.3592 61.2387 96.4872 61.068C96.6152 60.9027 96.6765 60.7133 96.6712 60.5C96.6605 60.5053 96.6472 60.508 96.6312 60.508C96.6152 60.508 96.6019 60.508 96.5912 60.508C96.4632 60.508 96.3512 60.4707 96.2552 60.396C96.1645 60.316 96.1192 60.2013 96.1192 60.052C96.1192 59.908 96.1672 59.796 96.2632 59.716C96.3592 59.6307 96.4739 59.588 96.6072 59.588C96.7779 59.588 96.9112 59.6573 97.0072 59.796C97.1085 59.9347 97.1592 60.124 97.1592 60.364C97.1592 60.7053 97.0659 61.004 96.8792 61.26C96.6925 61.5213 96.4365 61.7213 96.1112 61.86ZM101.753 60.596C101.396 60.596 101.073 60.524 100.785 60.38C100.502 60.236 100.278 59.9987 100.113 59.668C99.9476 59.3373 99.8649 58.892 99.8649 58.332V55.252H100.529V58.348C100.529 58.7693 100.582 59.1027 100.689 59.348C100.801 59.588 100.948 59.7587 101.129 59.86C101.316 59.9613 101.524 60.012 101.753 60.012C101.988 60.012 102.198 59.9613 102.385 59.86C102.572 59.7587 102.718 59.588 102.825 59.348C102.937 59.1027 102.993 58.7693 102.993 58.348V55.252H103.633V58.332C103.633 58.892 103.55 59.3373 103.385 59.668C103.22 59.9987 102.996 60.236 102.713 60.38C102.43 60.524 102.11 60.596 101.753 60.596ZM106.423 60.596C106.055 60.596 105.714 60.5267 105.399 60.388C105.084 60.244 104.812 60.0547 104.583 59.82L104.983 59.356C105.17 59.5533 105.388 59.7133 105.639 59.836C105.895 59.9533 106.159 60.012 106.431 60.012C106.778 60.012 107.047 59.9347 107.239 59.78C107.431 59.62 107.527 59.412 107.527 59.156C107.527 58.9747 107.487 58.8307 107.407 58.724C107.332 58.6173 107.228 58.5267 107.095 58.452C106.967 58.3773 106.82 58.3027 106.655 58.228L105.903 57.9C105.738 57.8307 105.572 57.74 105.407 57.628C105.247 57.516 105.111 57.372 104.999 57.196C104.892 57.02 104.839 56.804 104.839 56.548C104.839 56.2813 104.908 56.044 105.047 55.836C105.191 55.6227 105.388 55.4573 105.639 55.34C105.89 55.2173 106.172 55.156 106.487 55.156C106.802 55.156 107.092 55.2173 107.359 55.34C107.626 55.4573 107.852 55.612 108.039 55.804L107.679 56.236C107.519 56.0813 107.34 55.9613 107.143 55.876C106.951 55.7853 106.732 55.74 106.487 55.74C106.194 55.74 105.956 55.8093 105.775 55.948C105.599 56.0867 105.511 56.2733 105.511 56.508C105.511 56.6733 105.554 56.812 105.639 56.924C105.73 57.0307 105.842 57.1187 105.975 57.188C106.108 57.2573 106.244 57.3213 106.383 57.38L107.127 57.7C107.33 57.7853 107.511 57.8893 107.671 58.012C107.836 58.1293 107.967 58.276 108.063 58.452C108.159 58.6227 108.207 58.8387 108.207 59.1C108.207 59.3773 108.135 59.6307 107.991 59.86C107.847 60.084 107.642 60.2627 107.375 60.396C107.108 60.5293 106.791 60.596 106.423 60.596ZM110.145 57.564L109.897 58.364H111.473L111.225 57.564C111.129 57.2707 111.038 56.98 110.953 56.692C110.867 56.3987 110.782 56.1 110.697 55.796H110.665C110.585 56.1 110.502 56.3987 110.417 56.692C110.331 56.98 110.241 57.2707 110.145 57.564ZM108.545 60.5L110.321 55.252H111.073L112.849 60.5H112.137L111.641 58.9H109.729L109.225 60.5H108.545Z" fill="#272727"/>
</g>
<defs>
<filter id="filter0_d_123_2629" x="0.0283203" y="0" width="132" height="77" filterUnits="userSpaceOnUse" color-interpolation-filters="sRGB">
<feFlood flood-opacity="0" result="BackgroundImageFix"/>
<feColorMatrix in="SourceAlpha" type="matrix" values="0 0 0 0 0 0 0 0 0 0 0 0 0 0 0 0 0 0 127 0" result="hardAlpha"/>
<feOffset dy="2"/>
<feGaussianBlur stdDeviation="3"/>
<feComposite in2="hardAlpha" operator="out"/>
<feColorMatrix type="matrix" values="0 0 0 0 0 0 0 0 0 0 0 0 0 0 0 0 0 0 0.15 0"/>
<feBlend mode="normal" in2="BackgroundImageFix" result="effect1_dropShadow_123_2629"/>
<feBlend mode="normal" in="SourceGraphic" in2="effect1_dropShadow_123_2629" result="shape"/>
</filter>
</defs>
</svg>
