<svg width="16" height="17" viewBox="0 0 16 17" fill="none" xmlns="http://www.w3.org/2000/svg">
<path fill-rule="evenodd" clip-rule="evenodd" d="M13.4594 4.00195C13.5813 4.12392 13.6498 4.28932 13.6498 4.46178C13.6498 4.63424 13.5813 4.79964 13.4594 4.9216L6.30504 12.0759C6.18308 12.1978 6.01768 12.2663 5.84522 12.2663C5.67276 12.2663 5.50736 12.1978 5.38539 12.0759L2.13343 8.82395C2.07131 8.76396 2.02177 8.69219 1.98768 8.61284C1.95359 8.53349 1.93565 8.44814 1.9349 8.36178C1.93415 8.27543 1.95061 8.18978 1.98331 8.10985C2.01601 8.02992 2.0643 7.9573 2.12537 7.89624C2.18644 7.83517 2.25906 7.78688 2.33899 7.75417C2.41892 7.72147 2.50456 7.70502 2.59092 7.70577C2.67728 7.70652 2.76262 7.72446 2.84197 7.75854C2.92132 7.79263 2.99309 7.84218 3.05309 7.9043L5.84522 10.6964L12.5397 4.00195C12.6617 3.88002 12.8271 3.81152 12.9995 3.81152C13.172 3.81152 13.3374 3.88002 13.4594 4.00195Z" fill="#111019"/>
</svg>
