<svg width="95" height="22" viewBox="0 0 95 22" fill="none" xmlns="http://www.w3.org/2000/svg">
<g clip-path="url(#clip0_2_559)">
<path d="M13.2397 14.5253C13.3581 14.5253 13.4723 14.5169 13.5865 14.5127H11.4384V14.5253H13.2355H13.2397Z" fill="#FF2C2C"/>
<path d="M19.5869 4.66119C18.9231 3.90112 18.052 3.29223 16.961 2.83451C15.87 2.37679 14.5549 2.15002 13.0072 2.15002H8.40649V5.04332H11.4384L13.9079 5.03913C14.2547 5.03913 14.6818 5.10631 15.185 5.23649C15.6882 5.36667 16.1787 5.60603 16.6607 5.95457C17.1428 6.30311 17.5445 6.79022 17.8744 7.42011C18.2 8.05001 18.3649 8.86467 18.3649 9.85989C18.3649 10.62 18.2422 11.296 17.997 11.8839C17.7517 12.4718 17.405 12.959 16.9525 13.3495C16.5001 13.7358 15.9588 14.0298 15.333 14.2313C14.8086 14.3993 14.2335 14.4917 13.6119 14.5211H13.5908C13.4766 14.5253 13.3624 14.5337 13.244 14.5337H11.4469V14.5211H8.41495V17.4396H13.7684C14.8128 17.4396 15.8023 17.2716 16.7369 16.9315C17.6714 16.5913 18.4917 16.1 19.2021 15.4575C19.9125 14.815 20.475 14.0382 20.8851 13.1311C21.2953 12.2241 21.5025 11.2037 21.5025 10.0699C21.5025 9.11242 21.3503 8.16759 21.0416 7.22275C20.7329 6.28211 20.2508 5.42966 19.5869 4.66959V4.66119Z" fill="#FF2C2C"/>
<path d="M25.1771 3.66174C24.7881 3.66174 24.4202 3.80032 24.0777 4.07747C23.7352 4.35462 23.566 4.70736 23.566 5.13569C23.566 5.56401 23.7352 5.91255 24.0777 6.18551C24.4202 6.45426 24.7839 6.58864 25.1771 6.58864C25.5704 6.58864 25.9256 6.45426 26.2554 6.18551C26.581 5.91675 26.746 5.56401 26.746 5.13569C26.746 4.70736 26.581 4.35462 26.2554 4.07747C25.9298 3.80032 25.5704 3.66174 25.1771 3.66174Z" fill="#FF2C2C"/>
<path d="M26.5599 8.35657H23.6337V17.4312H26.5599V8.35657Z" fill="#FF2C2C"/>
<path d="M36.4507 15.3945V16.0916C36.4845 16.0328 36.5268 15.974 36.5564 15.9152L36.4507 15.3945Z" fill="#FF2C2C"/>
<path d="M36.4549 9.07045C36.4549 9.07045 36.4676 9.07885 36.4718 9.08305L36.3661 9.3518L36.4549 9.06625C36.1631 8.73871 35.7318 8.46576 35.1609 8.23899C34.5816 8.01223 33.8966 7.89465 33.1016 7.89465C32.3066 7.89465 31.5539 8.10882 30.8435 8.53714C30.1331 8.96547 29.5538 9.55337 29.1098 10.2924C28.6658 11.0315 28.4417 11.8798 28.4417 12.8372C28.4417 13.7946 28.6489 14.5925 29.0675 15.319C29.4861 16.0454 30.0485 16.6207 30.7505 17.0407C31.4524 17.4648 32.2178 17.6748 33.0381 17.6748C33.9854 17.6748 34.755 17.4984 35.3385 17.1457C35.8459 16.8391 36.2096 16.4822 36.4464 16.0874V15.3904L36.5521 15.9111C36.5225 15.9741 36.4845 16.0286 36.4464 16.0874V17.385C36.4464 17.8427 36.3238 18.2207 36.0785 18.5272C35.8333 18.8296 35.5161 19.0647 35.1186 19.2243C34.7211 19.3839 34.294 19.4637 33.8331 19.4637C33.1354 19.4637 32.573 19.3293 32.1501 19.0605C31.7231 18.7918 31.3509 18.5104 31.0296 18.2207L29.317 20.2153C29.6214 20.4631 29.9724 20.7276 30.3614 21.0048C30.7505 21.2819 31.2283 21.5171 31.7949 21.7103C32.3616 21.9034 33.0551 22 33.8754 22C34.8776 22 35.7952 21.8027 36.624 21.4079C37.4528 21.0132 38.1209 20.4757 38.6199 19.787C39.1231 19.1025 39.3726 18.3173 39.3726 17.4312V8.35657H36.6748L36.4506 9.07045H36.4549ZM36.4506 13.9458C36.2815 14.2524 36.0785 14.5043 35.8333 14.7017C35.588 14.9032 35.3089 15.0544 34.996 15.1594C34.6831 15.2644 34.3236 15.3148 33.9177 15.3148C33.4441 15.3148 33.017 15.2056 32.6322 14.983C32.2474 14.7605 31.9472 14.4581 31.7231 14.0676C31.4989 13.6771 31.389 13.2445 31.389 12.7574C31.389 12.2703 31.4989 11.842 31.7231 11.4682C31.9472 11.0945 32.2474 10.8006 32.6322 10.5864C33.017 10.3722 33.4441 10.263 33.9177 10.263C34.3236 10.263 34.6873 10.3218 35.0171 10.4394C35.3427 10.557 35.6345 10.725 35.884 10.9391C36.1335 11.1533 36.3238 11.4136 36.4464 11.716V13.9374L36.4506 13.9458Z" fill="#FF2C2C"/>
<path d="M36.4718 9.08303C36.4718 9.08303 36.4633 9.07463 36.4549 9.07043L36.3661 9.35599L36.4718 9.08723V9.08303Z" fill="#FF2C2C"/>
<path d="M43.5166 3.66174C43.1276 3.66174 42.7597 3.80032 42.4172 4.07747C42.0747 4.35462 41.9055 4.70736 41.9055 5.13569C41.9055 5.56401 42.0747 5.91255 42.4172 6.18551C42.7597 6.45426 43.1234 6.58864 43.5166 6.58864C43.9099 6.58864 44.2651 6.45426 44.5949 6.18551C44.9205 5.91675 45.0854 5.56401 45.0854 5.13569C45.0854 4.70736 44.9205 4.35462 44.5949 4.07747C44.2693 3.80032 43.9099 3.66174 43.5166 3.66174Z" fill="#FF2C2C"/>
<path d="M44.8952 8.35657H41.969V17.4312H44.8952V8.35657Z" fill="#FF2C2C"/>
<path d="M51.2762 4.37146H48.35V8.31458H46.9249V10.578H48.35V17.4312H51.2762V10.578H53.492V8.31458H51.2762V4.37146Z" fill="#FF2C2C"/>
<path d="M62.4439 16.0832L62.2156 15.4617V16.3015C62.3424 16.1587 62.4185 16.0874 62.4439 16.0874V16.0832Z" fill="#FF2C2C"/>
<path d="M62.2325 9.28456C62.2325 9.28456 62.2621 9.31396 62.2748 9.33076L62.1479 9.6835L62.2283 9.28456C61.928 8.94442 61.5559 8.62948 61.1119 8.34393C60.6468 8.04578 59.9575 7.8988 59.0526 7.8988C58.2872 7.8988 57.5599 8.10457 56.8791 8.5119C56.194 8.91923 55.6443 9.49873 55.2257 10.2462C54.8071 10.9937 54.5999 11.8797 54.5999 12.9043C54.5999 13.9962 54.8028 14.899 55.2045 15.6045C55.6105 16.31 56.156 16.8349 56.8452 17.1708C57.5345 17.5067 58.3041 17.6789 59.1541 17.6789C59.6996 17.6789 60.1689 17.5991 60.5664 17.4396C60.9639 17.28 61.298 17.0952 61.5686 16.8769C61.8392 16.6627 62.0464 16.4737 62.186 16.3183C62.1944 16.31 62.1987 16.3058 62.2071 16.2974V15.4575L62.4355 16.079C62.4101 16.079 62.3298 16.1546 62.2071 16.2932V17.427H65.1333V8.35233H62.4143L62.224 9.28037L62.2325 9.28456ZM62.2114 13.9416C62.0591 14.2481 61.8773 14.5001 61.6659 14.6974C61.4587 14.899 61.2134 15.0502 60.9343 15.1552C60.6552 15.2601 60.3423 15.3105 59.9913 15.3105C59.56 15.3105 59.1583 15.2013 58.7904 14.9788C58.4225 14.7562 58.1265 14.4539 57.9024 14.0633C57.6783 13.6728 57.5683 13.2403 57.5683 12.7532C57.5683 12.266 57.6741 11.8377 57.8813 11.464C58.0885 11.0903 58.3718 10.7963 58.727 10.5821C59.0822 10.368 59.467 10.2588 59.8856 10.2588C60.262 10.2588 60.6045 10.3176 60.9089 10.4352C61.2134 10.5527 61.4798 10.7207 61.7039 10.9349C61.928 11.149 62.093 11.4094 62.2071 11.7117V13.9332L62.2114 13.9416Z" fill="#FF2C2C"/>
<path d="M62.2747 9.33074C62.2747 9.33074 62.2451 9.30134 62.2324 9.28455L62.1521 9.68348L62.279 9.33074H62.2747Z" fill="#FF2C2C"/>
<path d="M70.6601 1.04565H67.7339V17.4312H70.6601V1.04565Z" fill="#FF2C2C"/>
<path d="M80.5085 8.55389C79.7432 8.13396 78.834 7.9198 77.7895 7.9198C76.7451 7.9198 75.8444 8.12976 75.0494 8.55389C74.2544 8.97802 73.637 9.55332 73.1973 10.2882C72.7575 11.0231 72.5376 11.8545 72.5376 12.7784C72.5376 13.803 72.7617 14.6806 73.2057 15.4155C73.6497 16.1504 74.2671 16.7089 75.0579 17.0994C75.8486 17.4899 76.7408 17.6789 77.743 17.6789C78.8171 17.6789 79.7347 17.4648 80.5043 17.0364C81.2739 16.6081 81.8617 16.0244 82.2719 15.2811C82.682 14.5421 82.8892 13.7064 82.8892 12.7784C82.8892 11.8503 82.682 11.0189 82.2719 10.2882C81.8617 9.55752 81.2697 8.97802 80.5043 8.55389H80.5085ZM79.6713 14.0759C79.4894 14.4581 79.2315 14.7562 78.8974 14.9788C78.5634 15.2013 78.1659 15.3105 77.705 15.3105C77.2863 15.3105 76.91 15.2013 76.5759 14.9788C76.2419 14.7562 75.9755 14.4581 75.7809 14.0759C75.5864 13.6938 75.4892 13.2697 75.4892 12.7994C75.4892 12.329 75.5864 11.8839 75.7809 11.5102C75.9755 11.1364 76.2419 10.8383 76.5759 10.6157C76.91 10.3932 77.2863 10.284 77.705 10.284C78.1659 10.284 78.5634 10.3932 78.8974 10.6157C79.2315 10.8383 79.4894 11.1364 79.6713 11.5102C79.8531 11.8839 79.9419 12.3122 79.9419 12.7994C79.9419 13.2865 79.8531 13.6938 79.6713 14.0759Z" fill="#FF2C2C"/>
<path d="M92.0739 15.3945V16.0916C92.1077 16.0328 92.15 15.974 92.1796 15.9152L92.0739 15.3945Z" fill="#FF2C2C"/>
<path d="M92.3022 8.35657L92.078 9.07045C92.078 9.07045 92.0865 9.07885 92.0949 9.08305L91.9892 9.3518L92.078 9.06625C91.7863 8.73871 91.3549 8.46576 90.7841 8.23899C90.2048 8.01223 89.5197 7.89465 88.7248 7.89465C87.9298 7.89465 87.1771 8.10882 86.4667 8.53714C85.7563 8.96547 85.1769 9.55337 84.7329 10.2924C84.2847 11.0315 84.0648 11.8798 84.0648 12.8372C84.0648 13.7946 84.2762 14.5925 84.6907 15.319C85.1093 16.0454 85.6717 16.6207 86.3736 17.0407C87.0756 17.4648 87.841 17.6748 88.6655 17.6748C89.6128 17.6748 90.3781 17.4984 90.9659 17.1457C91.4776 16.8391 91.837 16.4822 92.0738 16.0874V15.3904L92.1795 15.9111C92.1499 15.9741 92.1119 16.0286 92.0738 16.0874V17.385C92.0738 17.8427 91.9512 18.2207 91.7059 18.5272C91.4607 18.8296 91.1435 19.0647 90.746 19.2243C90.3485 19.3839 89.9214 19.4637 89.4605 19.4637C88.7628 19.4637 88.2004 19.3293 87.7775 19.0605C87.3505 18.7918 86.9783 18.5104 86.657 18.2207L84.9444 20.2153C85.2488 20.4631 85.5998 20.7276 85.9888 21.0048C86.3779 21.2819 86.8557 21.5171 87.4223 21.7103C87.9847 21.9034 88.6782 22 89.5028 22C90.505 22 91.4226 21.8027 92.2514 21.4079C93.0802 21.0132 93.7483 20.4757 94.2473 19.787C94.7463 19.0983 95 18.3173 95 17.4312V8.35657H92.3022ZM92.0738 13.9416C91.9047 14.2482 91.7017 14.5001 91.4564 14.6975C91.2112 14.899 90.9321 15.0502 90.6192 15.1552C90.3063 15.2602 89.9468 15.3106 89.5409 15.3106C89.0673 15.3106 88.6402 15.2014 88.2554 14.9788C87.8706 14.7563 87.5703 14.4539 87.3462 14.0634C87.1221 13.6729 87.0122 13.2403 87.0122 12.7532C87.0122 12.2661 87.1221 11.8378 87.3462 11.464C87.5703 11.0903 87.8706 10.7964 88.2554 10.5822C88.6402 10.368 89.0673 10.2588 89.5409 10.2588C89.9468 10.2588 90.3105 10.3176 90.6403 10.4352C90.9659 10.5528 91.2577 10.7208 91.5072 10.9349C91.7567 11.1491 91.947 11.4094 92.0738 11.7118V13.9332V13.9416Z" fill="#FF2C2C"/>
<path d="M92.095 9.08303C92.095 9.08303 92.0865 9.07463 92.0781 9.07043L91.9893 9.35599L92.095 9.08723V9.08303Z" fill="#FF2C2C"/>
<path d="M8.41913 4.98877H3.16296V10.2085H8.41913V4.98877Z" fill="#FF2C2C"/>
<path d="M11.5991 10.2085H8.41919V13.3664H11.5991V10.2085Z" fill="#FF2C2C"/>
<path d="M3.17992 1.83093H0V4.98879H3.17992V1.83093Z" fill="#FF2C2C"/>
<path d="M5.04047 0H3.16296V1.86448H5.04047V0Z" fill="#FF2C2C"/>
</g>
<defs>
<clipPath id="clip0_2_559">
<rect width="95" height="22" fill="white"/>
</clipPath>
</defs>
</svg>
